<svg xmlns="http://www.w3.org/2000/svg" enable-background="new 0 0 24 24" viewBox="0 0 24 24" width="256" height="256"><path fill="#d8d8ff" d="M19.25 20.97c.483-.542.75-1.243.75-1.97v-2.62l-3.48-3.47a2.845 2.845 0 0 0-3.93 0l-.7.7 7.36 7.36" class="colord8d8ff svgShape"></path><path fill="#6563ff" d="M9.41 11.12a2.855 2.855 0 0 0-3.93 0L2 14.6V19a3.009 3.009 0 0 0 3 3h12c.138.002.275-.011.41-.04a2.895 2.895 0 0 0 1.84-.99l-7.36-7.36-2.48-2.49zM21 4h-1V3a1 1 0 1 0-2 0v1h-1a1 1 0 1 0 0 2h1v1.001A1 1 0 0 0 19 8h.001A1 1 0 0 0 20 7V6h1a1 1 0 1 0 0-2z" class="color6563ff svgShape"></path><path fill="#b2b1ff" d="M19.001 8H19a1 1 0 0 1-1-.999V6h-1a1 1 0 1 1 0-2H5a3.009 3.009 0 0 0-3 3v7.6l3.48-3.48a2.855 2.855 0 0 1 3.93 0l2.48 2.49.7-.7a2.845 2.845 0 0 1 3.93 0L20 16.38V7a1 1 0 0 1-.999 1z" class="colorb2b1ff svgShape"></path></svg>