<svg xmlns="http://www.w3.org/2000/svg" viewBox="0 0 6000 4000"><g style="isolation:isolate" fill="#000000" class="color000 svgShape"><path fill="#ebf3dc" d="M5643.33,2264.51c-121.71,819.84-614.08,777.94-614.08,777.94H635.77c-118.52-127.93-399-487.3-331.41-963.49a1104.91,1104.91,0,0,1,50.15-206.43c45.76-132.49,94.25-244.33,145.65-339,223.43-412,501.08-499.34,841.82-554.06,419.07-67.32,771.06-80.06,1026.27-540.07s780-221.44,1031.73,50.86c87.91,95.08,200.41,173.73,326.85,233.55,6.18,3,12.4,5.81,18.71,8.63q18,8.22,36.38,15.85,9.21,3.91,18.54,7.59,42.14,16.92,85.79,31a1454.46,1454.46,0,0,0,319.34,65.21,1424.66,1424.66,0,0,0,162.78,5.27q27.63-.75,55.09-2.53c6.27-.42,12.49-.91,18.76-1.41q33.66-2.68,67-7.14c48.45-6.43,103.34-2.74,162.24,10.21q11.7,2.55,23.65,5.6,15.56,4,31.44,8.79A901.88,901.88,0,0,1,4812,901.74c72.6,30.2,147.93,71.51,222.35,122.62a1517.9,1517.9,0,0,1,170.79,136.52c37.17,34.27,73.3,70.94,107.86,109.81q28.31,31.8,55.09,65.46c8,10,15.88,20.25,23.64,30.53C5576,1611,5694,1923.27,5643.33,2264.51Z" class="colorebf3dc svgShape"/><path fill="#d3e5b3" d="M5135.09,2656.82c-109.49,39.26-210.49,98.69-316.79,145.9s-231,88.17-346.6,74.91c-58.29-52.83-136.93-75.77-212.65-97.13l-356.54-100.59c-155.81-44-316.75-88.36-477.39-68.28-173.14,21.63-334.79,117.2-509.21,112.39-232.2-6.41-432.14-189-664.38-194.33-148.33-3.39-295.53,66.79-441.22,38.75-115.9-22.3-211.89-103.63-324.52-138.9-188.85-59.13-390.84,18-588.66,23.33-225.25,6.11-445.87-94.34-602.74-255.21-11.08,416.84,232.92,727.71,341.38,844.78H5029.24s340.67,29,525.31-433.16C5413.5,2593.23,5268.76,2608.88,5135.09,2656.82Z" class="colord3e5b3 svgShape"/><path fill="#aecf73" d="M5569.67,3367.4c-109.86,398.95-1351.28,216.22-1479,216.22s-418.36,162.93-1149.41,226.89q-66,5.77-132.29,8c-371.34,12.79-739-60.22-1090.57-186.2-131.18-47-259.1-111.73-392.6-150.07-202.7-58.21-414.76-40.53-622-53.21-117.7-7.22-386.71-13-386.71-198.71,0-306,917-201,917-201s2163.55-103.55,2619.94-103.55c50,0,110.93.52,179.67,2,280.08,5.85,689.66,27,1016.36,91.38C5375.39,3083.28,5618.48,3190.19,5569.67,3367.4Z" class="coloraecf73 svgShape"/><path fill="#d3e5b3" d="M2271.17,1752.19c0,58.49-129.76,206.09-497.38,267.61-274.21,45.88-1078.45,56.67-1469.43,59.16a1104.91,1104.91,0,0,1,50.15-206.43c45.76-132.49,94.25-244.33,145.65-339,201.15-68.7,397.66-130.13,465.44-133.2,0,0,490.75-34.52,609.15,33.89s425.87,68.11,497,109.22S2271.17,1693.66,2271.17,1752.19Z" class="colord3e5b3 svgShape"/><ellipse cx="3767.11" cy="3351.04" fill="#f3f3f3" opacity=".3" rx="601.26" ry="139.65" class="colorf3f3f3 svgShape"/><path d="M3641.52,3458.38s465.77-50.44,433.24-114.67-166-55.36-268.57-15.44S3641.52,3458.38,3641.52,3458.38Z" fill="#000000" class="color000 svgShape"/><path fill="#f3f3f3" d="M3475.61,3445.68l-534,157.61L2796.5,3556.7l-100.68-38.4-525.34,47.75-231.54-60.28-190.64-83.64H1517.91l-157.58-44.27s516.62-139.62,578.61-139.62,1181.8,29.13,1181.8,29.13Z" opacity=".3" class="colorf3f3f3 svgShape"/><polygon fill="#1f1f1f" points="1360.33 3377.86 1557.65 3386.43 1633.36 3371.7 1633.36 3346.75 1360.33 3377.86" class="color1f1f1f svgShape"/><circle cx="897.5" cy="2283.24" r="108.68" fill="#d3e5b3" class="colord3e5b3 svgShape"/><circle cx="304.36" cy="2877.25" r="72.61" fill="#d3e5b3" class="colord3e5b3 svgShape"/><path fill="#2d292a" d="M5391.73 1366.68v530.83a84.42 84.42 0 01-84.42 84.42H4779.52a84.42 84.42 0 01-84.42-84.42V862.08q15.56 4 31.44 8.79A901.88 901.88 0 014812 901.74c72.6 30.2 147.93 71.51 222.35 122.62a1517.9 1517.9 0 01170.79 136.52A1552.68 1552.68 0 015391.73 1366.68zM4442.22 853.41v1047a78.53 78.53 0 01-78.53 78.53H3824.07a78.53 78.53 0 01-78.53-78.53V732.4q18 8.22 36.38 15.85 9.21 3.91 18.54 7.59 42.14 16.92 85.79 31a1454.46 1454.46 0 00319.34 65.21 1424.66 1424.66 0 00162.78 5.27q27.63-.75 55.09-2.53C4429.73 854.4 4436 853.91 4442.22 853.41z" class="color2d292a svgShape"/><path fill="#34ab52" d="M5368.09,1336.15v539.66a84.42,84.42,0,0,1-84.42,84.42h-527.8a84.41,84.41,0,0,1-84.42-84.42V856.48q11.7,2.55,23.65,5.6,15.56,4,31.44,8.79A901.88,901.88,0,0,1,4812,901.74c72.6,30.2,147.93,71.51,222.35,122.62a1517.9,1517.9,0,0,1,170.79,136.52c37.17,34.27,73.3,70.94,107.86,109.81Q5341.31,1302.49,5368.09,1336.15Z" class="color34ab52 svgShape"/><path fill="#d3e5b3" d="M5313,1261.9v549.69a66.52,66.52,0,0,1-66.54,66.5H4793.08a66.52,66.52,0,0,1-66.54-66.5V862.08A901.74,901.74,0,0,1,4812,892.94c72.6,30.2,147.93,71.52,222.35,122.63a1517.9,1517.9,0,0,1,170.79,136.52C5242.31,1186.35,5278.44,1223,5313,1261.9Z" class="colord3e5b3 svgShape"/><polygon fill="#ffffff" points="4726.54 1777.23 5312.99 1430.07 5312.99 1322.96 4726.54 1670.12 4726.54 1777.23" class="colorfff svgShape"/><path fill="#ffffff" d="M5205.14 1160.88l-478.6 283.34V1206.56l307.81-182.2A1517.9 1517.9 0 015205.14 1160.88zM4812 901.74l-85.46 50.56V870.87A901.88 901.88 0 014812 901.74z" class="colorfff svgShape"/><path fill="#34ab52" d="M4423.46,854.82V1881.7a78.52,78.52,0,0,1-78.52,78.53H3805.36a78.53,78.53,0,0,1-78.53-78.53V723.77c6.18,3,12.4,5.81,18.71,8.63q18,8.22,36.38,15.85,9.21,3.91,18.54,7.59,42.14,16.92,85.79,31a1454.46,1454.46,0,0,0,319.34,65.21,1424.66,1424.66,0,0,0,162.78,5.27Q4396,856.6,4423.46,854.82Z" class="color34ab52 svgShape"/><path fill="#d3e5b3" d="M4368.37,849v952.13a77.37,77.37,0,0,1-77.4,77.4H3859.33a77.38,77.38,0,0,1-77.41-77.4V739.92q9.21,3.93,18.54,7.6,42.14,16.92,85.79,31a1454.46,1454.46,0,0,0,319.34,65.21A1424.66,1424.66,0,0,0,4368.37,849Z" class="colord3e5b3 svgShape"/><polygon fill="#ffffff" points="3781.92 1673.55 4368.37 1326.39 4368.37 1219.28 3781.92 1566.44 3781.92 1673.55" class="colorfff svgShape"/><path fill="#ffffff" d="M4368.37 857.35v136l-586.45 347.14V1102.89l423.67-250.81A1424.66 1424.66 0 004368.37 857.35zM3886.25 786.87l-104.33 61.77V766.83l18.54-11Q3842.6 772.76 3886.25 786.87z" class="colorfff svgShape"/><circle cx="5549.66" cy="1299.2" r="120.9" fill="#d3e5b3" class="colord3e5b3 svgShape"/><circle cx="5716.02" cy="2555.09" r="52.23" fill="#d3e5b3" class="colord3e5b3 svgShape"/><path fill="#f3f3f3" d="M5050.08,3023.17c-17.58,48.08-193,85.86-406.9,85.86-225.53,0-408.39-42-408.39-93.82,0-21.71,32.14-41.71,86.11-57.6C4521.84,2961.82,4815.69,2977,5050.08,3023.17Z" opacity=".3" class="colorf3f3f3 svgShape"/><path fill="#88ad2f" d="M5283.59,2059.16c-21.6-52.85-80.06-80.72-135.92-92.54-121-25.6-252.56,3.94-351,78.81S4634.61,2239.18,4627,2362.62l75.2,5.45c4.39-18.08,22-30.42,40.15-34.53s37-1.65,55.54.08a701.09,701.09,0,0,0,337.88-52.42c45.53-19.32,90.17-44.48,121-83.14S5302.31,2104.94,5283.59,2059.16Z" class="color88ad2f svgShape"/><path fill="#31a94f" d="M4829.56,2167c4.65,6.09,15,20.09,26,37.72a362.69,362.69,0,0,1,20.83,38.1c6.22,13.41,11.21,27.12,13.58,39.72a5.2,5.2,0,0,0,10.22-1.92c-2.66-14.06-8.08-28.69-14.67-42.83-9.9-21.2-22.46-41.28-32.56-56.11-5.73-8.4-10.66-15.11-13.88-19.37l-3.93,1.92Z" class="color31a94f svgShape"/><path fill="#31a94f" d="M4944.94 2109.61c.33-.59.66-1.21 1-1.83-66.26 21.23-125.69 50.89-169.43 75.86-46.68 26.65-75.5 48-75.63 48.07a5.2 5.2 0 006.19 8.36h0l0 0c1.37-1 50-36.75 122.46-73l5.57-2.77 3.93-1.92A835.83 835.83 0 014948 2118.05c-.73-.75-1.44-1.52-2.18-2.27A5.18 5.18 0 014944.94 2109.61zM5075.35 2083.13l1.4-2c-39.79 3-79.16 11.18-116.6 22.3-1.5 2.77-2.92 5.4-4.25 7.84 1.07 1.11 2.13 2.22 3.18 3.35 1.45-.44 2.89-.89 4.35-1.32 36.76-10.9 75.3-18.88 114-21.8l-1.71-1.9A5.18 5.18 0 015075.35 2083.13zM5212.58 2094.86c-33.82-10.54-68.71-15-103.59-15q-9.52 0-19 .43l-3.72 5.39c1.5 1.68 3 3.34 4.42 5q9.17-.4 18.33-.41c34 0 67.82 4.36 100.5 14.54a5.2 5.2 0 103.09-9.93z" class="color31a94f svgShape"/><path fill="#31a94f" d="M5090 2080.28l50.79-73.49a5.2 5.2 0 00-8.56-5.91h0l-55.44 80.22-1.4 2a5.18 5.18 0 00.42 6.44l1.71 1.9c36.82 41.05 56.14 71.9 66.21 92.37A142.61 142.61 0 015153 2207c.73 2.51 1.13 4.36 1.35 5.53.11.58.18 1 .21 1.25a2.14 2.14 0 010 .25h0a5.2 5.2 0 0010.35-.94c-.06-.69-1.19-12-11.93-33.85-10.05-20.41-28.5-50-62.36-88.59-1.44-1.65-2.92-3.31-4.42-5zM4960.15 2103.4c7.65-14.16 17.17-32 25.47-47.59 10.7-20.1 19.36-36.49 19.36-36.5a5.2 5.2 0 00-9.19-4.86h0s-.55 1-1.52 2.88c-6.69 12.64-33.87 63.94-48.33 90.45-.34.62-.67 1.24-1 1.83a5.18 5.18 0 00.89 6.17c.74.75 1.45 1.52 2.18 2.27a251 251 0 0132.53 42.34 383.87 383.87 0 0131.91 65.49c3.41 9 5.9 16.55 7.54 21.81.82 2.63 1.42 4.7 1.81 6.09l.45 1.59c0 .17.08.31.1.39l0 .09v0a5.2 5.2 0 0010.07-2.62c-.05-.19-5.8-22.24-18.53-51.31a375.81 375.81 0 00-24.54-47 266.77 266.77 0 00-30.3-40.32c-1.05-1.13-2.11-2.24-3.18-3.35C4957.23 2108.8 4958.65 2106.17 4960.15 2103.4z" class="color31a94f svgShape"/><path fill="#97c33f" d="M5156.57,1389.1c-22.53-27.14-61-34.59-96.24-35.24-140.89-2.58-274.57,77-363.17,186.55s-137.27,246.25-168.51,383.66a1841.5,1841.5,0,0,0-38.91,565.74L4650.44,2385c268.49-219.91,456.15-536.4,520.29-877.48C5178.34,1467.12,5182.84,1420.76,5156.57,1389.1Z" class="color97c33f svgShape"/><path fill="#31a94f" d="M4688 1962.7a5.19 5.19 0 01-6.11-5.12c0-.42 0-.86 0-1.29q-4.12 7.61-8.12 15c-38.72 71.56-67.64 126.09-67.65 126.1a5.2 5.2 0 009.19 4.87h0l1.32-2.48c6.5-12.23 36.4-68.43 73.84-137.49l-2.34.39zM4775.43 1798.34c-.27-2.63-.68-5.73-1.2-9.2l-.06-.42c-27.22 48.34-56.61 101.86-83.1 150.59.49 4.19.85 8.27 1 12.19 1.32-.21 2.84-.43 4.55-.68 25.12-46.25 53.11-97.31 79.49-144.38a5.22 5.22 0 01-.31-1.76C4775.83 1803.13 4775.7 1801 4775.43 1798.34zM4891.33 1625.69c17.6-23.4 35-45.32 51.08-64.79 21.15-25.69 39.87-47.13 53.29-62.15 6.71-7.51 12.09-13.41 15.8-17.43 1.85-2 3.28-3.55 4.25-4.58l1.09-1.17.37-.39a5.2 5.2 0 00-7.55-7.15c-.06.06-32.76 34.63-75.28 86.26-15.43 18.74-32.16 39.74-49.09 62.14.34 3.28.59 6.37.73 9.26zM4877.29 1634.56a5.2 5.2 0 01-1.53-3.67c0-.55 0-1.12 0-1.7-26.6 35.9-53.19 74.91-75.6 113.86-5.76 10-11.73 20.47-17.83 31.24 0 .24.09.49.13.72 1 5.84 1.89 11.11 2.53 15.72 8.33-14.77 16.44-29 24.18-42.49 22-38.22 48.17-76.67 74.42-112.15H4881A5.2 5.2 0 014877.29 1634.56z" class="color31a94f svgShape"/><path fill="#31a94f" d="M5039.53 1625.69H4886c-.14-2.89-.39-6-.73-9.26-.14-1.29-.28-2.6-.44-4-1.45-12.07-4-26.24-6.91-40.77-8.85-43.54-21.66-90.23-21.68-90.29a5.2 5.2 0 00-10 2.75h0l.09.3c.86 3.15 8.25 30.41 15.41 61.63 3.58 15.6 7.11 32.2 9.72 47.23 1.31 7.51 2.4 14.62 3.15 21 .66 5.6 1.06 10.65 1.14 14.85 0 .58 0 1.15 0 1.7a5.22 5.22 0 005.2 5.2h158.57a5.2 5.2 0 000-10.4zM4782.31 1774.29c-5.33-29.81-15.19-73.49-23.77-109.92-8.64-36.71-16-66-16-66a5.2 5.2 0 00-10.09 2.53h0s.17.67.48 1.95c2.39 9.59 13.14 53.07 23.28 97.73 5.07 22.34 10 45 13.63 63.78 1.78 9.22 3.25 17.51 4.29 24.38l.06.42c.52 3.47.93 6.57 1.2 9.2s.4 4.79.4 6.34a5.22 5.22 0 00.31 1.76 5.2 5.2 0 005.56 3.39 761.28 761.28 0 0197.92-6c29.65 0 55.2 1.51 73.31 3 9.06.75 16.25 1.51 21.18 2.07 2.46.28 4.35.52 5.62.68l1.44.19.36 0h.11a5.2 5.2 0 101.45-10.29c-.17 0-43.46-6.13-103.47-6.13a778.11 778.11 0 00-93.7 5.42c-.06-.68-.13-1.39-.21-2.12-.19-1.83-.45-3.83-.74-6-.64-4.61-1.49-9.88-2.53-15.72C4782.4 1774.78 4782.35 1774.53 4782.31 1774.29zM4691.07 1939.31c-1-8.17-2.42-16.76-4.23-25.5-4.85-23.37-12.08-47.64-18.1-66.12s-10.84-31.14-10.86-31.19a5.2 5.2 0 00-9.72 3.69h0l.09.25c1 2.57 9.42 25.19 17.6 53.06 4.09 13.93 8.11 29.18 11.1 43.85 2.88 14.11 4.77 27.71 4.9 38.94 0 .43 0 .87 0 1.29a5.19 5.19 0 006.11 5.12l.11 0 2.34-.39a588.25 588.25 0 0188.86-7.06c24.95 0 51.81 1.91 76 7.57a165.52 165.52 0 0133.69 11.44 94.3 94.3 0 0126.33 18 5.2 5.2 0 007.36-7.36 104.78 104.78 0 00-29.21-20.08c-16.54-7.89-35.52-12.86-55.15-15.9a389.61 389.61 0 00-59-4.12 605.41 605.41 0 00-82.64 6c-1.71.25-3.23.47-4.55.68C4691.92 1947.58 4691.56 1943.5 4691.07 1939.31z" class="color31a94f svgShape"/><path fill="#008926" d="M4610.68,1886.48l-84.1,465.76,40.05,10.38S4713.21,1929.08,4610.68,1886.48Z" class="color008926 svgShape"/><path fill="#97c33f" d="M4405.76,2259.62c-18.59-57.61-47.14-113.09-90.27-155.56s-102-70.92-162.57-69.46-121.17,36-146.09,91.19c-26.35,58.33-9.67,129.11,27.18,181.45s91,89.58,145.38,123.4l263.33,6.59C4433.57,2377.38,4424.35,2317.24,4405.76,2259.62Z" class="color97c33f svgShape"/><path fill="#31a94f" d="M4181.75 2229.5a407.52 407.52 0 00-62.82-22.9c-33.58-9.29-58-11.86-58.18-11.89a5.2 5.2 0 00-1.09 10.35h0c.39 0 43 4.63 92.27 23.2 9.48 3.57 19.2 7.66 28.91 12.33q3.73-.66 7.64-1.19Q4184.91 2234.39 4181.75 2229.5zM4293.62 2329.63c-14.72-29.39-36.77-52.5-61.39-70.59a281.43 281.43 0 00-30.74-19.53c.23.3.45.61.69.91a5.19 5.19 0 01-3.69 8.34l-1.51.15a268.11 268.11 0 0129.36 18.71c23.51 17.33 44.21 39.17 58 66.67a5.2 5.2 0 009.3-4.66z" class="color31a94f svgShape"/><path fill="#31a94f" d="M4202.81,2245.69a5.19,5.19,0,0,0-.63-5.27c-.24-.3-.46-.61-.69-.91-19.85-26.13-30.24-49.78-35.69-67.88-5.51-18.3-6-30.91-6-34.56,0-.4,0-.69,0-.87V2136h0a5.2,5.2,0,1,0-10.38-.54c0,.09,0,.64,0,1.62,0,4.5.55,18.14,6.4,37.56,4.6,15.28,12.48,34.13,25.91,54.87q3.15,4.89,6.74,9.9-3.9.53-7.64,1.19a164.72,164.72,0,0,0-33.41,9.55,145,145,0,0,0-45.74,29.32c-9.75,9.34-14.28,16.59-14.46,16.88a5.2,5.2,0,0,0,8.83,5.49h0c.24-.38,7.78-12.16,24.25-24.55a137.87,137.87,0,0,1,31.65-17.75,159.64,159.64,0,0,1,45-10.62l1.51-.15A5.2,5.2,0,0,0,4202.81,2245.69Z" class="color31a94f svgShape"/><path fill="#88ad2f" d="M4486.29,2403.64A2087.15,2087.15,0,0,0,4458.42,2144c-13.78-80.52-32.54-160.94-67.39-234.83S4304.17,1767.8,4234.59,1725c-17.74-10.92-36.91-20.31-57.52-23.34s-43,1-58.94,14.39c-27.08,22.73-28.24,63.43-25.43,98.67a1062.09,1062.09,0,0,0,88.65,347.64s62.83,213.59,135.48,255.54C4435.73,2428.86,4486.29,2403.64,4486.29,2403.64Z" class="color88ad2f svgShape"/><polygon fill="#31a94f" points="4153.62 1948.96 4153.62 1948.96 4153.62 1948.96 4153.62 1948.96" class="color31a94f svgShape"/><path fill="#31a94f" d="M4326.37,1846.21a5.19,5.19,0,0,0-7.14,1.76c-.06.11-10.08,16.71-22.53,42.68-11.54,24.08-25.17,56.22-34.87,90.81a140.71,140.71,0,0,0-25.06-15.55c-18.09-9-38.27-15.74-54-20.28s-27-6.84-27.07-6.86a5.2,5.2,0,0,0-2.08,10.19h0a412.46,412.46,0,0,1,43.88,12.17,277.82,277.82,0,0,1,35.13,14.35c11.24,5.63,21.33,12.13,28.3,19.12a5.2,5.2,0,0,0,8.71-2.37c9.51-36.73,24.14-71.54,36.4-97.1,6.12-12.78,11.65-23.26,15.64-30.52,2-3.64,3.61-6.47,4.72-8.38.55-1,1-1.69,1.27-2.18l.32-.54.08-.14,0,0A5.19,5.19,0,0,0,4326.37,1846.21Z" class="color31a94f svgShape"/><path fill="#31a94f" d="M4331.9 2135.64c-.48-1.3-1-2.61-1.45-3.91-33.5-89.63-76.32-176.84-110.77-241.68s-60.55-107.31-60.59-107.38a5.2 5.2 0 10-8.86 5.44h0l.13.21c2.75 4.5 49.08 80.55 98.94 182.71 24.48 50.15 49.8 106.59 71.24 163.92a72.82 72.82 0 018.72 5.34Q4330.58 2137.92 4331.9 2135.64zM4331.91 2153.22a5.21 5.21 0 01-4.34-1.13c-.34-.29-.69-.55-1-.83 19.49 54.14 35.12 108.61 43 158.79a5.2 5.2 0 1010.27-1.6c-8-50.88-23.67-105.61-43.17-159.91l-1.09 2A5.17 5.17 0 014331.91 2153.22z" class="color31a94f svgShape"/><path fill="#31a94f" d="M4394.58,2072.35a5.19,5.19,0,0,0-7.1-1.9c-.71.39-27.12,15.92-55.58,65.19q-1.32,2.28-2.64,4.65a72.82,72.82,0,0,0-8.72-5.34,79,79,0,0,0-13.63-5.56,98.59,98.59,0,0,0-28.65-4c-16.6,0-32,3.47-43.37,6.91a148.6,148.6,0,0,0-18.77,7,5.2,5.2,0,0,0,4.45,9.4h0a138.26,138.26,0,0,1,17.58-6.49c10.66-3.23,25.08-6.4,40.1-6.39a88,88,0,0,1,25.62,3.56,66.22,66.22,0,0,1,22.65,11.92c.35.28.7.54,1,.83a5.2,5.2,0,0,0,7.94-1.53l1.09-2c14.42-26.6,28.46-43.87,38.88-54.5a123.77,123.77,0,0,1,12.75-11.46c1.51-1.15,2.67-2,3.43-2.47l.83-.54.18-.11h0A5.19,5.19,0,0,0,4394.58,2072.35Z" class="color31a94f svgShape"/><path fill="#aecf73" d="M4625,1514.61c-17.38-65.32-52.12-128-106.78-167.76-57.59-41.9-143.06-52.57-198.53-7.91-49.27,39.66-61.93,108.68-67.13,171.72-26.47,320.77,51.92,639.9,129.7,952.23l167.69-70.34a2823.75,2823.75,0,0,0,92.93-676.61C4643.85,1648.36,4642.33,1579.93,4625,1514.61Z" class="coloraecf73 svgShape"/><path fill="#31a94f" d="M4450.34,2351.67h0s-.18-1.61-.51-4.71c-2.5-23.22-13.75-129.87-24.37-263.22s-20.62-293.4-20.62-423.32c0-47.39,1.33-90.78,4.44-127.32,1.54-18.27,3.54-34.82,6-49.29s5.44-26.86,8.88-36.72a5.2,5.2,0,0,0-9.82-3.42c-3.71,10.65-6.77,23.52-9.32,38.38-3.81,22.28-6.45,49-8.15,79.11s-2.45,63.57-2.45,99.26c0,139.12,11.4,312.15,22.78,450.47S4440,2352.77,4440,2352.81a5.2,5.2,0,0,0,10.34-1.14Z" class="color31a94f svgShape"/><path fill="#31a94f" d="M4327.45 1714.88c8.29 20.38 17.6 38.84 28.14 52.55 5.29 6.85 10.89 12.54 17 16.62a40.61 40.61 0 009.56 4.8 31.38 31.38 0 0018.9.54 47.26 47.26 0 0012.88-6c7.83-5.09 15.32-12.42 22.63-21.32 12.78-15.59 25-36 36.22-58.06 16.86-33 31.52-69.47 42-97.73s16.75-48.3 16.77-48.36a5.2 5.2 0 10-9.92-3.11h0l-.05.15A1167.61 1167.61 0 014480 1664.43c-11.91 26.87-25.62 54-39.9 75.26-7.12 10.61-14.4 19.74-21.53 26.59a70.91 70.91 0 01-10.5 8.47 36.9 36.9 0 01-9.87 4.63 21.41 21.41 0 01-5.77.81 22.6 22.6 0 01-9.33-2.11 37.84 37.84 0 01-9-5.9c-5.7-4.87-11.42-11.93-16.89-20.58-9.59-15.13-18.44-35.06-26.2-56.34-11.66-31.94-20.92-67-27.24-93.94-3.16-13.49-5.59-25-7.23-33.09-.82-4-1.44-7.26-1.86-9.45-.21-1.1-.36-1.94-.47-2.5-.05-.29-.09-.5-.11-.64l0-.21a5.2 5.2 0 00-10.24 1.83c0 .13 10.3 57.52 28.48 115.17C4316.88 1686.85 4321.92 1701.29 4327.45 1714.88zM4547.69 1780.44a5.2 5.2 0 00-6.55 3.35h0l-.05.15c-1 3.1-18.35 56.15-43.09 108.89-12.36 26.36-26.59 52.65-41.36 72.43-7.37 9.89-14.88 18.14-22.18 23.94a54.88 54.88 0 01-10.7 6.81 31.06 31.06 0 01-9 2.76 134.22 134.22 0 01-46.58-25.63c-19.7-16.44-33.51-36.53-42.33-52.49a202.76 202.76 0 01-9.63-19.84c-1-2.45-1.78-4.41-2.26-5.73-.25-.66-.43-1.17-.54-1.5l-.13-.37 0-.08h0a5.2 5.2 0 00-9.89 3.23c.11.31 7.26 22.21 24.42 47.24a185.74 185.74 0 0033.72 37.54 144.51 144.51 0 0051.26 27.93 5.06 5.06 0 002 .19 40.79 40.79 0 0013.65-3.9c8.31-3.95 16.19-10.38 23.85-18.5 13.37-14.22 26.06-33.72 37.76-55.07 17.53-32 32.76-68.14 43.64-96.32s17.4-48.4 17.42-48.46A5.2 5.2 0 004547.69 1780.44z" class="color31a94f svgShape"/><path fill="#34ab52" d="M4771.33,2352.2l-.1.7-.11.83-.14,1.07c-3.43,25.28-31.75,235.46-70.51,587.57l-.31,2.53q-2.13,19.82-4.4,40.21c-132.85,132.88-448.94,40.22-460.65,36.72l-.32-.11L4114.08,2352.2c0-20.38,375.48-25.34,558.83-14.94,33.39,1.94,60.36,4.34,77.55,7.21a.22.22,0,0,0,.17.07C4763.91,2346.76,4771.33,2349.33,4771.33,2352.2Z" class="color34ab52 svgShape"/><path fill="#161213" d="M4771.33,2352.2l-.1.7-.11.83-.14,1.07-70.51,587.57-.31,2.53q-2.13,19.82-4.4,40.21c-132.85,132.88-448.94,40.22-460.65,36.72l-.32-.11s248.74-8.42,293.94-34.53,95.06-223.11,138-645.52a22,22,0,0,1,6.2-4.41c33.39,1.94,60.36,4.34,77.55,7.21a.22.22,0,0,0,.17.07C4762.87,2348.6,4771.33,2352.2,4771.33,2352.2Z" class="color161213 svgShape"/><path fill="#f12f18" d="M3135.68,1472.38S3015.59,1624,2951.6,1771.45,2669.21,2014.89,2609.4,2026c12.52,77.9,18.37,114.92,76.65,114.92,221.5-67.63,441.75-173.81,476.29-314.54S3135.68,1472.38,3135.68,1472.38Z" class="colorf12f18 svgShape"/><path fill="#1f1f1f" d="M3013.43 1980.79s14.57-43.41 21-47.12 84.39-57.31 110.59-83.52l12.21 12.21-135.05 131-26.92-7.41 5.26-8.08zM2609.4 2026s76.91-3.18 68.82 81.56c-41.46 3.14-73 6.85-73 6.85S2574.9 2035.91 2609.4 2026z" class="color1f1f1f svgShape"/><path fill="#f08970" d="M2497.65,2090c-17.62,28.13-32.28,51-32.28,51l58.43-8.22s13.82,23.33,29.67,23.33,93.56-15.54,93.56-44.87c-10.27-54.36-26-70.13-26-70.13S2515.27,2061.88,2497.65,2090Z" class="colorf08970 svgShape"/><path fill="#cf7661" d="M2484.62,2137.51s52.64-40.1,62.72-34.28,8.86,28.17,8.86,28.17Z" class="colorcf7661 svgShape"/><path fill="#383435" d="M3116.7,1706.41s6.93,166,67.2,190.08c-10.76-40.64-7.41-45.34-7.41-45.34S3117.19,1730.55,3116.7,1706.41Z" class="color383435 svgShape"/><path fill="#dd4656" d="M3555.36,3250.94l-381.05,125.93s1,41.69,24.45,55.37,124.38-7.14,205.54-43.76S3578.61,3301.41,3555.36,3250.94Z" class="colordd4656 svgShape"/><path d="M3318,3232.87s-162.49,114.53-141.83,149.36,117.9,17.41,203.25-16.75,176-81.05,176-114.54-23.25-50.47-23.25-50.47l-139.5,4.92Z" fill="#000000" class="color000 svgShape"/><path fill="#f1f5ff" d="M4016.51,3239.47l-424.67,148.58s1.15,49.19,27.25,65.34,138.62-8.43,229.06-51.64S4042.42,3299,4016.51,3239.47Z" class="colorf1f5ff svgShape"/><path fill="#383435" d="M3634.82,2491.29s-62.76,107.65-90,166.67-16.2,444.52,3.46,564.2c-71.56,76.7-243.81,23.63-243.81,23.63s-68.82-460-68.82-614.87S3420,2039.75,3420,2039.75l321-41.63Z" class="color383435 svgShape"/><path fill="#161213" d="M3659.72,2157.85s-84.07,243.44-101.85,363.07-17.78,159.39-17.78,159.39,70.19-168.4,119.63-196.95C3695.89,2239.92,3659.72,2157.85,3659.72,2157.85Z" class="color161213 svgShape"/><polygon fill="#ffd666" points="3603.65 2853.72 3603.65 3384.77 2796.5 3556.7 2796.5 2993.41 3603.65 2853.72" class="colorffd666 svgShape"/><path fill="#34ab52" d="M3751.93,3218.15s-181.08,135.13-158.07,176.22,131.41,20.55,226.52-19.75,196.13-95.63,196.13-135.15-25.91-59.55-25.91-59.55l-155.47,5.81Z" class="color34ab52 svgShape"/><path fill="#383435" d="M3935.65,2590.34c17.69-88.51,188.75-592.22,70.13-760.12L3625,1964.4l-7.87,124.35s-43.25,408.86-11.79,592.22,131.73,535.32,131.73,535.32,236,35.82,277.24-69.55C4014.3,3146.74,3918,2678.86,3935.65,2590.34Z" class="color383435 svgShape"/><path fill="#161213" d="M3421.7,2085.24s99.56,54.22,200.11,30.56,205.53-40.15,278-82,79.82-76.52,79.82-76.52l-177.41-6.12-308.54,92.66Z" class="color161213 svgShape"/><path fill="#f12f18" d="M3135.68,1472.38s-76,118.7-11.13,285.63,241.12,369.09,395.06,333.85,551.79-67.23,503.1-253.64-420.33-541.36-648.35-516.89S3135.68,1472.38,3135.68,1472.38Z" class="colorf12f18 svgShape"/><path fill="#383435" d="M3165.62,1843.06s101.33-36.62,158.57-96.59c50.12-52.52,87-124.19,87-124.19s27.8,57.92-28.3,135.81c-38.19,53-157.94,135.81-185.19,135.81C3130.42,1893.9,3165.62,1843.06,3165.62,1843.06Z" class="color383435 svgShape"/><path fill="#fca692" d="M3207.16,1555.33c-13.93-8.09-53.92-71.63-76.67-109.12l0,0-16.31-27.27a.09.09,0,0,1,0-.07c-32.86,32.86-131.43,13.86-167.19-49s-188.35-236,23.63-326S3185.8,1174.5,3198.11,1209s31.24,108.46,105.19,158.55C3314.8,1407,3263.86,1547.5,3207.16,1555.33Z" class="colorfca692 svgShape"/><path fill="#1f1f1f" d="M2860.33,1161.35s14.09,57.51,73.24,57.51,119.5-58.33,164.92-44.36,37.2,45.19,52,60,26.29-4.1,47.65,44.37c38.61-12.32,45.19-15.61,38.61-31.22s-34.5-104.34-43.54-135.56-248.14-30.13-278.26,0A673,673,0,0,1,2860.33,1161.35Z" class="color1f1f1f svgShape"/><path fill="#1f1f1f" d="M2914.94 1197.78s5.32 34.08-12.35 51.76-11.76 29.3-11.76 29.3-70.23-66.89-36.34-122.35S2914.94 1197.78 2914.94 1197.78zM3130.49 1446.21l0 0-16.31-27.27a.09.09 0 010-.07l43.37-50.17S3158.16 1440 3130.49 1446.21z" class="color1f1f1f svgShape"/><circle cx="2952.92" cy="1319.89" r="14.3" fill="#1a1a1a" class="color1a1a1a svgShape"/><circle cx="3039.58" cy="1263.8" r="14.17" fill="#1a1a1a" class="color1a1a1a svgShape"/><path fill="#f96349" d="M2994.37,1305.86s5.46,51,17.51,50.94,25.79-8,15.57-25.52S2990.22,1292.58,2994.37,1305.86Z" class="colorf96349 svgShape"/><circle cx="3089.06" cy="1283.94" r="21.92" fill="#f96349" class="colorf96349 svgShape"/><path fill="#fca692" d="M3140.62,1224.89s-1.49-49.55,35.33-45.6,35.32,104.11,9.85,98.68S3140.62,1224.89,3140.62,1224.89Z" class="colorfca692 svgShape"/><path fill="#fdfefe" d="M3084.73,1340.79a19.9,19.9,0,0,0-2.1-2.52c-14.85,23.83-68.13,38.62-68.13,38.62.77,1,1.55,1.88,2.33,2.77C3041.81,1379,3074.65,1365.51,3084.73,1340.79Z" class="colorfdfefe svgShape"/><path fill="#592b22" d="M3087.39,1345.76a20.89,20.89,0,0,0-2.66-5c-10.08,24.72-42.92,38.24-67.9,38.87a67.68,67.68,0,0,0,6.34,6.34C3059.34,1417.5,3096.94,1371.52,3087.39,1345.76Z" class="color592b22 svgShape"/><path fill="#b1d477" d="M566.58,1640.62H2335.72c26.89,0,123-3.27,170.42-56.25,23-25.64,24.44-65.94,20.64-100.21-8.29-74.56-88.1-115.63-224.73-115.63-9.64,0-16.39.25-19.1.38H724.4C668.86,1443.22,616.29,1532.6,566.58,1640.62Z" class="colorb1d477 svgShape"/><path fill="#135f26" d="M446.7,1640.62H2215.83c26.9,0,123-3.27,170.43-56.25,22.95-25.64,24.43-65.94,20.64-100.21-8.3-74.56-88.11-115.63-224.73-115.63-9.64,0-16.4.25-19.11.38H604.52C549,1443.22,496.4,1532.6,446.7,1640.62Z" class="color135f26 svgShape"/><path fill="#d3e5b3" d="M2215.83,1599.14H466.39c34.76-71.19,70.93-133.7,108.48-188.75H2164.06s191.74-10.37,201.61,78.36S2245.41,1599.14,2215.83,1599.14Z" class="colord3e5b3 svgShape"/><circle cx="2203.75" cy="1498.36" r="64.32" fill="#2d292a" class="color2d292a svgShape"/><path fill="#135f26" d="M1572.5,1476.92h26.24a66.72,66.72,0,0,1,66.72,66.72V2964.41a0,0,0,0,1,0,0H1505.77a0,0,0,0,1,0,0V1543.65A66.72,66.72,0,0,1,1572.5,1476.92Z" class="color135f26 svgShape"/><path fill="#b1d477" d="M1534.37,1476.92h26.24a66.72,66.72,0,0,1,66.72,66.72V2964.41a0,0,0,0,1,0,0H1467.64a0,0,0,0,1,0,0V1543.65A66.72,66.72,0,0,1,1534.37,1476.92Z" class="colorb1d477 svgShape"/><circle cx="1553.4" cy="1584.37" r="38.44" fill="#2d292a" class="color2d292a svgShape"/><rect width="573.71" height="603.28" x="1357.48" y="408.52" fill="#135f26" rx="67.26" class="color135f26 svgShape"/><rect width="452.46" height="603.28" x="2019.17" y="407.79" fill="#135f26" rx="68.14" class="color135f26 svgShape"/><rect width="573.71" height="603.28" x="1319.78" y="370.82" fill="#31a94f" rx="67.26" class="color31a94f svgShape"/><circle cx="1599.24" cy="659.15" r="205.53" fill="#ebf3dc" class="colorebf3dc svgShape"/><path fill="#1a1a1a" d="M1606.63,511a6.23,6.23,0,0,0-6.22,6.22h0v153l-103.49,121a6.22,6.22,0,0,0,9.46,8.09l105-122.73a6.17,6.17,0,0,0,1.49-4V517.2A6.22,6.22,0,0,0,1606.63,511Z" class="color1a1a1a svgShape"/><rect width="452.46" height="603.28" x="1985.16" y="370.82" fill="#ffbb00" rx="68.14" class="colorfb0 svgShape"/><path fill="#fcf0dc" d="M2266.07,476.53,2134.5,672.46l100.55,91.67S2154.46,902.38,2167,915s143.43-152.3,143.43-171.52-88-87.24-88-102S2285.27,487.62,2266.07,476.53Z" class="colorfcf0dc svgShape"/><rect width="482.11" height="150.24" x="624.46" y="934.92" fill="#bf8c00" class="colorbf8c00 svgShape"/><rect width="482.11" height="283.37" x="624.46" y="1085.16" fill="#ffbb00" class="colorfb0 svgShape"/><rect width="144.06" height="150.24" x="1106.57" y="934.92" fill="#8f6900" class="color8f6900 svgShape"/><rect width="144.06" height="283.37" x="1106.57" y="1085.16" fill="#bf8c00" class="colorbf8c00 svgShape"/><polygon fill="#ffbb00" points="1126.55 2908.64 1367.07 2993.41 1792.91 2951.03 1627.31 2908.64 1126.55 2908.64" class="colorfb0 svgShape"/><polygon fill="#bf8c00" points="1126.55 2908.64 1138.38 3249.71 1360.33 3377.86 1367.07 2993.41 1126.55 2908.64" class="colorbf8c00 svgShape"/><polygon fill="#ffd666" points="1792.91 2951.03 1792.91 3328.57 1360.33 3377.86 1367.07 2993.41 1792.91 2951.03" class="colorffd666 svgShape"/><path fill="#ffbb00" d="M2395.07,2864.05l401.43,129.36s797.15-134.84,809.12-141.76-498.88-105.35-498.88-105.35Z" class="colorfb0 svgShape"/><polygon fill="#bf8c00" points="2397.04 2866.07 2397.04 3404.33 2796.5 3556.7 2796.5 2993.41 2397.04 2866.07" class="colorbf8c00 svgShape"/><polygon fill="#bf8c00" points="1614.61 2836.12 1919.45 2941.26 1914.75 3505.77 1609.17 3371.7 1614.61 2836.12" class="colorbf8c00 svgShape"/><polygon fill="#ffbb00" points="1614.61 2836.12 2224.05 2798.45 2540.48 2956.05 1919.45 2941.26 1614.61 2836.12" class="colorfb0 svgShape"/><polygon fill="#ffd666" points="1914.75 3505.77 2523.94 3460.42 2540.48 2956.05 1919.45 2941.26 1914.75 3505.77" class="colorffd666 svgShape"/><polygon fill="#bf8c00" points="2058.82 2188.17 2558.95 2354.18 2535.83 2982.49 2069.33 2826.99 2058.82 2188.17" class="colorbf8c00 svgShape"/><polygon fill="#ffbb00" points="2058.82 2188.17 2800.61 2099.91 3254.5 2253.31 2558.95 2354.18 2058.82 2188.17" class="colorfb0 svgShape"/><path fill="#ffd666" d="M2535.83,2982.49S3168,2902.11,3200.39,2869s79.09-615.7,38-615.7-680,100.87-680,100.87Z" class="colorffd666 svgShape"/><path d="M2366.2,2290.2s596.41-53.93,641.62-63.15,97.06-24.3,97.06-24.3l-209.71-70.88s-78.59,45.92-131.88,54.11-495.22,72.41-495.22,72.41Z" style="mix-blend-mode:multiply" fill="#1f1f1f" opacity=".5" class="color1f1f1f svgShape"/><polygon fill="#f1af69" points="2235.7 2882.44 2314.29 2908.64 2348.87 2286.17 2255.06 2253.91 2235.7 2882.44" class="colorf1af69 svgShape"/><polygon fill="#ffd666" points="2641.12 2085.73 2255.23 2253.98 2349.06 2286.23 2702.22 2114.51 2641.12 2085.73" class="colorffd666 svgShape"/><rect width="158.62" height="149.83" x="671.93" y="1200.53" fill="#ffffff" rx="30.48" class="colorfff svgShape"/><rect width="158.62" height="149.83" x="858.24" y="1200.53" fill="#ffffff" rx="30.48" class="colorfff svgShape"/><path fill="#ed9b43" d="M800 1227.48H702.44a49.24 49.24 0 0045.39 42.63v38.51c-14.27.86-25.65 7-27.51 14.8h61.84c-1.87-7.8-13.24-13.94-27.52-14.8v-38.51A49.23 49.23 0 00800 1227.48zM977.59 1262.76a40 40 0 10-80.09 0s0 .1 0 .16h36v51.61a2.36 2.36 0 01-.36 1.31 5 5 0 01-2.41 1.74 12.43 12.43 0 01-4.61.82 11.36 11.36 0 01-5.74-1.37 4.09 4.09 0 01-1.29-1.19 2.36 2.36 0 01-.35-1.31v-9.81a4 4 0 10-8.06 0v9.81a10.45 10.45 0 001.6 5.61 12.94 12.94 0 006.21 4.92 20.68 20.68 0 007.63 1.4 19.3 19.3 0 0010-2.57 12 12 0 003.88-3.75 10.36 10.36 0 001.6-5.61v-51.61h36C977.58 1262.86 977.59 1262.81 977.59 1262.76z" class="colored9b43 svgShape"/><path fill="#c48644" d="M2077.57 3399.64l-69 4.41c-16.22 1-29.36-14.46-29.36-34.6v-76.89c0-20.14 13.14-37.31 29.36-38.35l69-4.4c16.21-1 29.36 14.45 29.36 34.59v76.89C2106.93 3381.43 2093.78 3398.6 2077.57 3399.64zM2227.54 3390.06l-69 4.4c-16.21 1-29.36-14.45-29.36-34.59V3283c0-20.15 13.15-37.31 29.36-38.35l69-4.41c16.21-1 29.35 14.46 29.35 34.6v76.89C2256.89 3371.85 2243.75 3389 2227.54 3390.06z" class="colorc48644 svgShape"/><path fill="#ffd666" d="M2082.36 3276.45l-78.55 5c2.44 22.87 17.66 39.89 36.54 40.29v38.51c-11.5 1.59-20.65 8.32-22.15 16.22l49.78-3.18c-1.51-7.71-10.66-13.27-22.15-13.39v-38.51C2064.7 3318.59 2079.92 3299.63 2082.36 3276.45zM2225.29 3302.59c0-22.12-14.43-39.12-32.24-38s-32.23 20-32.23 42.11c0 .06 0 .11 0 .16l29-1.85v51.61a2.8 2.8 0 01-.29 1.32 4.66 4.66 0 01-1.94 1.88 8.78 8.78 0 01-3.71 1.05 7.45 7.45 0 01-4.61-1.08 3.32 3.32 0 01-1-1.12 2.62 2.62 0 01-.29-1.29v-9.81c0-2.22-1.45-3.94-3.24-3.82s-3.24 2-3.24 4.23v9.82a11.77 11.77 0 001.29 5.52 10.11 10.11 0 005 4.6 13.29 13.29 0 006.13 1 13.93 13.93 0 008-3.09 12 12 0 003.13-3.94 13.11 13.11 0 001.29-5.69V3304.6l29-1.85C2225.28 3302.7 2225.29 3302.65 2225.29 3302.59z" class="colorffd666 svgShape"/><path fill="#c48644" d="M2980.42 3423.73l-86.6 15.17c-21.21 3.72-38.67-9.31-38.67-29.23v-76.88c0-20.37 17.75-39.07 39.33-41.64l88-10.52c19.85-2.37 35.43 11.35 35.07 30.53l-1.33 72.45C3015.87 3402.4 3000 3420.3 2980.42 3423.73zM3150.5 3393.93l-75.32 13.19c-18.4 3.23-33.2-9.14-32.8-27.74l1.53-71.73c.41-19 16.08-36.28 34.75-38.51L3155 3260c17.27-2.06 30.54 10.89 29.88 28.85l-2.53 67.86C3181.71 3374.33 3167.54 3390.94 3150.5 3393.93z" class="colorc48644 svgShape"/><path fill="#ffd666" d="M2988 3306l-99.95 13c3.13 22.5 22.89 37.45 47.06 35.5l-.34 37.31c-14.62 3.16-26.41 11-28.39 18.92l62.68-10.36c-1.75-7.11-13-11.15-27.38-9.67l.37-37.21C2965.68 3348.42 2984.67 3328.48 2988 3306zM3150.73 3316.47c.66-19.88-14.38-34.07-33.89-31.57-19.83 2.53-36.57 21.26-37.09 41.71v.15l32.43-4.64-1.37 46.76a2.31 2.31 0 01-.35 1.22 5.68 5.68 0 01-2.18 1.92 12.55 12.55 0 01-4.11 1.41 9.07 9.07 0 01-5.07-.41 2.68 2.68 0 01-1.12-.89 1.79 1.79 0 01-.29-1.13l.25-8.89a2.93 2.93 0 00-3.51-3.09 4.56 4.56 0 00-3.72 4.23l-.24 8.92a8.27 8.27 0 001.3 4.86 8.88 8.88 0 005.44 3.53 17 17 0 006.75.14 20 20 0 008.88-3.78 14.07 14.07 0 003.52-3.93 11.11 11.11 0 001.56-5.26l1.4-46.63 31.39-4.48A.77.77 0 013150.73 3316.47z" class="colorffd666 svgShape"/><path fill="#c48644" d="M2785.46 2847.68l-94.17 16.5c-23.07 4-42-10.12-42-31.78v-83.6c0-22.15 19.3-42.48 42.76-45.29l95.69-11.43c21.58-2.58 38.52 12.34 38.13 33.19l-1.45 78.79C2824 2824.48 2806.71 2844 2785.46 2847.68zM2970.39 2815.28l-81.89 14.35c-20 3.5-36.11-10-35.67-30.18l1.66-78c.45-20.65 17.49-39.45 37.79-41.87l83-9.92c18.78-2.24 33.21 11.85 32.49 31.37l-2.75 73.78C3004.33 2794 2988.92 2812 2970.39 2815.28z" class="colorc48644 svgShape"/><path fill="#ffd666" d="M2793.69 2719.61L2685 2733.7c3.41 24.47 24.89 40.72 51.18 38.61l-.37 40.56c-15.9 3.44-28.72 12-30.88 20.58l68.17-11.27c-1.91-7.73-14.15-12.12-29.78-10.51l.4-40.46C2769.43 2765.79 2790.08 2744.11 2793.69 2719.61zM2970.64 2731.05c.72-21.62-15.63-37-36.85-34.33-21.56 2.75-39.76 23.12-40.33 45.36 0 .05 0 .1 0 .15l35.25-5-1.48 50.84a2.63 2.63 0 01-.38 1.33 6.39 6.39 0 01-2.37 2.09A13.88 13.88 0 012920 2793a9.86 9.86 0 01-5.52-.45 3 3 0 01-1.22-1 2 2 0 01-.31-1.22l.27-9.67a3.18 3.18 0 00-3.82-3.36 5 5 0 00-4 4.6l-.26 9.7a8.91 8.91 0 001.41 5.28 9.67 9.67 0 005.92 3.84 18.62 18.62 0 007.34.15 21.73 21.73 0 009.66-4.11 15.46 15.46 0 003.82-4.27 12 12 0 001.7-5.73l1.52-50.69 34.14-4.88C2970.63 2731.16 2970.64 2731.1 2970.64 2731.05z" class="colorffd666 svgShape"/><polygon fill="#efb05e" points="1398.95 3206.04 1398.95 3276.45 1517.24 3264.2 1517.24 3193.22 1398.95 3206.04" class="colorefb05e svgShape"/><path fill="#1f1f1f" d="M3132.21,1464.14s-7.49,20.2,12.32,40,37.48,81.22,94.44,75.1,74.91-199.59,65.93-199.59-29.06,159.42-82.76,164.22-86.36-89-86.36-89S3132.84,1460.47,3132.21,1464.14Z" class="color1f1f1f svgShape"/><polygon fill="#1f1f1f" points="2069.33 2826.99 2081.58 2853.72 2417.97 2956.05 2441.45 2951.03 2069.33 2826.99" class="color1f1f1f svgShape"/><polygon points="2417.97 2956.05 2558.95 3111.4 2747.61 2977.83 3184.92 2885.67 3193.34 2877.25 2535.83 2978.33 2441.45 2951.03 2417.97 2956.05" style="mix-blend-mode:multiply" fill="#1f1f1f" opacity=".5" class="color1f1f1f svgShape"/><polygon fill="#1f1f1f" points="1938.94 3505.77 2185.01 3505.77 2552.27 3481.06 2691.59 3516.68 2544.84 3459.13 1938.94 3505.77" class="color1f1f1f svgShape"/><polygon fill="#1f1f1f" points="2552.27 3463.32 2576.92 3059.16 2552.27 2982.49 2535.83 2982.49 2524.19 3452.83 2523.94 3460.42 2552.27 3463.32" class="color1f1f1f svgShape"/><path fill="#f1f5ff" d="M2066.87 410.8c5 24 4.19 19.92 9.22 43.89a5.2 5.2 0 1010.17-2.14c-5-24-4.18-19.92-9.21-43.89a5.2 5.2 0 00-10.18 2.14zM2035.18 524.6l9.21 43.9a5.2 5.2 0 0010.18-2.14c-5-24-4.18-19.93-9.21-43.89a5.2 5.2 0 00-10.18 2.13zM2104.48 501.16a5.2 5.2 0 00-7.36 7.36l35.69 35.68a5.2 5.2 0 007.35-7.35zM2185.08 421.27a5.2 5.2 0 00-5.2 5.2v19.58a5.2 5.2 0 0010.4 0V426.47A5.2 5.2 0 002185.08 421.27zM2290.8 439.14a5.19 5.19 0 005.2-5.2V419.82a5.2 5.2 0 10-10.4 0v14.12A5.2 5.2 0 002290.8 439.14zM2412.05 476.72h-19.64a5.2 5.2 0 100 10.4h19.64a5.2 5.2 0 000-10.4zM2351.1 582.59a5.2 5.2 0 107.35 7.35l24-24a5.2 5.2 0 00-7.35-7.36zM2392.85 646.32l-23.09 23.08a5.2 5.2 0 007.36 7.36l23.08-23.09a5.2 5.2 0 00-7.35-7.35zM2318.55 657.77a5.2 5.2 0 000-7.35l-31.71-31.71a5.2 5.2 0 00-7.35 7.36l31.7 31.7A5.21 5.21 0 002318.55 657.77zM2381.74 765.05a5.2 5.2 0 00-5.2 5.2v34.5a5.2 5.2 0 0010.4 0v-34.5A5.2 5.2 0 002381.74 765.05zM2317.93 852.34h0v-20a5.2 5.2 0 00-10.4 0v25.26a5.19 5.19 0 0010.09 1.7 5.15 5.15 0 01.3-7z" class="colorf1f5ff svgShape"/><path fill="#f1f5ff" d="M2321.61 861.21a5.2 5.2 0 10-3.67-8.88h0a5.15 5.15 0 00-.3 7c.1.12.19.26.3.37A5.23 5.23 0 002321.61 861.21zM2120.52 828.14h-42.39a5.2 5.2 0 000 10.4h42.39a5.2 5.2 0 000-10.4zM2099.83 883.34h-25.64a5.2 5.2 0 000 10.4h25.64a5.2 5.2 0 100-10.4zM2026.87 757a5.2 5.2 0 005.2-5.2V722a5.2 5.2 0 00-10.4 0v29.84A5.2 5.2 0 002026.87 757zM2124.46 709.85a5.2 5.2 0 00-5.2 5.2v27.62a5.2 5.2 0 1010.4 0V715.05A5.2 5.2 0 002124.46 709.85zM2078.84 625.35V651a5.2 5.2 0 0010.4 0V625.35a5.2 5.2 0 10-10.4 0zM2072.93 764.34a5.2 5.2 0 005.2 5.2H2099a5.2 5.2 0 000-10.4h-20.89A5.2 5.2 0 002072.93 764.34zM2038.65 814.66a5.2 5.2 0 00-7.35 0l-20.92 20.92a5.2 5.2 0 007.35 7.35L2038.65 822A5.18 5.18 0 002038.65 814.66zM2251.62 931.64a5.2 5.2 0 00-5.2 5.2v17a5.2 5.2 0 0010.4 0v-17A5.2 5.2 0 002251.62 931.64zM2330.21 924.3a5.2 5.2 0 10-7.35 7.35l30.26 30.26a5.2 5.2 0 107.36-7.35zM2392.58 854.76a5.2 5.2 0 00-5.2 5.2v28.6a5.2 5.2 0 0010.4 0V860A5.2 5.2 0 002392.58 854.76zM2169.06 943.47h-18a5.2 5.2 0 000 10.4h18a5.2 5.2 0 100-10.4zM2082.34 929.67h-45.61a5.2 5.2 0 000 10.4h45.61a5.2 5.2 0 000-10.4zM2316.68 542.82a5.2 5.2 0 005.2-5.2V506.07a5.2 5.2 0 00-10.4 0v31.55A5.2 5.2 0 002316.68 542.82zM2357.16 434.51l18.4-18.41a5.2 5.2 0 10-7.36-7.35l-18.4 18.4a5.2 5.2 0 007.36 7.36z" class="colorf1f5ff svgShape"/><polygon fill="#6cc281" points="1319.78 545.48 1622.3 370.82 1572.93 370.82 1319.78 506.07 1319.78 545.48" class="color6cc281 svgShape"/><path fill="#34a052" d="M2860.33,1072.21s44.5-145.43,189.09-131.87,153.23,154.05,153.23,188.56c-33.28,0-203.68-13.8-292.57,13.43C2860.33,1113.61,2860.33,1072.21,2860.33,1072.21Z" class="color34a052 svgShape"/><path fill="#27783e" d="M2849,1185.59s-163.23-56.14-92.37-127,271.07,12.4,292,64.16C2959.86,1122.74,2871.13,1142.46,2849,1185.59Z" class="color27783e svgShape"/><path fill="#383435" d="M3649.73,1668.48c-323,241-387.63,305.62-387.63,305.62s28.89,33.13,63.52,59.72c54.78-5.47,108.56-31.74,160-49.25C3584.56,1930.66,3699.93,1848.5,3649.73,1668.48Z" class="color383435 svgShape"/><circle cx="2742.83" cy="1871.45" r="105.48" fill="#ffd666" class="colorffd666 svgShape"/><circle cx="2783.74" cy="1871.45" r="105.48" fill="#faaf1a" class="colorfaaf1a svgShape"/><path fill="#135f26" d="M2969.51,2003.32,2895.07,1931l-105.19-78.31-104,256,16.37,5.84,125.46-53.76,81.26,24.15,175.47,95s26.75-47.85,26.75-66.55C3083.18,2085.36,2969.51,2003.32,2969.51,2003.32Z" class="color135f26 svgShape"/><circle cx="2788.71" cy="1868.48" r="25.42" fill="#383435" class="color383435 svgShape"/><path fill="#161213" d="M2678.82,1959.08l-41.47,130.68,48.5,18.91,57-140.21S2687,1967.27,2678.82,1959.08Z" class="color161213 svgShape"/><path fill="#f0876e" d="M2889.89,2087.25c-12.29,4.42-19.92,9.74-13.55,21.42,14,25.71,110.91,88.15,151.58,64.67,17.53-10.12,29.3-27.09,39.23-44.4C2999.37,2131.32,2926.83,2142.22,2889.89,2087.25Z" class="colorf0876e svgShape"/><path fill="#fca692" d="M3105.84,2073.61c27.54-15.9-60.78-77.15-60.78-77.15s-76.19-18.44-98.37-15.31c-9.4,1.32,22.82,15.91,22.82,22.17,0,21-9,40.29-31.2,62.49-12.12,12.13-33.64,16.13-48.42,21.44,36.94,55,109.48,44.07,177.26,41.69C3080.27,2106.09,3090.17,2082.65,3105.84,2073.61Z" class="colorfca692 svgShape"/><path fill="#f12f18" d="M3412,1571.14s0,112.68-62.6,175.27-317.16,210-317.16,210-11.13,98.77,76.51,125.2c175.27-45.91,380.1-128.22,465.16-213.27s75.49-217,75.49-217Z" class="colorf12f18 svgShape"/><polygon fill="none" points="3637.29 1635.86 3637.29 1635.86 3637.29 1635.86 3637.29 1635.86"/><path fill="#1a1a1a" d="M3651.24 1640c-3.19-8.48-6.68-11.68-7.45-12.29a5.19 5.19 0 00-6.64 8h0l0 0c.24.24 2.66 2.72 5.07 10s4.77 19.39 4.77 38.6a342.85 342.85 0 01-3.17 43.86 5.2 5.2 0 1010.31 1.34 353 353 0 003.26-45.2C3657.4 1662.28 3654.43 1648.52 3651.24 1640zm-13.95-4.17zM3642.81 1597.54a3.47 3.47 0 006.91-.63 93.25 93.25 0 00-16.1-44.34 3.47 3.47 0 10-5.7 4h0A86.25 86.25 0 013642.81 1597.54zM3579.86 2077.05a289.08 289.08 0 01-202.28-10.75 3.47 3.47 0 00-2.8 6.34h0a296.07 296.07 0 00207.18 11 3.47 3.47 0 00-2.1-6.61z" class="color1a1a1a svgShape"/><polygon fill="#161213" points="3605.83 2169.03 3600.4 2299.08 3568.51 2267.18 3605.83 2169.03" class="color161213 svgShape"/><path fill="#161213" d="M3994 2367.29s-86.29 200.57-102.56 263.61l-85.76 61.56s71.55.9 94.16-12.15l-35 61 44.36-16.27 49.29 117c-23.27-181.77-38.94-242.56-12.33-293.62S3994 2367.29 3994 2367.29zM3544.27 2625.47l-61.45 10.8 37 37s-131.84-8.63-105 18.24 79.85 120.26 79.85 132.09l34.1 11.81s27.8-183.49 30.86-198.69S3544.27 2625.47 3544.27 2625.47z" class="color161213 svgShape"/><path fill="#1a1a1a" d="M3702 3307.21a86.81 86.81 0 00-33.87-6.65 103 103 0 00-25.58 3.29 77.25 77.25 0 00-10.43 3.38 5.2 5.2 0 004.11 9.55h0a66.74 66.74 0 019.18-2.93 92.8 92.8 0 0122.71-2.89 76.39 76.39 0 0129.83 5.83 5.2 5.2 0 104-9.58zM3777.2 3272c-23.11-13.35-43.94-16.78-59-16.77s-24.43 3.4-24.86 3.55a5.2 5.2 0 003.59 9.76h0c.1 0 8.16-2.92 21.27-2.92 13.51 0 32.37 3 53.8 15.38a5.2 5.2 0 005.2-9z" class="color1a1a1a svgShape"/><path fill="#1f1f1f" d="M2961.45,1995s3.71,40.54-9.71,55.66-50.7,32.94-50.7,32.94,59.33-14.66,70.67-35.36,16.86-49.48,10.35-53.24S2961.45,1995,2961.45,1995Z" class="color1f1f1f svgShape"/><path fill="#1a1a1a" d="M2800 2993.41a3.48 3.48 0 00-2.42-3.3l-91-29a3.47 3.47 0 00-2.11 6.61h0L2793 2996v184a3.47 3.47 0 006.93 0zM1915.93 2947.77l-281.39-101.83a3.46 3.46 0 10-2.36 6.51l281.39 101.84a3.47 3.47 0 002.36-6.52zM1368.31 3005.65l-215.54-83a3.47 3.47 0 10-2.49 6.47l215.54 83a3.47 3.47 0 002.49-6.47z" class="color1a1a1a svgShape"/><polygon fill="#c48644" points="2609.4 2463.28 2974.53 2438.14 2974.53 2525.38 2609.4 2557.91 2609.4 2463.28" class="colorc48644 svgShape"/><polygon fill="#c48644" points="2936.36 3059.16 3174.31 3028.11 3174.31 3084.3 2936.36 3126 2936.36 3059.16" class="colorc48644 svgShape"/><path fill="#c48644" d="M3209.77,3018.74s-1.51,54,5.91,58.31,48.8-9.51,48.8-9.51,8.87-55.7,0-55.7S3209.77,3018.74,3209.77,3018.74Z" class="colorc48644 svgShape"/><path fill="#161213" d="M3826.85,2121.78s29.57,36.41,102.51,28.52C3896.34,2183.32,3826.85,2151.41,3826.85,2121.78Z" class="color161213 svgShape"/><path fill="#1a1a1a" d="M2930.42 2134.24a6.71 6.71 0 01-2.06.72 15.22 15.22 0 01-3.05.27 38.61 38.61 0 01-8.08-1 92.21 92.21 0 01-11.93-3.63c-1.63-.61-3-1.15-3.93-1.55-.47-.19-.83-.35-1.08-.46l-.28-.12-.06 0h0a3.47 3.47 0 00-2.85 6.32h0c.07 0 4.11 1.86 9.6 3.7a91.87 91.87 0 009.06 2.55 46 46 0 009.57 1.2 22.5 22.5 0 004.44-.41 14 14 0 004.14-1.52 3.47 3.47 0 10-3.47-6zM2977 2149.82a3.47 3.47 0 00-4.9 0 32.76 32.76 0 01-10.19 7.18 21.27 21.27 0 01-17.08 0 19.16 19.16 0 01-2.36-1.2l-.57-.36-.12-.09h0a3.46 3.46 0 10-4.16 5.54h0a23.27 23.27 0 004.47 2.47 28.14 28.14 0 0022.54 0 39.64 39.64 0 0012.37-8.66A3.47 3.47 0 002977 2149.82zM3018.56 2159a3.45 3.45 0 00-4.33 2.29 7.37 7.37 0 01-1.36 2.5 14.09 14.09 0 01-5.11 3.6 43.35 43.35 0 01-12 3.06 89.87 89.87 0 01-11.44.69c-1.45 0-2.64 0-3.46-.06l-.93 0h-.3a3.47 3.47 0 00-.47 6.92h0c.06 0 2.06.14 5.16.14a84.22 84.22 0 0019.77-2.14 33.41 33.41 0 0010.08-4.18 18 18 0 004-3.56 14.12 14.12 0 002.65-4.87A3.47 3.47 0 003018.56 2159z" class="color1a1a1a svgShape"/><polygon fill="#f1af69" points="1736.96 2886.69 1712.77 3417.16 1774.05 3444.04 1816.91 2912.78 1820.2 2912.67 1738.91 2886.54 1736.96 2886.69" class="colorf1af69 svgShape"/><polygon fill="#f1af69" points="1226.73 3301.68 1262.87 3321.58 1284.47 2962.05 1287.77 2961.98 1235.07 2944.76 1226.73 3301.68" class="colorf1af69 svgShape"/><polygon fill="#f8d7b4" points="2100.66 2859.52 1738.91 2886.54 1820.2 2912.67 2225.29 2900.11 2100.66 2859.52" class="colorf8d7b4 svgShape"/><polygon fill="#f8d7b4" points="1613.7 2925.85 1237.66 2951.22 1290.48 2962.56 1614.61 2944.76 1613.7 2925.85" class="colorf8d7b4 svgShape"/><circle cx="3834.09" cy="545.48" r="167.08" fill="#d3e5b3" class="colord3e5b3 svgShape"/><path fill="#1a1a1a" d="M2956.21 1271.35a45 45 0 00-11.41-1.54 36.82 36.82 0 00-18.75 5 42.88 42.88 0 00-9.76 7.88 56.19 56.19 0 00-8.59 12.22 48.8 48.8 0 00-2.73 6 5.2 5.2 0 009.83 3.42h0a36 36 0 011.8-4.05 44.77 44.77 0 019.73-12.93 30 30 0 018-5.15 26.66 26.66 0 0110.43-2.07 34.56 34.56 0 018.77 1.2 5.2 5.2 0 002.64-10.06zM3044.79 1212.41a42.91 42.91 0 00-20.62 5.29 48.77 48.77 0 00-10.92 8.24 61.89 61.89 0 00-9.8 12.82 49.07 49.07 0 00-3.16 6.36 5.2 5.2 0 009.69 3.77h0a51.1 51.1 0 018.57-13.41 40 40 0 0110.82-8.76 32.49 32.49 0 0115.48-3.9 5.2 5.2 0 10-.06-10.4zM3253.17 1640.05a32.59 32.59 0 01-11.26 2 33.1 33.1 0 01-16.72-4.46 3.47 3.47 0 10-3.51 6h0a40.15 40.15 0 0020.23 5.42 39.48 39.48 0 0013.66-2.41 3.46 3.46 0 00-2.4-6.5zM3305 1357.73a33.28 33.28 0 00-8.91-8.65 46.72 46.72 0 00-13.82-6.1 45.62 45.62 0 00-6.74-1.3 3.47 3.47 0 00-.62 6.91h0a36.91 36.91 0 014.89.91 43.66 43.66 0 017.39 2.56 29.86 29.86 0 0111.24 8.44 23.5 23.5 0 013.77 6.91 28.58 28.58 0 011.47 9.4v.61a3.47 3.47 0 006.93.1c0-.23 0-.47 0-.71A32.77 32.77 0 003305 1357.73zM3189.75 1209.34h0c-.26.15-3 1.68-6.16 3.13a45.25 45.25 0 01-4.87 1.94 20.53 20.53 0 01-2.15.57l-.12 0c0-.12 0-.23 0-.36a28 28 0 01.56-4.8c.51-2.77 1.31-5.78 2-8.07.33-1.15.63-2.12.85-2.8.11-.33.19-.6.25-.78l.07-.2 0-.06a3.47 3.47 0 10-6.57-2.23h0s-1 3-2 6.78c-.5 1.89-1 4-1.4 6.09a33.74 33.74 0 00-.67 6.07 14 14 0 00.15 2.15 8.28 8.28 0 00.41 1.63 6.19 6.19 0 00.62 1.27 5.13 5.13 0 001.79 1.73 5.08 5.08 0 002.56.67 15.26 15.26 0 003-.34 33.24 33.24 0 005.21-1.62 74.93 74.93 0 006.88-3.14c1.84-.94 3.06-1.65 3.1-1.67a3.47 3.47 0 10-3.47-6z" class="color1a1a1a svgShape"/><path fill="#161213" d="M3774.6,3216.63s45.1,33.61,132.34,21.61,99.93-37.77,99.93-37.77l-16.27-20.55S3860.36,3248.42,3774.6,3216.63Z" class="color161213 svgShape"/><path fill="#135f26" d="M2371.17 1420.78h103.72a3.47 3.47 0 100-6.93H2371.17a3.47 3.47 0 100 6.93zM2512.23 1468.91H2408.5a3.47 3.47 0 000 6.93h103.73a3.47 3.47 0 000-6.93zM2505.33 1524H2401.6a3.47 3.47 0 000 6.93h103.73a3.47 3.47 0 000-6.93zM2492.15 1579H2388.43a3.47 3.47 0 100 6.93h103.72a3.47 3.47 0 000-6.93zM2423 1607.94H2319.31a3.47 3.47 0 100 6.93H2423a3.47 3.47 0 100-6.93z" class="color135f26 svgShape"/><path fill="#1f1f1f" d="M3025.65,1984.2s-80.52,2-86-3.41l-3.24-9.6h87Z" class="color1f1f1f svgShape"/></g></svg>