<svg id="visual" viewBox="0 0 900 600" width="900" height="600" xmlns="http://www.w3.org/2000/svg" xmlns:xlink="http://www.w3.org/1999/xlink" version="1.1"><g transform="translate(418.3664729662809 298.38447187081834)"><path d="M163.5 -252.3C211 -255.8 247.9 -210.1 279.1 -159.9C310.3 -109.7 335.6 -54.8 313.1 -13C290.6 28.8 220.2 57.7 188.7 107.3C157.2 157 164.6 227.4 139.6 228.7C114.7 229.9 57.3 161.8 -2.6 166.3C-62.5 170.8 -125 247.8 -169 257.5C-213 267.3 -238.6 209.9 -232.7 155.8C-226.8 101.7 -189.4 50.8 -196.3 -4C-203.2 -58.8 -254.5 -117.7 -258.2 -168C-262 -218.4 -218.2 -260.3 -167.3 -254.9C-116.3 -249.5 -58.2 -196.7 -0.1 -196.6C58 -196.5 116 -248.9 163.5 -252.3" fill="#93c5fd"></path></g></svg>