<svg id="visual" viewBox="0 0 910 600" width="910" height="600" xmlns="http://www.w3.org/2000/svg" xmlns:xlink="http://www.w3.org/1999/xlink" version="1.1"><rect x="0" y="0" width="910" height="600" fill="#f3f4f6"></rect><defs><linearGradient id="grad1_0" x1="34.1%" y1="0%" x2="100%" y2="100%"><stop offset="19.666666666666668%" stop-color="#f3f4f6" stop-opacity="1"></stop><stop offset="80.33333333333333%" stop-color="#f3f4f6" stop-opacity="1"></stop></linearGradient></defs><defs><linearGradient id="grad2_0" x1="0%" y1="0%" x2="65.9%" y2="100%"><stop offset="19.666666666666668%" stop-color="#f3f4f6" stop-opacity="1"></stop><stop offset="80.33333333333333%" stop-color="#f3f4f6" stop-opacity="1"></stop></linearGradient></defs><g transform="translate(910, 0)"><path d="M0 136.3C-17.2 130.6 -34.4 124.9 -48.2 116.4C-62.1 107.9 -72.5 96.7 -86.3 86.3C-100 75.9 -117 66.4 -125.9 52.1C-134.8 37.9 -135.5 19 -136.2 0L0 0Z" fill="#d1d5db"></path></g><g transform="translate(0, 600)"><path d="M0 -136.2C18.1 -134.6 36.2 -133 52.1 -125.9C68.1 -118.8 82 -106.3 92.6 -92.6C103.3 -79 110.6 -64.2 117.3 -48.6C124.1 -33 130.2 -16.5 136.3 0L0 0Z" fill="#d1d5db"></path></g></svg>