<svg id="visual" viewBox="0 0 960 540" width="960" height="540" xmlns="http://www.w3.org/2000/svg" xmlns:xlink="http://www.w3.org/1999/xlink" version="1.1"><path d="M0 147L14.5 142.5C29 138 58 129 87.2 118.2C116.3 107.3 145.7 94.7 174.8 95.5C204 96.3 233 110.7 262 106.2C291 101.7 320 78.3 349 64.8C378 51.3 407 47.7 436.2 56.7C465.3 65.7 494.7 87.3 523.8 105.3C553 123.3 582 137.7 611 137.7C640 137.7 669 123.3 698 122.5C727 121.7 756 134.3 785.2 133.5C814.3 132.7 843.7 118.3 872.8 107.5C902 96.7 931 89.3 945.5 85.7L960 82L960 0L945.5 0C931 0 902 0 872.8 0C843.7 0 814.3 0 785.2 0C756 0 727 0 698 0C669 0 640 0 611 0C582 0 553 0 523.8 0C494.7 0 465.3 0 436.2 0C407 0 378 0 349 0C320 0 291 0 262 0C233 0 204 0 174.8 0C145.7 0 116.3 0 87.2 0C58 0 29 0 14.5 0L0 0Z" fill="#b5d8fe"></path><path d="M0 190L14.5 188.2C29 186.3 58 182.7 87.2 177.3C116.3 172 145.7 165 174.8 162.3C204 159.7 233 161.3 262 149.5C291 137.7 320 112.3 349 107C378 101.7 407 116.3 436.2 126.3C465.3 136.3 494.7 141.7 523.8 156.8C553 172 582 197 611 198.8C640 200.7 669 179.3 698 175.8C727 172.3 756 186.7 785.2 189.3C814.3 192 843.7 183 872.8 174C902 165 931 156 945.5 151.5L960 147L960 80L945.5 83.7C931 87.3 902 94.7 872.8 105.5C843.7 116.3 814.3 130.7 785.2 131.5C756 132.3 727 119.7 698 120.5C669 121.3 640 135.7 611 135.7C582 135.7 553 121.3 523.8 103.3C494.7 85.3 465.3 63.7 436.2 54.7C407 45.7 378 49.3 349 62.8C320 76.3 291 99.7 262 104.2C233 108.7 204 94.3 174.8 93.5C145.7 92.7 116.3 105.3 87.2 116.2C58 127 29 136 14.5 140.5L0 145Z" fill="#a4cffe"></path><path d="M0 384L14.5 381.3C29 378.7 58 373.3 87.2 368.8C116.3 364.3 145.7 360.7 174.8 351.7C204 342.7 233 328.3 262 307.7C291 287 320 260 349 258.2C378 256.3 407 279.7 436.2 304C465.3 328.3 494.7 353.7 523.8 353.7C553 353.7 582 328.3 611 323.8C640 319.3 669 335.7 698 349.2C727 362.7 756 373.3 785.2 359.8C814.3 346.3 843.7 308.7 872.8 286.2C902 263.7 931 256.3 945.5 252.7L960 249L960 145L945.5 149.5C931 154 902 163 872.8 172C843.7 181 814.3 190 785.2 187.3C756 184.7 727 170.3 698 173.8C669 177.3 640 198.7 611 196.8C582 195 553 170 523.8 154.8C494.7 139.7 465.3 134.3 436.2 124.3C407 114.3 378 99.7 349 105C320 110.3 291 135.7 262 147.5C233 159.3 204 157.7 174.8 160.3C145.7 163 116.3 170 87.2 175.3C58 180.7 29 184.3 14.5 186.2L0 188Z" fill="#93c5fd"></path><path d="M0 433L14.5 435.7C29 438.3 58 443.7 87.2 441C116.3 438.3 145.7 427.7 174.8 419.7C204 411.7 233 406.3 262 394.7C291 383 320 365 349 365.8C378 366.7 407 386.3 436.2 400.7C465.3 415 494.7 424 523.8 414.2C553 404.3 582 375.7 611 373.8C640 372 669 397 698 415.8C727 434.7 756 447.3 785.2 437.5C814.3 427.7 843.7 395.3 872.8 372.8C902 350.3 931 337.7 945.5 331.3L960 325L960 247L945.5 250.7C931 254.3 902 261.7 872.8 284.2C843.7 306.7 814.3 344.3 785.2 357.8C756 371.3 727 360.7 698 347.2C669 333.7 640 317.3 611 321.8C582 326.3 553 351.7 523.8 351.7C494.7 351.7 465.3 326.3 436.2 302C407 277.7 378 254.3 349 256.2C320 258 291 285 262 305.7C233 326.3 204 340.7 174.8 349.7C145.7 358.7 116.3 362.3 87.2 366.8C58 371.3 29 376.7 14.5 379.3L0 382Z" fill="#7eb4f4"></path><path d="M0 541L14.5 541C29 541 58 541 87.2 541C116.3 541 145.7 541 174.8 541C204 541 233 541 262 541C291 541 320 541 349 541C378 541 407 541 436.2 541C465.3 541 494.7 541 523.8 541C553 541 582 541 611 541C640 541 669 541 698 541C727 541 756 541 785.2 541C814.3 541 843.7 541 872.8 541C902 541 931 541 945.5 541L960 541L960 323L945.5 329.3C931 335.7 902 348.3 872.8 370.8C843.7 393.3 814.3 425.7 785.2 435.5C756 445.3 727 432.7 698 413.8C669 395 640 370 611 371.8C582 373.7 553 402.3 523.8 412.2C494.7 422 465.3 413 436.2 398.7C407 384.3 378 364.7 349 363.8C320 363 291 381 262 392.7C233 404.3 204 409.7 174.8 417.7C145.7 425.7 116.3 436.3 87.2 439C58 441.7 29 436.3 14.5 433.7L0 431Z" fill="#69a3eb"></path></svg>