<svg id="visual" viewBox="0 0 100 50" width="100" height="50" xmlns="http://www.w3.org/2000/svg" xmlns:xlink="http://www.w3.org/1999/xlink" version="1.1"><g transform="translate(53.42487080314321 26.328034856574508)"><path d="M7.5 -11.1C9.7 -11.7 11.3 -9.6 10.5 -7.3C9.7 -5 6.3 -2.5 8.2 1.1C10.1 4.7 17.2 9.3 17.1 10.1C17 10.8 9.7 7.6 5.7 6.4C1.7 5.2 0.8 6.1 -1.5 8.7C-3.8 11.3 -7.7 15.6 -12 16.9C-16.3 18.3 -21.2 16.6 -22.6 13.3C-24 10 -22 5 -22.2 -0.1C-22.4 -5.2 -24.7 -10.4 -23.7 -14.5C-22.7 -18.5 -18.4 -21.4 -13.8 -19.4C-9.3 -17.5 -4.7 -10.7 -1 -9C2.7 -7.2 5.3 -10.5 7.5 -11.1" fill="#2563eb"></path></g></svg>