<svg xmlns="http://www.w3.org/2000/svg" enable-background="new 0 0 306.76 293.71" viewBox="40.88 35.95 225 221.81"><polygon fill="#d19f9f" points="202.206 216.098 216.397 207.851 216.359 219.536 202.168 227.782" class="colord19f9f svgShape"/><polygon fill="#e7b8b5" points="188.732 208.319 202.923 200.072 216.397 207.851 202.206 216.098" class="colore7b8b5 svgShape"/><polygon fill="#eaeffa" points="193.654 211.161 207.845 202.913 211.476 205.01 197.284 213.256" class="coloreaeffa svgShape"/><polygon fill="#eaeffa" points="210.385 208.723 213.105 207.143 214.443 207.915 211.723 209.496" class="coloreaeffa svgShape"/><polygon fill="#ddacab" points="202.206 216.098 202.168 227.782 188.695 220.004 188.732 208.319" class="colorddacab svgShape"/><polygon fill="#d0d5dd" points="193.654 211.161 193.616 215.116 197.247 217.212 197.284 213.256" class="colord0d5dd svgShape"/><g fill="#000000" class="color000 svgShape"><polygon fill="#d19f9f" points="185.547 225.994 199.738 217.747 199.701 229.432 185.51 237.679" class="colord19f9f svgShape"/><polygon fill="#e7b8b5" points="172.074 218.216 186.265 209.969 199.738 217.747 185.547 225.994" class="colore7b8b5 svgShape"/><polygon fill="#eaeffa" points="176.995 221.057 191.186 212.81 194.817 214.906 180.626 223.153" class="coloreaeffa svgShape"/><polygon fill="#eaeffa" points="193.726 218.62 196.446 217.039 197.784 217.811 195.064 219.392" class="coloreaeffa svgShape"/><polygon fill="#ddacab" points="185.547 225.994 185.51 237.679 172.036 229.9 172.074 218.216" class="colorddacab svgShape"/><polygon fill="#d0d5dd" points="176.995 221.057 176.958 225.012 180.589 227.108 180.626 223.153" class="colord0d5dd svgShape"/></g><g fill="#000000" class="color000 svgShape"><polygon fill="#d19f9f" points="192.497 208.264 205.232 200.862 205.199 211.349 192.463 218.75" class="colord19f9f svgShape"/><polygon fill="#e7b8b5" points="180.405 201.283 193.141 193.881 205.232 200.862 192.497 208.264" class="colore7b8b5 svgShape"/><polygon fill="#eaeffa" points="184.821 203.833 197.557 196.431 200.816 198.312 188.08 205.714" class="coloreaeffa svgShape"/><polygon fill="#eaeffa" points="199.837 201.645 202.278 200.227 203.479 200.92 201.038 202.338" class="coloreaeffa svgShape"/><polygon fill="#ddacab" points="192.497 208.264 192.463 218.75 180.371 211.769 180.405 201.283" class="colorddacab svgShape"/><polygon fill="#d0d5dd" points="184.821 203.833 184.788 207.382 188.046 209.263 188.08 205.714" class="colord0d5dd svgShape"/></g><g fill="#000000" class="color000 svgShape"><polygon fill="#a5acb7" points="170.556 114.387 170.553 115.374 154.409 124.757 154.412 123.769" class="colora5acb7 svgShape"/><polygon fill="#bcc2cc" points="154.412 123.769 154.409 124.757 151.962 123.344 151.964 122.356" class="colorbcc2cc svgShape"/><polygon fill="#d9dfe8" points="170.556 114.387 154.412 123.769 151.964 122.356 168.109 112.974" class="colord9dfe8 svgShape"/><path fill="#e2b3c7" d="M172.572,92.824c-0.519,0.3-4.01,2.137-4.023-2.639c0.023,8.129,3.517,6.412,4.034,6.114         c0.041-0.024,0.062-0.038,0.062-0.038c0.002-0.001,0.023-0.011,0.065-0.035c0.518-0.299,4.02-2.621,3.997-10.751         c0.014,4.776-3.485,6.974-4.006,7.275c-0.042,0.024-0.063,0.036-0.063,0.036S172.613,92.8,172.572,92.824z" class="colore2b3c7 svgShape"/><path fill="#3f528c" d="M163.453,97.723c0.103,0.421,0.465,0.692,1.063,0.347l16.406-9.472        c0.587-0.339,0.946-1.027,1.047-1.565c0.1-0.526-0.037-1.07-0.568-1.061l-8.522,0.011l-0.004-1.415l-0.181,0.104        c-0.609,0.352-1.096,0.062-1.064-0.658c0.009-0.641,0.471-1.428,1.012-1.766c0.566-0.327,1.018-0.137,1.097,0.418l0.17,0.084        c0.124-0.072,0.214-0.254,0.202-0.377c-0.111-0.723-0.711-0.982-1.418-0.574c-0.029,0.017-0.058,0.035-0.087,0.054        c-0.711,0.449-1.296,1.436-1.35,2.285c-0.065,0.934,0.501,1.373,1.246,1.059l0.003,1l-8.482,9.805        C163.495,96.608,163.362,97.309,163.453,97.723z M164.184,96.288l5.852-6.751l5.334-3.081l5.863-0.012        c0.373,0.006,0.43,0.375,0.375,0.706c-0.056,0.318-0.269,0.779-0.687,1.02l-16.406,9.472c-0.417,0.241-0.633,0.028-0.69-0.226        C163.757,97.158,163.823,96.717,164.184,96.288z" class="color3f528c svgShape"/><path fill="#f7d7e1" d="M168.549,90.185l-1.059,1.208c0.046,0.128,0.923,2.558-2.371,8.72         c-0.506,0.942-0.752,1.954-0.636,2.757c0.242,1.705,1.084,3.738,1.235,5.144c0.336,3.052-0.234,9.381-1.667,14.156         c-0.381,1.285,0.086,2.224,1.034,2.04c2.547-0.509,5.093-1.499,7.639-2.969c2.546-1.47,5.092-3.42,7.639-5.852         c0.936-0.904,1.395-2.376,1.008-3.218c-1.455-3.107-2.048-8.766-1.741-12.189c0.143-1.575,0.97-4.573,1.202-6.551         c0.11-0.933-0.129-1.678-0.639-2.033c-3.329-2.325-2.459-5.764-2.413-5.945l-1.074,0.023         c0.023,8.13-3.48,10.452-3.997,10.751C172.066,96.597,168.572,98.314,168.549,90.185z" class="colorf7d7e1 svgShape"/><path fill="#8294ed" d="M179.326,96.734c-0.519,0.3-4.009,2.137-4.023-2.639c0.023,8.129,3.517,6.412,4.034,6.114         c0.041-0.024,0.062-0.038,0.063-0.039c0.001,0,0.022-0.011,0.064-0.035c0.518-0.299,4.02-2.621,3.997-10.751         c0.014,4.776-3.485,6.974-4.006,7.275c-0.042,0.024-0.064,0.036-0.064,0.037C179.391,96.696,179.368,96.71,179.326,96.734z" class="color8294ed svgShape"/><path fill="#3f528c" d="M170.208,101.632c0.103,0.421,0.465,0.693,1.063,0.348l16.406-9.472        c0.587-0.338,0.946-1.027,1.047-1.565c0.1-0.525-0.037-1.069-0.568-1.061l-8.522,0.011l-0.004-1.414l-0.181,0.104        c-0.609,0.352-1.096,0.061-1.064-0.658c0.01-0.642,0.471-1.427,1.012-1.766c0.566-0.327,1.018-0.137,1.098,0.419l0.17,0.084        c0.124-0.072,0.214-0.253,0.202-0.377c-0.111-0.722-0.711-0.981-1.418-0.573c-0.029,0.016-0.057,0.034-0.087,0.053        c-0.711,0.449-1.296,1.437-1.35,2.286c-0.065,0.934,0.501,1.373,1.246,1.06l0.003,0.998l-8.482,9.806        C170.25,100.517,170.116,101.218,170.208,101.632z M170.938,100.198l5.852-6.751l5.334-3.08l5.863-0.012        c0.373,0.006,0.431,0.375,0.375,0.706c-0.055,0.318-0.269,0.778-0.686,1.019l-16.406,9.472        c-0.418,0.241-0.633,0.028-0.69-0.225C170.511,101.068,170.578,100.627,170.938,100.198z" class="color3f528c svgShape"/><path fill="#b7ceff" d="M175.303,94.095l-1.059,1.208c0.046,0.128,0.923,2.558-2.371,8.72         c-0.506,0.942-0.752,1.954-0.636,2.757c0.242,1.705,1.084,3.738,1.235,5.144c0.336,3.052-0.233,9.381-1.666,14.157         c-0.381,1.285,0.085,2.224,1.034,2.039c2.547-0.509,5.093-1.499,7.639-2.969c2.546-1.47,5.092-3.42,7.639-5.852         c0.936-0.904,1.395-2.376,1.008-3.218c-1.456-3.107-2.048-8.766-1.741-12.189c0.143-1.575,0.97-4.573,1.202-6.551         c0.11-0.933-0.129-1.678-0.639-2.033c-3.329-2.325-2.459-5.764-2.413-5.945l-1.074,0.023         c0.023,8.13-3.48,10.452-3.997,10.751C178.821,100.507,175.326,102.224,175.303,94.095z" class="colorb7ceff svgShape"/><g fill="#000000" class="color000 svgShape"><path fill="#e576ad" d="M186.081,100.644c-0.519,0.3-4.01,2.137-4.023-2.639c0.023,8.129,3.517,6.412,4.034,6.114         c0.041-0.024,0.062-0.038,0.063-0.039c0.001,0,0.022-0.011,0.064-0.035c0.517-0.299,4.02-2.621,3.997-10.75         c0.014,4.775-3.485,6.974-4.006,7.274c-0.042,0.024-0.063,0.036-0.063,0.036         C186.144,100.606,186.122,100.619,186.081,100.644z" class="colore576ad svgShape"/><path fill="#3f528c" d="M176.962,105.542c0.103,0.421,0.465,0.692,1.063,0.347l16.406-9.471        c0.587-0.339,0.946-1.027,1.047-1.565c0.1-0.525-0.037-1.07-0.568-1.061l-8.521,0.01l-0.004-1.414l-0.181,0.105        c-0.609,0.351-1.096,0.061-1.064-0.659c0.01-0.641,0.471-1.427,1.012-1.766c0.566-0.328,1.018-0.138,1.098,0.418l0.17,0.085        c0.124-0.072,0.214-0.254,0.202-0.377c-0.111-0.722-0.711-0.982-1.418-0.574c-0.029,0.017-0.058,0.034-0.086,0.054        c-0.711,0.449-1.296,1.436-1.35,2.285c-0.065,0.934,0.501,1.373,1.246,1.06l0.003,0.999l-8.482,9.805        C177.004,104.427,176.871,105.128,176.962,105.542z M177.693,104.107l5.852-6.751l5.334-3.081l5.863-0.012        c0.373,0.006,0.43,0.375,0.375,0.706c-0.056,0.318-0.269,0.778-0.686,1.02l-16.406,9.472c-0.418,0.241-0.633,0.028-0.69-0.225        C177.266,104.977,177.332,104.537,177.693,104.107z" class="color3f528c svgShape"/><path fill="#fd93bf" d="M182.058,98.005l-1.059,1.208c0.046,0.128,0.923,2.558-2.371,8.72         c-0.506,0.942-0.752,1.954-0.636,2.757c0.242,1.705,1.084,3.738,1.235,5.144c0.336,3.052-0.233,9.382-1.667,14.157         c-0.381,1.285,0.086,2.224,1.034,2.039c2.547-0.509,5.093-1.499,7.639-2.969c2.546-1.47,5.092-3.42,7.639-5.852         c0.936-0.904,1.395-2.376,1.008-3.218c-1.456-3.107-2.048-8.765-1.741-12.189c0.143-1.575,0.97-4.573,1.202-6.551         c0.111-0.933-0.129-1.679-0.639-2.033c-3.329-2.325-2.459-5.764-2.413-5.945l-1.074,0.023         c0.023,8.129-3.48,10.452-3.997,10.75C185.575,104.417,182.081,106.133,182.058,98.005z" class="colorfd93bf svgShape"/></g><g fill="#000000" class="color000 svgShape"><path fill="#60ad88" d="M192.835,104.553c-0.519,0.3-4.01,2.137-4.023-2.639c0.023,8.129,3.517,6.412,4.034,6.114         c0.041-0.024,0.062-0.038,0.062-0.038c0.002-0.001,0.023-0.011,0.065-0.035c0.517-0.299,4.02-2.621,3.997-10.751         c0.014,4.776-3.485,6.974-4.006,7.275c-0.042,0.024-0.063,0.036-0.065,0.037         C192.899,104.516,192.877,104.529,192.835,104.553z" class="color60ad88 svgShape"/><path fill="#3f528c" d="M183.717,109.452c0.103,0.421,0.465,0.692,1.063,0.347l16.406-9.471        c0.587-0.339,0.947-1.027,1.047-1.565c0.1-0.525-0.037-1.07-0.568-1.061l-8.521,0.01l-0.004-1.413l-0.181,0.104        c-0.609,0.351-1.096,0.061-1.064-0.658c0.009-0.641,0.471-1.427,1.012-1.765c0.566-0.328,1.018-0.138,1.098,0.418l0.17,0.085        c0.124-0.072,0.214-0.254,0.202-0.377c-0.111-0.722-0.711-0.982-1.418-0.574c-0.029,0.017-0.058,0.035-0.087,0.053        c-0.711,0.449-1.296,1.436-1.35,2.285c-0.065,0.934,0.501,1.373,1.246,1.06l0.003,0.999l-8.482,9.805        C183.759,108.337,183.625,109.038,183.717,109.452z M184.447,108.017l5.852-6.751l5.334-3.081l5.863-0.012        c0.373,0.006,0.431,0.375,0.375,0.706c-0.055,0.318-0.269,0.778-0.686,1.02l-16.406,9.472        c-0.417,0.241-0.633,0.028-0.69-0.225C184.02,108.887,184.087,108.447,184.447,108.017z" class="color3f528c svgShape"/><path fill="#8ccfb1" d="M188.812,101.914l-1.059,1.208c0.046,0.128,0.923,2.558-2.371,8.72         c-0.506,0.942-0.752,1.954-0.636,2.757c0.242,1.705,1.084,3.738,1.235,5.144c0.336,3.052-0.233,9.381-1.667,14.157         c-0.381,1.285,0.085,2.224,1.034,2.039c2.547-0.51,5.093-1.499,7.639-2.969c2.546-1.47,5.092-3.42,7.639-5.852         c0.936-0.904,1.395-2.376,1.008-3.218c-1.455-3.107-2.048-8.766-1.741-12.189c0.142-1.575,0.97-4.573,1.202-6.551         c0.111-0.933-0.129-1.678-0.639-2.033c-3.329-2.325-2.459-5.764-2.413-5.945l-1.074,0.023         c0.023,8.13-3.48,10.452-3.997,10.751C192.33,108.326,188.835,110.043,188.812,101.914z" class="color8ccfb1 svgShape"/></g><g fill="#000000" class="color000 svgShape"><polygon fill="#a5acb7" points="211.586 138.076 211.583 139.063 195.439 148.445 195.442 147.458" class="colora5acb7 svgShape"/><polygon fill="#bcc2cc" points="195.442 147.458 195.439 148.445 192.992 147.032 192.994 146.045" class="colorbcc2cc svgShape"/><polygon fill="#eaeffa" points="211.586 138.076 195.442 147.458 192.994 146.045 209.139 136.663" class="coloreaeffa svgShape"/><g fill="#000000" class="color000 svgShape"><path fill="#a5acb7" d="M201.17,98.546L165.132,77.74c-0.828-0.478-1.578-0.521-2.12-0.206l-1.692,0.983          c0.53-0.308,1.261-0.267,2.069,0.183l-1.467,0.853c-0.383,0.223-0.62,0.696-0.622,1.366l-0.063,37.948l1.692-0.983          l0.063-37.947c0.001-0.553,0.169-0.962,0.44-1.216c0.003,0.001,0.006,0.002,0.009,0.003l36.038,20.807          c1.64,0.947,2.977,3.263,2.972,5.147l-0.063,37.947l1.692-0.984l0.063-37.947C204.147,101.809,202.81,99.493,201.17,98.546z          " class="colora5acb7 svgShape"/><path fill="#bcc2cc" d="M199.478,99.53c1.64,0.947,2.977,3.263,2.972,5.147l-0.063,37.947l-0.851-0.491l0.063-37.947         c0.004-1.347-0.951-3.002-2.124-3.678l-36.038-20.807c-1.18-0.682-2.134-0.129-2.138,1.218l-0.063,37.947l-0.851-0.491         l0.063-37.947c0.005-1.884,1.343-2.656,2.991-1.704L199.478,99.53z" class="colorbcc2cc svgShape"/></g></g><g fill="#000000" class="color000 svgShape"><path fill="#3f528c" d="M173.74 82.667c-.079-.556-.532-.745-1.097-.418-.542.338-1.003 1.125-1.012 1.766-.032.719.455 1.01 1.064.658l.181-.104.003.938h-.373l-.001-.308c-.745.313-1.311-.126-1.246-1.06.054-.849.639-1.836 1.35-2.285.029-.019.058-.037.087-.053.707-.408 1.307-.149 1.418.573.012.124-.078.306-.202.378L173.74 82.667zM180.495 86.577c-.08-.556-.532-.745-1.098-.418-.541.338-1.003 1.125-1.012 1.766-.032.719.455 1.01 1.064.658l.181-.104.003.938h-.373l-.001-.308c-.745.313-1.311-.126-1.246-1.06.054-.849.639-1.836 1.35-2.285.029-.019.058-.037.087-.053.707-.408 1.307-.149 1.418.574.012.123-.078.305-.202.378L180.495 86.577zM187.249 90.487c-.08-.556-.532-.745-1.098-.418-.541.338-1.003 1.125-1.012 1.766-.032.719.455 1.01 1.064.658l.181-.104.003.938h-.373l-.001-.308c-.745.313-1.311-.126-1.246-1.06.054-.849.639-1.836 1.35-2.285.029-.019.058-.037.086-.053.707-.408 1.307-.149 1.418.573.011.123-.078.306-.202.378L187.249 90.487zM194.004 94.396c-.08-.556-.532-.745-1.098-.418-.541.338-1.003 1.125-1.012 1.766-.032.719.455 1.01 1.064.658l.181-.104.003.938h-.373l-.001-.308c-.745.313-1.312-.126-1.246-1.06.054-.849.639-1.836 1.35-2.285.029-.019.058-.037.087-.053.707-.408 1.307-.149 1.418.573.012.124-.078.306-.202.378L194.004 94.396z" class="color3f528c svgShape"/></g><g fill="#000000" class="color000 svgShape"><polygon fill="#a5acb7" points="144.682 129.424 144.679 130.411 128.535 139.793 128.537 138.806" class="colora5acb7 svgShape"/><polygon fill="#bcc2cc" points="128.537 138.806 128.535 139.793 126.087 138.38 126.09 137.393" class="colorbcc2cc svgShape"/><polygon fill="#d9dfe8" points="144.682 129.424 128.537 138.806 126.09 137.393 142.234 128.011" class="colord9dfe8 svgShape"/><path fill="#e2b3c7" d="M146.697,107.861c-0.519,0.3-4.009,2.137-4.023-2.639c0.023,8.129,3.517,6.412,4.034,6.114         c0.041-0.024,0.062-0.038,0.063-0.039c0,0,0.022-0.011,0.064-0.035c0.518-0.299,4.02-2.621,3.997-10.751         c0.014,4.775-3.485,6.974-4.006,7.274c-0.042,0.024-0.063,0.036-0.063,0.036         C146.761,107.824,146.739,107.837,146.697,107.861z" class="colore2b3c7 svgShape"/><path fill="#3f528c" d="M137.579,112.759c0.103,0.421,0.465,0.692,1.063,0.347l16.406-9.472        c0.587-0.339,0.946-1.027,1.047-1.565c0.1-0.526-0.037-1.07-0.568-1.061l-8.521,0.011l-0.004-1.415l-0.181,0.104        c-0.609,0.352-1.096,0.062-1.064-0.658c0.01-0.641,0.471-1.427,1.012-1.766c0.566-0.327,1.018-0.137,1.098,0.418l0.17,0.084        c0.124-0.072,0.214-0.254,0.202-0.377c-0.111-0.722-0.711-0.982-1.418-0.574c-0.029,0.017-0.057,0.035-0.087,0.054        c-0.711,0.448-1.296,1.436-1.35,2.285c-0.065,0.935,0.501,1.373,1.246,1.06l0.003,1l-8.482,9.805        C137.621,111.645,137.487,112.345,137.579,112.759z M138.309,111.324l5.851-6.751l5.334-3.081l5.863-0.012        c0.373,0.006,0.43,0.375,0.375,0.706c-0.056,0.318-0.269,0.779-0.686,1.02l-16.406,9.472c-0.417,0.241-0.633,0.028-0.69-0.226        C137.882,112.194,137.949,111.754,138.309,111.324z" class="color3f528c svgShape"/><path fill="#f7d7e1" d="M142.674,105.222l-1.059,1.208c0.046,0.128,0.923,2.558-2.371,8.72         c-0.506,0.942-0.752,1.954-0.636,2.757c0.242,1.705,1.084,3.738,1.235,5.144c0.337,3.052-0.233,9.382-1.666,14.157         c-0.381,1.285,0.086,2.224,1.034,2.039c2.547-0.51,5.093-1.499,7.639-2.969c2.546-1.47,5.092-3.42,7.639-5.852         c0.936-0.904,1.395-2.376,1.008-3.218c-1.455-3.107-2.048-8.765-1.741-12.189c0.142-1.575,0.97-4.573,1.202-6.551         c0.11-0.933-0.129-1.679-0.639-2.033c-3.329-2.325-2.458-5.764-2.413-5.945l-1.074,0.023         c0.023,8.129-3.48,10.452-3.997,10.751C146.192,111.634,142.697,113.35,142.674,105.222z" class="colorf7d7e1 svgShape"/><path fill="#8294ed" d="M153.452,111.77c-0.519,0.3-4.01,2.137-4.023-2.639c0.023,8.129,3.517,6.412,4.034,6.114         c0.041-0.024,0.062-0.038,0.062-0.038c0.002-0.001,0.023-0.011,0.065-0.035c0.517-0.299,4.02-2.621,3.997-10.751         c0.014,4.775-3.485,6.974-4.006,7.274c-0.042,0.024-0.063,0.036-0.063,0.036C153.515,111.733,153.494,111.746,153.452,111.77         z" class="color8294ed svgShape"/><path fill="#3f528c" d="M144.333,116.668c0.103,0.421,0.465,0.693,1.063,0.348l16.406-9.472        c0.587-0.338,0.947-1.027,1.047-1.565c0.1-0.525-0.037-1.069-0.568-1.062l-8.522,0.011l-0.004-1.414l-0.181,0.104        c-0.609,0.352-1.096,0.061-1.064-0.658c0.01-0.642,0.471-1.427,1.012-1.766c0.566-0.327,1.018-0.137,1.098,0.419l0.17,0.084        c0.124-0.072,0.214-0.253,0.202-0.377c-0.111-0.722-0.711-0.981-1.418-0.573c-0.029,0.017-0.057,0.034-0.087,0.053        c-0.711,0.449-1.296,1.437-1.35,2.286c-0.065,0.934,0.501,1.373,1.246,1.06l0.003,0.998l-8.482,9.806        C144.375,115.554,144.242,116.254,144.333,116.668z M145.064,115.234l5.852-6.752l5.334-3.08l5.863-0.012        c0.373,0.006,0.431,0.375,0.375,0.706c-0.056,0.317-0.269,0.778-0.687,1.019l-16.406,9.472        c-0.417,0.241-0.633,0.028-0.69-0.225C144.637,116.104,144.703,115.663,145.064,115.234z" class="color3f528c svgShape"/><path fill="#b7ceff" d="M149.429,109.131l-1.059,1.208c0.046,0.128,0.923,2.558-2.371,8.72         c-0.506,0.942-0.752,1.954-0.636,2.757c0.242,1.705,1.084,3.738,1.235,5.144c0.336,3.052-0.233,9.382-1.667,14.157         c-0.381,1.285,0.086,2.224,1.034,2.039c2.547-0.51,5.093-1.499,7.639-2.969c2.546-1.47,5.092-3.42,7.639-5.852         c0.935-0.904,1.395-2.376,1.008-3.219c-1.455-3.107-2.048-8.765-1.741-12.189c0.143-1.575,0.97-4.573,1.202-6.551         c0.11-0.933-0.129-1.679-0.639-2.033c-3.329-2.325-2.459-5.764-2.413-5.945l-1.074,0.023         c0.023,8.129-3.48,10.452-3.997,10.751C152.946,115.543,149.452,117.26,149.429,109.131z" class="colorb7ceff svgShape"/><g fill="#000000" class="color000 svgShape"><path fill="#e576ad" d="M160.206,115.68c-0.519,0.3-4.009,2.137-4.023-2.639c0.023,8.129,3.517,6.412,4.034,6.114         c0.041-0.024,0.062-0.038,0.063-0.039c0,0,0.022-0.011,0.064-0.034c0.517-0.299,4.02-2.621,3.997-10.751         c0.014,4.776-3.485,6.974-4.006,7.274c-0.042,0.024-0.063,0.036-0.063,0.036C160.27,115.643,160.248,115.656,160.206,115.68z         " class="colore576ad svgShape"/><path fill="#3f528c" d="M151.088,120.579c0.103,0.421,0.465,0.692,1.063,0.347l16.406-9.471        c0.587-0.339,0.947-1.027,1.047-1.565c0.1-0.525-0.037-1.07-0.568-1.061l-8.522,0.01l-0.004-1.413l-0.18,0.104        c-0.609,0.351-1.096,0.061-1.064-0.658c0.01-0.641,0.471-1.427,1.012-1.765c0.566-0.328,1.018-0.138,1.098,0.418l0.17,0.085        c0.124-0.072,0.214-0.254,0.202-0.377c-0.111-0.722-0.711-0.982-1.418-0.574c-0.029,0.017-0.058,0.035-0.086,0.054        c-0.711,0.449-1.296,1.436-1.35,2.285c-0.065,0.934,0.501,1.373,1.246,1.06l0.003,0.999l-8.482,9.805        C151.13,119.464,150.996,120.165,151.088,120.579z M151.818,119.144l5.852-6.75l5.334-3.081l5.863-0.012        c0.373,0.006,0.43,0.375,0.375,0.706c-0.055,0.318-0.269,0.778-0.686,1.02l-16.406,9.472c-0.418,0.241-0.633,0.028-0.69-0.225        C151.391,120.014,151.458,119.574,151.818,119.144z" class="color3f528c svgShape"/><path fill="#fd93bf" d="M156.183,113.041l-1.059,1.208c0.046,0.128,0.923,2.558-2.371,8.72         c-0.506,0.942-0.752,1.954-0.636,2.757c0.242,1.705,1.084,3.738,1.235,5.144c0.336,3.052-0.233,9.382-1.667,14.157         c-0.381,1.285,0.085,2.224,1.034,2.039c2.547-0.51,5.093-1.499,7.639-2.969c2.546-1.47,5.092-3.42,7.639-5.852         c0.935-0.904,1.395-2.376,1.008-3.218c-1.455-3.107-2.048-8.766-1.741-12.189c0.142-1.575,0.97-4.573,1.202-6.551         c0.11-0.933-0.129-1.678-0.639-2.033c-3.329-2.325-2.459-5.764-2.413-5.945l-1.074,0.023         c0.023,8.13-3.48,10.452-3.997,10.751C159.701,119.453,156.206,121.17,156.183,113.041z" class="colorfd93bf svgShape"/></g><g fill="#000000" class="color000 svgShape"><path fill="#60ad88" d="M166.961,119.59c-0.519,0.3-4.01,2.137-4.023-2.639c0.023,8.129,3.517,6.412,4.034,6.114         c0.041-0.024,0.062-0.038,0.062-0.038c0.002-0.001,0.023-0.011,0.065-0.035c0.518-0.299,4.02-2.621,3.997-10.751         c0.013,4.775-3.485,6.974-4.006,7.275c-0.042,0.024-0.063,0.036-0.063,0.036C167.024,119.553,167.003,119.566,166.961,119.59         z" class="color60ad88 svgShape"/><path fill="#3f528c" d="M157.842,124.489c0.103,0.421,0.465,0.692,1.063,0.347l16.406-9.472        c0.587-0.339,0.946-1.027,1.047-1.565c0.1-0.526-0.037-1.07-0.568-1.061l-8.522,0.01l-0.004-1.413l-0.18,0.104        c-0.609,0.351-1.096,0.061-1.064-0.658c0.009-0.641,0.471-1.427,1.012-1.766c0.566-0.328,1.018-0.138,1.097,0.418l0.17,0.085        c0.124-0.072,0.214-0.254,0.202-0.377c-0.111-0.722-0.71-0.982-1.418-0.574c-0.029,0.017-0.057,0.035-0.087,0.053        c-0.711,0.449-1.296,1.436-1.35,2.285c-0.065,0.934,0.501,1.373,1.246,1.06l0.003,0.999l-8.482,9.805        C157.884,123.374,157.751,124.074,157.842,124.489z M158.573,123.054l5.851-6.751l5.335-3.081l5.863-0.012        c0.373,0.006,0.431,0.375,0.375,0.706c-0.056,0.318-0.269,0.778-0.687,1.02l-16.406,9.472        c-0.418,0.241-0.633,0.028-0.69-0.225C158.146,123.923,158.212,123.483,158.573,123.054z" class="color3f528c svgShape"/><path fill="#8ccfb1" d="M162.938,116.951l-1.059,1.208c0.046,0.128,0.923,2.558-2.371,8.72         c-0.506,0.942-0.752,1.954-0.636,2.757c0.242,1.705,1.084,3.738,1.235,5.144c0.336,3.052-0.233,9.382-1.666,14.157         c-0.381,1.285,0.085,2.224,1.034,2.039c2.547-0.509,5.093-1.499,7.639-2.969c2.546-1.47,5.092-3.42,7.639-5.852         c0.936-0.904,1.395-2.376,1.008-3.219c-1.455-3.107-2.048-8.765-1.741-12.189c0.142-1.575,0.97-4.573,1.202-6.551         c0.11-0.933-0.129-1.678-0.639-2.033c-3.329-2.325-2.458-5.764-2.413-5.945l-1.074,0.023         c0.023,8.129-3.48,10.452-3.997,10.751C166.455,123.363,162.961,125.08,162.938,116.951z" class="color8ccfb1 svgShape"/></g><g fill="#000000" class="color000 svgShape"><polygon fill="#a5acb7" points="185.712 153.112 185.709 154.1 169.565 163.482 169.567 162.494" class="colora5acb7 svgShape"/><polygon fill="#bcc2cc" points="169.567 162.494 169.565 163.482 167.117 162.069 167.12 161.081" class="colorbcc2cc svgShape"/><polygon fill="#d9dfe8" points="185.712 153.112 169.567 162.494 167.12 161.081 183.264 151.699" class="colord9dfe8 svgShape"/><g fill="#000000" class="color000 svgShape"><path fill="#a5acb7" d="M175.296,113.582l-36.038-20.806c-0.828-0.478-1.578-0.521-2.12-0.206l-1.692,0.983          c0.53-0.308,1.261-0.267,2.069,0.183l-1.467,0.853c-0.383,0.223-0.62,0.696-0.622,1.366l-0.063,37.948l1.692-0.984          l0.063-37.947c0.001-0.553,0.169-0.962,0.44-1.216c0.003,0.001,0.006,0.002,0.008,0.004l36.038,20.807          c1.64,0.947,2.977,3.263,2.971,5.147l-0.063,37.947l1.692-0.983l0.063-37.947          C178.273,116.846,176.936,114.53,175.296,113.582z" class="colora5acb7 svgShape"/><path fill="#a5acb7" d="M173.604,114.566c1.64,0.947,2.977,3.263,2.972,5.147l-0.063,37.947l-0.851-0.491         l0.063-37.947c0.004-1.347-0.951-3.001-2.124-3.678l-36.038-20.807c-1.18-0.681-2.134-0.129-2.138,1.218l-0.063,37.947         l-0.851-0.491l0.063-37.947c0.005-1.884,1.343-2.656,2.991-1.705L173.604,114.566z" class="colora5acb7 svgShape"/></g></g><g fill="#000000" class="color000 svgShape"><path fill="#3f528c" d="M147.866 97.703c-.08-.556-.532-.744-1.098-.418-.541.338-1.003 1.125-1.012 1.766-.032.719.455 1.01 1.064.658l.181-.104.003.938h-.373l-.001-.308c-.745.313-1.311-.126-1.246-1.06.054-.849.639-1.836 1.35-2.285.029-.019.058-.037.087-.053.707-.408 1.307-.149 1.418.574.012.123-.078.305-.202.378L147.866 97.703zM154.621 101.613c-.08-.556-.532-.745-1.098-.418-.541.338-1.003 1.125-1.012 1.766-.032.719.455 1.01 1.064.658l.181-.105.003.938h-.373l-.001-.308c-.745.313-1.311-.126-1.246-1.06.054-.849.639-1.836 1.35-2.285.029-.019.058-.037.087-.053.707-.408 1.307-.149 1.418.573.012.123-.078.306-.202.378L154.621 101.613zM161.375 105.523c-.08-.556-.532-.745-1.098-.418-.541.338-1.003 1.125-1.012 1.766-.032.719.455 1.01 1.064.658l.18-.104.003.938h-.373l-.001-.308c-.745.313-1.311-.126-1.246-1.06.054-.849.639-1.836 1.35-2.285.029-.019.058-.037.086-.053.708-.408 1.307-.149 1.418.573.012.123-.078.306-.202.378L161.375 105.523zM168.129 109.433c-.079-.556-.532-.745-1.097-.418-.541.338-1.003 1.125-1.012 1.766-.032.719.455 1.01 1.064.658l.18-.104.003.938h-.373l-.001-.308c-.745.313-1.311-.126-1.246-1.06.054-.849.639-1.836 1.35-2.285.029-.019.058-.037.087-.053.707-.408 1.307-.149 1.418.573.012.123-.078.306-.202.378L168.129 109.433z" class="color3f528c svgShape"/></g></g><g fill="#000000" class="color000 svgShape"><path fill="#3f528c" d="M178.73,86.94l-0.183,102.849c0,0.668-0.243,1.125-0.608,1.369l-2.962,1.724      c0.395-0.243,0.639-0.699,0.639-1.398l0.152-102.847c0-1.339-0.942-3.01-2.128-3.709l-48.447-28.041      c-0.577-0.365-1.125-0.395-1.52-0.153l2.962-1.724c0.395-0.212,0.912-0.183,1.52,0.151l48.447,28.042      C177.787,83.9,178.73,85.573,178.73,86.94z" class="color3f528c svgShape"/><path fill="#233163" d="M173.631,84.929l-48.428-28.047c-1.203-0.694-2.158-0.129-2.162,1.232l-0.175,102.844      c-0.003,1.359,0.944,3.024,2.148,3.72l48.427,28.047c1.184,0.682,2.158,0.128,2.162-1.232l0.175-102.844      C175.782,87.288,174.815,85.612,173.631,84.929z M174.018,181.09c-0.003,0.878-0.953,1.424-1.714,0.984l-46.73-27.072      c-0.709-0.41-1.145-1.165-1.142-1.984l0.173-88.106c0.003-0.878,0.953-1.424,1.713-0.986l46.751,27.051      c0.709,0.409,1.145,1.166,1.142,1.985L174.018,181.09z" class="color233163 svgShape"/><path fill="#3f528c" d="M149.329 170.971c1.189.687 2.148 2.347 2.144 3.714-.004 1.367-.969 1.916-2.158 1.23-1.189-.686-2.148-2.347-2.144-3.713C147.175 170.834 148.14 170.284 149.329 170.971zM155.301 76.689c.342.197.614.678.613 1.07-.001.392-.275.549-.617.352l-11.946-6.897c-.342-.197-.622-.674-.62-1.066.001-.393.283-.553.624-.356L155.301 76.689z" class="color3f528c svgShape"/></g><g opacity=".5" fill="#000000" class="color000 svgShape"><polygon fill="#ffffff" points="161.11 84.053 124.52 109.703 124.489 125.868 166.126 86.953" class="colorfff svgShape"/><polygon fill="#ffffff" points="174.134 125.832 135.32 160.643 150.045 169.178 174.095 142.917" class="colorfff svgShape"/></g><path fill="#8ccfb1" d="M174.207,92.969l-0.197,88.13c0,0.862-0.937,1.405-1.701,0.986l-46.74-27.093     c-0.715-0.394-1.134-1.159-1.134-1.972l0.173-88.106c0-0.887,0.962-1.43,1.701-0.986l46.764,27.042     C173.788,91.391,174.207,92.155,174.207,92.969z" opacity=".4" class="color8ccfb1 svgShape"/></g><g fill="#000000" class="color000 svgShape"><path fill="#edc3d2" d="M108.525,132.538c-0.018-0.027-0.035-0.055-0.053-0.081c-1.463-2.138-3.406-3.845-5.382-5.518       c-2.73-2.307-1.115-5.868-0.988-6.204c0,0-1.937-1.088-1.752-1.448l-6.003,3.002c0.25,1.38,0.567,2.885,0.82,4.786       c0.177,1.331,2.627,3.451,5.338,5.463H108.525z" class="coloredc3d2 svgShape"/><path fill="#e576ad" d="M95.791,107.556c-2.265,1.171-3.918,3.983-3.548,7.751c0.12,1.235,1.049,4.691,1.875,7.204       c1.548,0.114,7.004,0.446,8.191-1.471c0.189-3.009-0.105-6.914-0.241-8.315C101.701,108.954,98.052,106.38,95.791,107.556z" class="colore576ad svgShape"/><path fill="#2d3a74" d="M116.697,196.785c-4.347-0.229-6.116,0.698-9.445-2.296l-5.501,1.459        c0,0-1.538,4.965-0.22,6.614c1.212,1.521,5.421-0.343,9.609-0.276c0.828,0.014,1.648-0.014,2.461-0.193        c1.725-0.381,4.625-1.21,5.939-2.696C119.54,199.398,120.979,197.079,116.697,196.785z" class="color2d3a74 svgShape"/><path fill="#8ca8f7" d="M108.076,138.679c-6.502-9.499-16.115,1.139-16.115,1.139s-2.99,6.527,2.928,13.086        c0.904,1.002,1.546,2.16,1.916,3.365l4.922,9.586c0,0,2.089,4.521-0.449,10.341c0,0-1.906,5.246,0.535,13.674        c0,0,1.006,4.042-0.063,6.079c0,0,3.411,1.724,7.412-0.055c0,0-1.243-12.288,1.217-15.814c2.46-3.526,0.99-19.765,0.99-19.765        S114.578,148.178,108.076,138.679z" class="color8ca8f7 svgShape"/><path fill="#2d3a74" d="M99.163,205.944c-3.979-1.263-5.994-0.754-7.948-4.551l-5.714,0.155        c0,0-3.364,4.616-2.771,6.585c0.544,1.814,5.206,0.946,9.099,2.009c0.77,0.211,1.547,0.378,2.377,0.392        c1.762,0.029,4.798-0.114,6.603-1.293C100.81,209.242,103.057,207.257,99.163,205.944z" class="color2d3a74 svgShape"/><path fill="#b7ceff" d="M113.629,145.584c-2.4-11.079-15.039-2.784-15.039-2.784s-3.685,3.455-0.691,11.444        c0.457,1.221,0.609,2.535,0.488,3.833l-1.237,13.268c0,0,0.201,5.034-4.43,10.27c0,0-3.818,4.811-4.802,13.849        c0,0-0.626,4.296-2.416,6.085c0,0,2.523,2.542,6.958,1.708c0,0,3.602-12.626,7.271-15.58        c3.669-2.953,8.591-19.599,8.591-19.599S116.03,156.663,113.629,145.584z" class="colorb7ceff svgShape"/><path fill="#f283b5" d="M114.22,112.166c-3.404-1.42-0.344-1.646-2.999-2.565c-2.654-0.919-6.511-2.119-6.511-2.119       s-3.05,1.123-6.725-1.531c0,0-5.207-2.145-5.207,2.654c0,4.798-0.817,5.921,3.063,12.761       c3.879,6.841,0.807,11.015-1.429,13.602c-0.889,1.027-2.042,2.147-2.45,4.851c0,0,12.27,9.81,21.769,6.265       c0,0-0.149-3.819-0.525-7.19c-0.345-3.094-0.048-8.595,0.909-11.555l0.063-1.936c0.065-2.001,0.775-3.905,1.913-5.552       C117.404,117.946,117.761,113.643,114.22,112.166z" class="colorf283b5 svgShape"/><polygon fill="#d363a1" points="129.058 190.539 116.391 183.506 134.113 170.572 148.981 180.199" class="colord363a1 svgShape"/><path fill="#fd93bf" d="M149.818,166.225l-14.474-8.929l1.631,15.608l10.22,6.095L149.818,166.225z M138.984,172.026          c-0.058-0.034-0.121-0.034-0.175-0.102c-0.26-0.173-0.469-0.515-0.518-0.894l-0.758-6.011          c-0.098-0.755,0.247-1.305,0.761-1.167c0.09,0.034,0.179,0.069,0.237,0.102c0.404,0.275,0.732,0.927,0.753,1.546          l0.217,5.838C139.538,171.82,139.288,172.095,138.984,172.026z M142.562,173.675c-0.084,0.448-0.38,0.584-0.699,0.377          c-0.315-0.24-0.535-0.755-0.513-1.201l0.37-5.531c0.054-0.721,0.526-1.03,1.016-0.686c0.52,0.344,0.856,1.202,0.713,1.889          L142.562,173.675z M147.505,171.924l-1.977,4.087c-0.122,0.24-0.38,0.309-0.609,0.137c-0.058-0.035-0.113-0.104-0.167-0.173          c-0.307-0.309-0.425-0.892-0.322-1.236l1.516-4.671c0.15-0.481,0.54-0.619,0.944-0.344c0.09,0.034,0.171,0.138,0.256,0.206          C147.613,170.48,147.788,171.374,147.505,171.924z" class="colorfd93bf svgShape"/><path fill="#f283b5" d="M149.321,165.772l-14.536-8.476v15.887l13.396,7.459L149.321,165.772z M138.387,172.026          c-0.058-0.034-0.121-0.034-0.175-0.102c-0.26-0.173-0.469-0.515-0.518-0.894l-0.758-6.011          c-0.098-0.755,0.247-1.305,0.761-1.167c0.09,0.034,0.179,0.069,0.237,0.102c0.404,0.275,0.732,0.927,0.753,1.546          l0.217,5.838C138.941,171.82,138.69,172.095,138.387,172.026z M141.964,173.675c-0.084,0.448-0.38,0.584-0.699,0.377          c-0.315-0.24-0.535-0.755-0.513-1.201l0.37-5.531c0.054-0.721,0.526-1.03,1.016-0.686c0.521,0.344,0.856,1.202,0.713,1.889          L141.964,173.675z M146.908,171.924l-1.977,4.087c-0.122,0.24-0.38,0.309-0.609,0.137c-0.058-0.035-0.113-0.104-0.167-0.173          c-0.307-0.309-0.425-0.892-0.322-1.236l1.516-4.671c0.15-0.481,0.54-0.619,0.944-0.344c0.09,0.034,0.171,0.138,0.256,0.206          C147.015,170.48,147.191,171.374,146.908,171.924z" class="colorf283b5 svgShape"/><path fill="#e576ad" d="M114.538,167.227l2.715,15.761l17.722-12.535l-0.009-12.875L114.538,167.227z          M129.302,171.956l-0.718-7.857c0.035-0.748,0.51-1.571,1.098-1.888l0.045-0.015c0.685-0.366,1.239,0.103,1.171,0.991         l0.325,8.012c-0.047,0.614-0.437,1.254-0.909,1.506l-0.036,0.016C129.726,173.012,129.275,172.657,129.302,171.956z          M123.583,166.88c-0.038-0.774,0.462-1.699,1.103-2.031l0.045-0.025c0.641-0.341,1.174,0.04,1.176,0.829l1.172,7.604         c0.007,0.638-0.398,1.352-0.915,1.629l-0.035,0.025c-0.517,0.267-0.948-0.019-0.982-0.64L123.583,166.88z M119.691,167.469         l0.036-0.016c0.597-0.317,1.11-0.014,1.173,0.686l2.018,7.176c0.062,0.652-0.351,1.461-0.903,1.754l-0.036,0.016         c-0.472,0.252-0.884,0.034-0.961-0.515l-2.409-6.926C118.499,168.855,119.006,167.835,119.691,167.469z" class="colore576ad svgShape"/><path fill="#fd93bf" d="M129.612 172.735c.175.115.412.121.67-.014l.032-.017c.474-.249.863-.893.908-1.505l-.326-8.015c.065-.881-.481-1.345-1.163-.993.292.147.469.521.43 1.043l.326 8.015C130.445 171.845 130.072 172.473 129.612 172.735zM125.455 174.923c.176.116.413.12.671-.015l.042-.022c.513-.27.918-.994.913-1.632l-1.17-7.597c-.006-.79-.532-1.167-1.165-.842.26.131.429.446.433.891l1.17 7.597C126.353 173.932 125.959 174.645 125.455 174.923zM121.309 177.103c.178.116.415.121.671-.014l.032-.016c.552-.291.971-1.101.907-1.754l-2.018-7.176c-.068-.698-.572-.998-1.16-.695.23.115.39.373.427.743l2.018 7.177C122.249 176.009 121.846 176.799 121.309 177.103z" class="colorfd93bf svgShape"/><path fill="#eaeffa" d="M132.136,142.124c-0.036-0.067-0.098-0.117-0.172-0.138c-0.073-0.021-0.152-0.011-0.219,0.027        l-8.518,4.92c0.015,0.005,0.031,0.012,0.047,0.021c0.127,0.073,0.229,0.25,0.228,0.395c0,0.034-0.006,0.063-0.017,0.087        l8.084-4.669c-0.389,3.177-1.145,8.441-1.712,9.461c-0.828,1.489-1.2,2.99-1.107,4.463l0.485-0.031        c-0.088-1.378,0.264-2.789,1.046-4.195C131.092,151.007,132.094,142.486,132.136,142.124z" class="coloreaeffa svgShape"/><path fill="#3f528c" d="M129.245,142.608c0.129-0.075,0.307-0.064,0.503,0.049c0.391,0.226,0.706,0.772,0.705,1.221          c-0.001,0.223-0.079,0.38-0.206,0.454l-7.132,4.149c0.127-0.074,0.206-0.231,0.206-0.454          c0.001-0.449-0.314-0.996-0.705-1.221c-0.197-0.113-0.375-0.124-0.503-0.049L129.245,142.608z" class="color3f528c svgShape"/><path fill="#233163" d="M122.616,146.806c-0.391-0.226-0.708-0.045-0.71,0.404           c-0.001,0.449,0.314,0.995,0.705,1.221c0.391,0.226,0.708,0.045,0.71-0.404           C123.322,147.578,123.006,147.032,122.616,146.806z" class="color233163 svgShape"/><path fill="#eaeffa" d="M122.663,147.811c0.001-0.145-0.102-0.322-0.228-0.395c-0.02-0.012-0.04-0.019-0.059-0.024        l-2.19,1.29c-0.079,0.046-0.128,0.125-0.138,0.21l-0.003-0.001c-0.354,3.034-1.185,9.062-1.796,10.161        c-0.828,1.489-1.2,2.99-1.107,4.463l0.485-0.031c-0.088-1.378,0.264-2.789,1.046-4.195c0.751-1.351,1.666-8.768,1.83-10.135        l2.147-1.266C122.658,147.865,122.663,147.84,122.663,147.811z" class="coloreaeffa svgShape"/><polygon fill="#d363a1" points="134.917 152.917 134.966 157.578 114.167 170.305 112.78 166.424" class="colord363a1 svgShape"/><g fill="#000000" class="color000 svgShape"><polygon fill="#e576ad" points="150.797 162.121 149.962 166.321 134.966 157.578 134.917 152.917" class="colore576ad svgShape"/></g><g fill="#000000" class="color000 svgShape"><path fill="#fd93bf" d="M128.767,178.204l-15.298-8.858l3.468,14.163l10.937,5.531L128.767,178.204z M118.792,182.081         c-0.062-0.03-0.125-0.03-0.187-0.093c-0.281-0.157-0.53-0.467-0.623-0.811l-1.465-5.455         c-0.187-0.685,0.094-1.184,0.624-1.059c0.094,0.03,0.187,0.062,0.249,0.093c0.436,0.249,0.841,0.842,0.935,1.403l0.904,5.298         C119.322,181.894,119.104,182.143,118.792,182.081z M122.564,183.577c-0.031,0.406-0.312,0.529-0.654,0.342         c-0.343-0.218-0.623-0.685-0.655-1.09l-0.281-5.02c-0.031-0.654,0.405-0.934,0.935-0.622         c0.561,0.312,0.997,1.091,0.935,1.714L122.564,183.577z M127.301,181.988l-1.496,3.709c-0.094,0.218-0.343,0.28-0.592,0.125         c-0.062-0.032-0.125-0.094-0.187-0.157c-0.343-0.28-0.53-0.81-0.468-1.122l0.966-4.239c0.094-0.437,0.468-0.562,0.904-0.312         c0.094,0.031,0.187,0.125,0.281,0.187C127.239,180.678,127.52,181.489,127.301,181.988z" class="colorfd93bf svgShape"/></g><g fill="#000000" class="color000 svgShape"><path fill="#f283b5" d="M128.209,178.204l-15.298-8.858l3.467,14.163l12.676,7.022L128.209,178.204z M118.195,182.081         c-0.062-0.03-0.125-0.03-0.187-0.093c-0.281-0.157-0.53-0.467-0.623-0.811l-1.465-5.455         c-0.187-0.685,0.094-1.184,0.623-1.059c0.094,0.03,0.187,0.062,0.249,0.093c0.437,0.249,0.841,0.842,0.935,1.403l0.904,5.298         C118.725,181.894,118.506,182.143,118.195,182.081z M121.966,183.577c-0.031,0.406-0.312,0.529-0.654,0.342         c-0.343-0.218-0.623-0.685-0.655-1.09l-0.281-5.02c-0.031-0.654,0.405-0.934,0.935-0.622         c0.561,0.312,0.997,1.091,0.935,1.714L121.966,183.577z M126.704,181.988l-1.496,3.709c-0.094,0.218-0.343,0.28-0.592,0.125         c-0.062-0.032-0.125-0.094-0.187-0.157c-0.343-0.28-0.53-0.81-0.468-1.122l0.966-4.239c0.094-0.437,0.468-0.562,0.904-0.312         c0.094,0.031,0.187,0.125,0.281,0.187C126.642,180.678,126.922,181.489,126.704,181.988z" class="colorf283b5 svgShape"/></g><g fill="#000000" class="color000 svgShape"><path fill="#e576ad" d="M128.197,177.814l0.862,12.725l19.923-10.34l1.072-15.005L128.197,177.814z M142.955,181.204         l0.145-7.636c0.102-0.64,0.612-1.344,1.177-1.617l0.042-0.013c0.658-0.315,1.117,0.085,0.972,0.844l-0.517,7.769         c-0.101,0.525-0.516,1.073-0.969,1.29l-0.034,0.014C143.241,182.106,142.864,181.803,142.955,181.204z M138.289,175.958         c0.039-0.661,0.58-1.453,1.195-1.739l0.043-0.021c0.615-0.294,1.064,0.031,0.992,0.706l0.292,7.418         c-0.053,0.545-0.49,1.157-0.986,1.395l-0.035,0.022c-0.495,0.23-0.861-0.014-0.833-0.545L138.289,175.958z M134.693,176.472         l0.034-0.014c0.572-0.272,1.01-0.014,1.002,0.584l1.102,7.05c-0.005,0.558-0.457,1.25-0.987,1.502l-0.034,0.014         c-0.453,0.217-0.807,0.031-0.825-0.438l-1.481-6.835C133.478,177.659,134.035,176.786,134.693,176.472z" class="colore576ad svgShape"/><path fill="#fd93bf" d="M143.163 181.869c.149.098.363.103.611-.014l.031-.015c.455-.214.869-.766.968-1.289l.516-7.771c.142-.754-.31-1.149-.964-.846.252.125.377.444.293.891l-.516 7.771C144.005 181.106 143.607 181.644 143.163 181.869zM139.176 183.75c.149.099.365.101.611-.015l.041-.019c.492-.232.928-.852.985-1.398l-.291-7.411c.069-.676-.374-.996-.981-.717.224.111.348.38.31.761l.291 7.411C140.086 182.901 139.66 183.511 139.176 183.75zM135.199 185.624c.151.099.366.102.612-.014l.031-.014c.53-.25.987-.943.99-1.502l-1.102-7.05c.004-.597-.426-.852-.99-.591.199.098.32.318.318.634l1.102 7.051C136.157 184.687 135.717 185.363 135.199 185.624z" class="colorfd93bf svgShape"/></g><g fill="#000000" class="color000 svgShape"><path fill="#fd93bf" d="M111.733,164.828l16.543,9.596l23.57-13.6l-17.137-9.934L111.733,164.828z M128.025,172.393         L115.253,165l19.662-12.086l13.453,7.794L128.025,172.393z" class="colorfd93bf svgShape"/><polygon fill="#e576ad" points="128.274 174.426 128.274 178.904 111.78 169.282 111.733 164.828" class="colore576ad svgShape"/><polygon fill="#d363a1" points="128.274 174.426 151.849 160.826 151.849 165.299 128.274 178.904" class="colord363a1 svgShape"/></g><g fill="#000000" class="color000 svgShape"><path fill="#eaeffa" d="M142.955,157.235l-7.957-14.815c-0.036-0.067-0.098-0.117-0.172-0.138         c-0.073-0.021-0.152-0.011-0.219,0.027l-8.518,4.92c0.015,0.005,0.031,0.012,0.047,0.021c0.127,0.073,0.229,0.25,0.228,0.395         c0,0.034-0.006,0.063-0.017,0.087l8.29-4.788l7.819,14.558c1.623,3.026,2.512,6.23,2.505,9.022         c-0.001,0.156,0.126,0.283,0.282,0.283h0.001c0.156,0,0.282-0.126,0.283-0.282         C145.535,163.642,144.621,160.342,142.955,157.235z" class="coloreaeffa svgShape"/><path fill="#3f528c" d="M132.106,142.904c0.129-0.075,0.307-0.064,0.503,0.049c0.391,0.226,0.706,0.772,0.705,1.221         c-0.001,0.223-0.079,0.38-0.206,0.454l-7.132,4.149c0.127-0.074,0.206-0.23,0.206-0.453c0.001-0.449-0.314-0.996-0.705-1.221         c-0.197-0.114-0.375-0.124-0.503-0.049L132.106,142.904z" class="color3f528c svgShape"/><path fill="#233163" d="M125.477,147.102c-0.391-0.226-0.708-0.045-0.71,0.404c-0.001,0.449,0.314,0.995,0.705,1.221          c0.391,0.225,0.708,0.044,0.71-0.405C126.184,147.874,125.868,147.327,125.477,147.102z" class="color233163 svgShape"/><g fill="#000000" class="color000 svgShape"><path fill="#eaeffa" d="M125.297,147.711c-0.02-0.012-0.04-0.019-0.059-0.024l-2.19,1.29        c-0.132,0.076-0.18,0.244-0.108,0.379l7.957,14.815c1.623,3.026,2.512,6.23,2.505,9.022c-0.001,0.156,0.126,0.283,0.282,0.283        h0.001c0.156,0,0.282-0.126,0.283-0.282c0.008-2.884-0.905-6.184-2.572-9.291l-7.827-14.574l1.944-1.148        c0.008-0.022,0.013-0.047,0.013-0.076C125.526,147.961,125.423,147.784,125.297,147.711z" class="coloreaeffa svgShape"/></g></g><g fill="#000000" class="color000 svgShape"><path fill="#f7d7e1" d="M128.621,143.886c-0.475-0.181-0.744-0.256-0.887-0.283c0.03-0.017,0.056-0.046,0.07-0.095      c0.041-0.095,0.197-0.188,0.197-0.188l0.925-0.527c-0.384-0.314-0.766-0.557-1.315-0.926c-1.382-0.928-3.086-1.144-4.706-0.759      c-0.019,0.005-0.038,0.008-0.057,0.011c-0.527,0.105-1.22-0.661-1.281-0.666l-6.246-4.686c-1.219-0.687-1.893-2.027-1.74-3.415      c0.515-4.799,1.261-15.673-2.27-16.746c-4.568-1.408-4.888,3.592-4.888,3.592c-0.244,2.081,0.442,12.26,1.003,16.605      c0.146,1.109,0.825,2.052,1.782,2.596l10.554,4.706c0,0,1.61,0.752,1.897,1.295c1.008,2.04,3.772,3.531,5.257,3.967      c0.418,0.097,0.662,0.089,0.789,0.039c0.318-0.155-0.11-0.833-0.297-1.124c0.143,0.105,2.307,0.679,2.433,0.631      c0.225-0.134,0.06-0.564-0.282-0.838c0.658,0.485,0.87,0.503,0.87,0.503c0.363,0.032,0.549-0.012,0.678-0.093      c0.637-0.309-1.331-1.488-1.386-1.554c1.139,0.557,1.691,0.515,1.949,0.355c0.225-0.134,0.238-0.284,0.238-0.284      C131.852,145.939,131.039,144.799,128.621,143.886z" class="colorf7d7e1 svgShape"/><path fill="#e576ad" d="M114.233,124.417c0.453-2.857,0.845-7.764,0.841-9.119c-0.012-3.651-3.278-6.534-5.552-5.669        c-2.277,0.859-4.116,3.359-4.102,7.005c0.004,1.196,0.247,6.421,0.813,8.92C110.191,126.575,114.214,124.404,114.233,124.417z        " class="colore576ad svgShape"/></g><g fill="#000000" class="color000 svgShape"><path fill="#f7d7e1" d="M111.128,93.719c0,0-0.39,1.645,0,2.992c0.39,1.347,1.182,4.359-3.652,9.669      c-4.835,5.31-1.347-12.047-1.347-12.047L111.128,93.719z" class="colorf7d7e1 svgShape"/><path fill="#3f528c" d="M109.783,105.894c-0.726-0.534-1.053-1.464-0.825-2.336c0.213-0.817,0.525-1.963,0.597-3.479       c0.041-0.858,0.249-1.697,0.589-2.486c1.112-2.583,2.892-8.466-3.306-9.66c0,0-3.94-2.49-8.078,0.342       c-2.09,1.43-3.397,3.742-3.705,6.256c-0.042,0.341-0.072,0.682-0.081,0.999c-0.049,1.636-1.737,4.219-2.68,5.062       c-0.526,0.469-0.604,1.512-0.278,2.523c0.376,1.164,0.012,2.45-0.957,3.198c-1.176,0.908-0.395,16.527,4.767,16.478       c0,0,4.17,3.773,7.942,0.596c0,0,4.754-5.159,6.226-10.59C110.405,111.283,113.245,108.445,109.783,105.894z" class="color3f528c svgShape"/><path fill="#2d3a74" d="M91.84,106.688c0.957-0.739,1.316-2.008,0.944-3.157c-0.322-0.997-0.245-2.027,0.275-2.49        c0.931-0.834,2.597-3.383,2.646-4.998c0.009-0.313,0.039-0.649,0.08-0.986c0.304-2.481,1.594-4.765,3.658-6.176        c4.085-2.794,7.975-0.337,7.975-0.337c1.326,0.256,2.265,0.737,2.938,1.347c-0.673-0.903-1.77-1.619-3.517-1.956        c0,0-3.94-2.49-8.078,0.342c-2.09,1.43-3.397,3.742-3.705,6.256c-0.042,0.341-0.072,0.682-0.081,0.999        c-0.049,1.636-1.737,4.219-2.68,5.062c-0.526,0.469-0.604,1.512-0.278,2.523c0.376,1.164,0.012,2.45-0.957,3.198        c-1.155,0.891-0.413,15.93,4.501,16.429C91.357,120.94,90.758,107.523,91.84,106.688z" class="color2d3a74 svgShape"/><path fill="#2d3a74" d="M102.986,90.734c-0.453,0.652-0.848,1.35-1.049,2.078c-0.242,0.723-0.287,1.457-0.276,2.162       c0.286-1.428,0.755-2.834,1.681-4.036c0.427-0.618,0.971-1.169,1.56-1.671c0.592-0.499,1.236-0.956,1.936-1.335       C105.327,88.412,103.944,89.454,102.986,90.734z" class="color2d3a74 svgShape"/></g><g fill="#000000" class="color000 svgShape"><path fill="#b7ceff" d="M98.551,207.857c-0.024,0-0.045-0.004-0.067-0.012c-0.078-0.032-0.107-0.116-0.064-0.187      c0.855-1.381-0.088-2.021-0.098-2.028c-0.069-0.045-0.078-0.133-0.018-0.197c0.06-0.064,0.163-0.077,0.232-0.032      c0.012,0.007,1.157,0.784,0.174,2.373C98.676,207.827,98.613,207.857,98.551,207.857z" class="colorb7ceff svgShape"/></g><g fill="#000000" class="color000 svgShape"><path fill="#b7ceff" d="M97.073,207.458c-0.023,0-0.044-0.004-0.067-0.012c-0.078-0.032-0.107-0.116-0.064-0.187      c0.855-1.381-0.088-2.021-0.098-2.028c-0.069-0.045-0.078-0.133-0.018-0.197c0.059-0.064,0.163-0.077,0.232-0.032      c0.012,0.007,1.157,0.784,0.174,2.373C97.198,207.427,97.135,207.458,97.073,207.458z" class="colorb7ceff svgShape"/></g><g fill="#000000" class="color000 svgShape"><path fill="#b7ceff" d="M95.594,207.059c-0.023,0-0.045-0.004-0.067-0.012c-0.078-0.032-0.107-0.116-0.064-0.187      c0.854-1.381-0.089-2.021-0.098-2.028c-0.069-0.045-0.078-0.134-0.019-0.197c0.06-0.064,0.163-0.077,0.232-0.032      c0.012,0.008,1.157,0.784,0.174,2.373C95.719,207.028,95.656,207.059,95.594,207.059z" class="colorb7ceff svgShape"/></g><g fill="#000000" class="color000 svgShape"><path fill="#b7ceff" d="M94.116,206.659c-0.024,0-0.045-0.004-0.067-0.012c-0.078-0.032-0.107-0.116-0.064-0.187      c0.855-1.381-0.088-2.021-0.098-2.028c-0.069-0.046-0.078-0.134-0.018-0.197c0.059-0.064,0.163-0.077,0.232-0.032      c0.012,0.007,1.157,0.784,0.174,2.373C94.241,206.629,94.178,206.659,94.116,206.659z" class="colorb7ceff svgShape"/></g><g fill="#000000" class="color000 svgShape"><path fill="#b7ceff" d="M116.649 196.677c-.033-.073-.119-.126-.21-.128 0 0-.007 0-.011 0-.13-.003-.213.096-.166.2.144.321.226.722.17 1.226-.009.093.075.185.189.206.032.005.06.006.088.001.074-.013.131-.062.139-.13C116.91 197.491 116.814 197.044 116.649 196.677zM114.485 196.536c-.007 0-.015 0-.022 0-.123.001-.198.094-.161.195.109.297.166.651.118 1.086-.009.093.075.185.188.205.032.005.06.006.088.001.075-.013.132-.062.14-.13.053-.479-.008-.88-.13-1.218C114.678 196.594 114.584 196.535 114.485 196.536zM112.521 196.548l-.008 0c-.117.001-.193.084-.167.18.071.265.101.572.061.931-.009.093.075.185.189.206.032.005.06.006.088.001.075-.013.131-.063.139-.13.044-.399.005-.741-.079-1.039C112.72 196.611 112.624 196.547 112.521 196.548zM110.56 196.452l-.003-.001c-.132-.021-.238.062-.212.169.062.253.086.544.049.88-.009.093.075.185.189.207.032.005.06.005.088 0 .074-.013.131-.062.139-.13.041-.373.005-.691-.068-.975C110.724 196.528 110.65 196.467 110.56 196.452z" class="colorb7ceff svgShape"/></g></g><g fill="#000000" class="color000 svgShape"><path fill="#fd3c2d" d="M55.106,58.748" class="colorfd3c2d svgShape"/><polygon fill="#a5acb7" points="71.068 90.23 70.151 89.702 70.177 96.684 71.081 97.214" class="colora5acb7 svgShape"/><path fill="#a5acb7" d="M65.982,76.317l0.039,12.61c0,0.865,0.31,1.472,0.8,1.768l0.916,0.529        c-0.503-0.297-0.8-0.904-0.8-1.769l-0.039-12.61c-0.013-1.743,1.213-3.872,2.736-4.75L92.377,58.97        c0.761-0.439,1.458-0.478,1.962-0.194l-0.917-0.529c-0.503-0.284-1.187-0.245-1.962,0.194L68.719,71.567        C67.209,72.445,65.982,74.574,65.982,76.317z" class="colora5acb7 svgShape"/><g fill="#000000" class="color000 svgShape"><path fill="#d9dfe8" d="M69.632,72.098c-1.516,0.875-2.74,3.005-2.735,4.747l0.036,12.613        c0.005,1.742,1.237,2.445,2.753,1.569l1.376-0.795l0.02,6.979l7.117-11.099l14.232-8.217c1.516-0.876,2.748-3,2.743-4.742        L95.138,60.54c-0.005-1.742-1.245-2.449-2.761-1.573L69.632,72.098z" class="colord9dfe8 svgShape"/></g><g fill="#000000" class="color000 svgShape"><path fill="#bcc2cc" d="M77.15,62.874l0.044,14.3c0,0.98,0.351,1.667,0.907,1.988l1.038,0.6        c-0.57-0.321-0.921-1.009-0.921-1.988l-0.029-14.3c-0.014-1.974,1.374-4.372,3.1-5.367l25.764-14.871        c0.863-0.512,1.652-0.555,2.223-0.219l-1.038-0.6c-0.57-0.336-1.345-0.292-2.208,0.22L80.265,57.508        C78.525,58.501,77.15,60.9,77.15,62.874z" class="colorbcc2cc svgShape"/><path fill="#eaeffa" d="M81.289,58.106c-1.727,0.997-3.113,3.399-3.108,5.373l0.041,14.289        c0.006,1.973,1.401,2.78,3.128,1.783l16.123-9.309l8.098,3.233l-0.022-7.896l1.568-0.905c1.718-0.992,3.104-3.404,3.099-5.378        l-0.041-14.289c-0.005-1.974-1.401-2.769-3.119-1.778L81.289,58.106z" class="coloreaeffa svgShape"/><polygon fill="#8294ed" points="102.406 52.97 101.498 55.619 99.455 57.143 100.939 57.949 100.595 60.489 102.421 58.323 104.254 58.377 103.897 56.241 105.371 53.727 103.327 54.563" class="color8294ed svgShape"/><polygon fill="#8294ed" points="94.328 57.634 93.428 60.279 91.377 61.807 92.869 62.608 92.525 65.148 94.343 62.987 96.176 63.041 95.819 60.905 97.301 58.387 95.249 59.227" class="color8294ed svgShape"/><polygon fill="#8294ed" points="86.258 62.293 85.349 64.943 83.307 66.466 84.791 67.272 84.447 69.813 86.273 67.646 88.106 67.7 87.749 65.564 89.223 63.051 87.179 63.886" class="color8294ed svgShape"/></g></g><g fill="#000000" class="color000 svgShape"><path fill="#d363a1" d="M228.519,170.565l-34.738-20.056c-0.402-0.232-0.766-0.253-1.029-0.101l-1.662,0.966        c0.263-0.153,0.627-0.131,1.028,0.101l34.738,20.056c0.798,0.461,1.443,1.578,1.441,2.495l-0.061,21.715        c-0.001,0.461-0.163,0.784-0.424,0.936l1.662-0.966c0.261-0.151,0.422-0.475,0.424-0.936l0.062-21.714        C229.963,172.144,229.317,171.026,228.519,170.565z" class="colord363a1 svgShape"/><path fill="#f283b5" d="M226.857,171.531c0.798,0.461,1.443,1.579,1.441,2.496l-0.061,21.714         c-0.003,0.926-0.652,1.296-1.45,0.835l-34.738-20.056c-0.798-0.461-1.443-1.579-1.441-2.505l0.062-21.714         c0.003-0.917,0.652-1.287,1.45-0.826L226.857,171.531z" class="colorf283b5 svgShape"/><polygon fill="#ffffff" points="197.819 158.851 197.812 161.287 197.741 161.317 196.565 160.639 196.494 160.526 196.501 158.09" class="colorfff svgShape"/><path fill="#ffffff" d="M200.028,160.126c0.517,0.298,0.934,1.021,0.932,1.615l-0.013,4.442          c-0.002,0.594-0.422,0.823-0.938,0.525l-0.73-0.422l0.008-2.774l-0.356-0.206l-0.008,2.774l-0.775-0.447l0.007-2.426          c0.001-0.184-0.133-0.425-0.302-0.523l-1.416-0.818c-0.16-0.093-0.303-0.011-0.304,0.173l-0.007,2.425l-0.775-0.447          l0.008-2.774l-0.356-0.206l-0.008,2.774l-0.73-0.422c-0.517-0.298-0.925-1.006-0.923-1.599l0.013-4.442          c0.002-0.594,0.413-0.839,0.929-0.54l0.73,0.422l-0.008,2.774l0.356,0.206l0.008-2.774l0.775,0.447l-0.007,2.436          c0,0.184,0.142,0.42,0.302,0.512l1.416,0.818c0.169,0.098,0.303,0.022,0.304-0.163l0.007-2.436l0.775,0.447l-0.008,2.774          l0.356,0.206l0.008-2.774L200.028,160.126z" class="colorfff svgShape"/><polygon fill="#ffffff" points="197.736 162.894 197.807 163.007 197.801 165.432 196.482 164.671 196.489 162.245 196.561 162.215" class="colorfff svgShape"/><polygon fill="#ffffff" points="198.655 172.984 198.649 175.147 192.799 171.769 192.805 169.607" class="colorfff svgShape"/><polygon fill="#ffffff" points="207.095 177.857 207.089 180.02 201.246 176.646 201.252 174.484" class="colorfff svgShape"/><polygon fill="#ffffff" points="215.542 182.734 215.536 184.897 209.686 181.519 209.692 179.356" class="colorfff svgShape"/><polygon fill="#ffffff" points="223.982 187.606 223.976 189.769 218.126 186.392 218.132 184.229" class="colorfff svgShape"/><path fill="#ffffff" d="M222.236,173.012c1.363,0.787,2.458,2.684,2.454,4.25c-0.005,1.566-1.107,2.194-2.47,1.407          c-0.645-0.372-1.233-0.999-1.672-1.722c-0.483-0.795-0.785-1.708-0.782-2.528c0.002-0.821,0.308-1.381,0.794-1.618          C221.001,172.586,221.591,172.639,222.236,173.012z" class="colorfff svgShape"/><path fill="#3f528c" d="M218.886,171.077c0.649,0.375,1.237,1.001,1.675,1.724c-0.486,0.237-0.792,0.798-0.794,1.618          c-0.002,0.82,0.3,1.733,0.782,2.528c-0.44,0.215-1.03,0.162-1.679-0.212c-1.363-0.787-2.458-2.685-2.454-4.25          C216.42,170.919,217.523,170.29,218.886,171.077z" class="color3f528c svgShape"/></g><g fill="#000000" class="color000 svgShape"><polygon fill="#d3a5bb" points="60.464 158.974 81.035 147.02 80.981 163.957 60.41 175.911" class="colord3a5bb svgShape"/><polygon fill="#ffffff" points="73.12 163.331 79.465 159.644 79.448 163.071 73.104 166.758" class="colorfff svgShape"/><polygon fill="#f7d7e1" points="40.934 147.698 61.505 135.744 81.035 147.02 60.464 158.974" class="colorf7d7e1 svgShape"/><polygon fill="#ffffff" points="48.068 151.817 68.638 139.863 73.901 142.901 53.331 154.855" class="colorfff svgShape"/><polygon fill="#e2b3c7" points="60.464 158.974 60.41 175.911 40.88 164.636 40.934 147.698" class="colore2b3c7 svgShape"/><polygon fill="#eaeffa" points="48.068 151.817 48.014 157.551 53.277 160.589 53.331 154.855" class="coloreaeffa svgShape"/></g><g fill="#000000" class="color000 svgShape"><path fill="#f283b5" d="M204.484,81.74c-0.728,2.253,1.321,4.302,3.574,3.574c0.804-0.26,1.457-0.913,1.717-1.717    c0.728-2.253-1.321-4.302-3.574-3.574C205.397,80.283,204.744,80.936,204.484,81.74z" class="colorf283b5 svgShape"/><path fill="#edc3d2" d="M225.904,76.15c-0.728,2.253,1.321,4.302,3.574,3.574c0.804-0.26,1.457-0.913,1.717-1.717    c0.728-2.253-1.321-4.302-3.574-3.574C226.817,74.693,226.164,75.346,225.904,76.15z" class="coloredc3d2 svgShape"/><path fill="#8ca8f7" d="M193.485,43.338c-0.883,3.283,2.034,6.2,5.317,5.317c1.417-0.381,2.56-1.524,2.941-2.941    c0.882-3.283-2.034-6.2-5.317-5.317C195.009,40.778,193.865,41.922,193.485,43.338z" class="color8ca8f7 svgShape"/><path fill="#f283b5" d="M75.706,39.05c-0.883,3.283,2.034,6.2,5.317,5.317c1.417-0.381,2.56-1.524,2.94-2.941    c0.883-3.283-2.034-6.2-5.317-5.317C77.23,36.49,76.087,37.633,75.706,39.05z" class="colorf283b5 svgShape"/><path fill="#edc3d2" d="M46.919,77.429c-0.695,2.151,1.261,4.107,3.412,3.412c0.768-0.248,1.391-0.872,1.639-1.64    c0.695-2.151-1.261-4.107-3.412-3.412C47.79,76.038,47.167,76.661,46.919,77.429z" class="coloredc3d2 svgShape"/><path fill="#8ca8f7" d="M154.767,252.284c-0.882,3.283,2.034,6.199,5.317,5.317c1.417-0.381,2.56-1.524,2.94-2.941    c0.883-3.283-2.034-6.2-5.317-5.317C156.291,249.724,155.148,250.867,154.767,252.284z" class="color8ca8f7 svgShape"/><path fill="#f283b5" d="M242.579,216.845c-2.168,8.846,5.613,16.627,14.459,14.459c4.146-1.016,7.459-4.33,8.475-8.475    c2.168-8.846-5.613-16.627-14.459-14.459C246.909,209.386,243.594,212.7,242.579,216.845z" class="colorf283b5 svgShape"/></g></svg>