<svg xmlns="http://www.w3.org/2000/svg" enable-background="new 0 0 750 700" viewBox="0 0 750 700"><path fill="#d4e3f6" d="M87.749 609.178h155.232v1.001H87.749z" transform="rotate(-34.341 165.365 609.678)" class="colord4e3f6 svgShape"/><path fill="#d4e3f6" d="M228.964 609.179H358.51v.999H228.964z" transform="rotate(-42.545 293.737 609.678)" class="colord4e3f6 svgShape"/><path fill="#d4e3f6" d="M373.34 608.605h130.521v.999H373.34z" transform="rotate(-42.861 438.6 609.105)" class="colord4e3f6 svgShape"/><path fill="#d4e3f6" d="M516.345 605.075H655.42v1H516.345z" transform="rotate(-43.535 585.883 605.575)" class="colord4e3f6 svgShape"/><path fill="#d4e3f6" d="M50.473 632.083h650v1h-650zM50.473 595.824h650v1h-650z" class="colord4e3f6 svgShape"/><path fill="#98b1e6" d="M573.49 583.277c-20.477 0-41.216-5.712-62.701-11.63-17.912-4.935-36.434-10.037-55.31-11.792-34.961-3.256-69.685.857-103.266 4.833-42.623 5.046-86.7 10.262-130.365-.057-47.628-11.26-84.91-29.586-110.813-54.467-14.99-14.392-26.338-31.763-32.82-50.232-6.874-19.582-7.84-39.502-2.797-57.605 2.81-10.086 7.452-19.757 11.942-29.11 3.01-6.27 6.123-12.753 8.652-19.299 5.344-13.8 9.725-33.686.245-50.05-4.811-8.294-12.686-14.74-20.302-20.975-7.443-6.095-15.14-12.396-20.085-20.469-7.683-12.546-8.42-29.363-2.023-46.14 5.72-15.028 15.884-28.084 25.713-40.709 23.207-29.846 49.51-63.674 86.467-83.7 18.543-10.04 40.178-15.615 60.92-15.7h.48c22.47 0 42.161 6.367 56.981 18.43 10.853 8.841 18.78 20.42 26.447 31.619 8.26 12.064 16.8 24.54 28.97 33.456 20.295 14.869 50.407 19.325 82.605 12.226 22.372-4.922 43.496-14.434 63.925-23.633 5.29-2.382 10.761-4.845 16.166-7.19 24.51-10.63 53.615-21.295 83.666-19.744 26.783 1.379 52.97 13.176 73.739 33.219 19.963 19.264 33.197 44.128 37.261 70.009 3.877 24.689.836 50.58-9.04 76.954-8.835 23.59-23.265 47.335-41.732 68.666-3.74 4.32-7.689 8.624-11.506 12.787-11.02 12.015-22.416 24.44-30.134 38.676-9.312 17.192-14.197 42.212.019 60.876 4.912 6.44 11.867 11.745 18.593 16.873 10.138 7.73 20.622 15.724 23.687 27.576 5.277 20.4-14.707 39.267-36.853 48.917-12.218 5.322-24.427 7.385-36.732 7.385zm-144.555-25.6c8.852 0 17.733.353 26.636 1.182 18.964 1.764 37.53 6.877 55.483 11.823 34.22 9.426 66.542 18.33 98.768 4.294 21.756-9.48 41.413-27.922 36.283-47.751-2.978-11.517-12.861-19.052-23.325-27.03-6.778-5.17-13.788-10.514-18.782-17.063-14.505-19.042-9.563-44.491-.102-61.959 7.777-14.344 19.214-26.814 30.276-38.875 3.813-4.157 7.757-8.457 11.487-12.766 39.42-45.535 57.842-98.316 50.54-144.811-8.586-54.675-56.932-99.648-110.063-102.384-29.837-1.532-58.814 9.081-83.217 19.664-5.399 2.34-10.866 4.803-16.153 7.184-20.476 9.22-41.648 18.753-64.12 23.698-32.481 7.162-62.884 2.643-83.412-12.397-12.307-9.016-20.897-21.563-29.204-33.697-7.627-11.14-15.513-22.659-26.254-31.408-33.517-27.284-84.287-20.486-117.273-2.627-36.772 19.926-63.007 53.666-86.154 83.435-9.784 12.568-19.901 25.563-25.567 40.45-6.287 16.486-5.58 32.983 1.94 45.263 4.857 7.928 12.488 14.175 19.867 20.216 7.684 6.292 15.63 12.797 20.533 21.247 9.679 16.708 5.245 36.91-.177 50.914-2.544 6.582-5.665 13.084-8.683 19.372-4.471 9.313-9.094 18.944-11.88 28.944-9.886 35.481 3.658 76.423 35.346 106.848 25.772 24.755 62.9 42.996 110.35 54.215 43.496 10.278 87.48 5.072 130.018.036 25.093-2.97 50.828-6.016 76.84-6.016z" class="color98b1e6 svgShape"/><path fill="#d4e3f6" d="m262.022 606.872-.654 26.868-23.126 2.542-5.13-3.414-.797-11.916.612-25.212z" class="colord4e3f6 svgShape"/><linearGradient id="a" x1="137.815" x2="105.103" y1="49.624" y2="91.405" gradientTransform="rotate(1.388 -23322.043 6050.56)" gradientUnits="userSpaceOnUse"><stop offset="0" stop-color="#191923" class="stopColor191923 svgShape"/><stop offset="1" stop-color="#0c0c14" class="stopColor0c0c14 svgShape"/></linearGradient><path fill="url(#a)" d="M299.169 648.822h-.013a20.625 20.625 0 0 1-.88 2.365 4.398 4.398 0 0 1-3.072 2.512c-.667.143-1.386.284-2.132.4-16.219 2.656-49.943-.247-60.489-1.272a4.444 4.444 0 0 1-3.959-3.545c-.19-.92-.354-1.799-.518-2.678-2.135-12.586-2.083-23.978 4.204-25.655 1.535-.4 2.897 5.256 4.497 6.528 3.617 2.887 11.16 4.105 15.823 2.176.885-.376 1.652-.849 2.29-1.443 2.77-2.626.344-11.438 7.895-10.512 6.414.78 5.46 5.677 6.503 8.037.766 1.755 1.993 3.125 3.491 4.236 6.477 4.706 18.33 4.358 23.58 7.722.483.303.913.645 1.275 1.026 2.845 2.986 2.428 7.049 1.505 10.103z"/><linearGradient id="b" x1="113.897" x2="134.078" y1="54.125" y2="54.125" gradientTransform="rotate(1.388 -23322.043 6050.56)" gradientUnits="userSpaceOnUse"><stop offset="0" stop-color="#191923" class="stopColor191923 svgShape"/><stop offset="1" stop-color="#0c0c14" class="stopColor0c0c14 svgShape"/></linearGradient><path fill="url(#b)" d="M272.81 629.97c-.201.05-.44.083-.732.063-1.788-.084-3.212-.45-4.99.143-1.846.619-3.49 1.693-5.273 2.459-1.782.765-3.848 1.192-5.648.46-1.55-.635-2.63-2.014-3.537-3.442.885-.376 1.652-.849 2.29-1.443 2.77-2.626.344-11.438 7.895-10.512 6.414.78 5.46 5.677 6.503 8.037.766 1.755 1.993 3.125 3.491 4.236z"/><path fill="#ea4234" d="M299.165 648.827h-.013a20.637 20.637 0 0 1-.88 2.366 4.397 4.397 0 0 1-3.072 2.511c-.667.144-1.386.285-2.132.4-16.22 2.656-49.943-.246-60.488-1.271a4.445 4.445 0 0 1-3.96-3.545c-.19-.92-.354-1.8-.518-2.68l.013-.012s32.175 3.817 54.354 3.731a8.683 8.683 0 0 0 8.336-6.359c.293-1.062.616-2.012.941-2.602.737-1.375 1.763-2.677 3.184-3.305.47-.2.95-.322 1.455-.363.483.304.912.646 1.275 1.026 2.845 2.987 2.428 7.049 1.505 10.103z" class="colorea4234 svgShape"/><linearGradient id="c" x1="132.485" x2="145.612" y1="62.663" y2="62.663" gradientTransform="rotate(1.388 -23322.043 6050.56)" gradientUnits="userSpaceOnUse"><stop offset="0" stop-color="#ececec" class="stopColorececec svgShape"/><stop offset=".987" stop-color="#e0e0e0" class="stopColore0e0e0 svgShape"/></linearGradient><path fill="url(#c)" d="M283.869 639.513h-.01a.25.25 0 0 1-.24-.26c.113-2.703-1.74-5.095-2.026-5.447-4.119-1.673-10.096 1.503-10.157 1.535l-.343-.33c2.01-4.095 1.755-5.058 1.743-5.097a.243.243 0 0 1 .13-.323.258.258 0 0 1 .333.134c.07.159.317 1.113-1.44 4.85 1.72-.808 6.425-2.699 9.983-1.207l.093.068c.095.109 2.313 2.723 2.184 5.838a.25.25 0 0 1-.25.239z"/><linearGradient id="d" x1="124.421" x2="148.958" y1="62.254" y2="62.254" gradientTransform="rotate(1.388 -23322.043 6050.56)" gradientUnits="userSpaceOnUse"><stop offset="0" stop-color="#ececec" class="stopColorececec svgShape"/><stop offset=".987" stop-color="#e0e0e0" class="stopColore0e0e0 svgShape"/></linearGradient><path fill="url(#d)" d="m276.637 637.44-.265-.027c-.649-.508-1.01-1.145-1.076-1.893-.12-1.367.79-2.721 1.225-3.283-5.36-2.156-13.028-.638-13.106-.622a.254.254 0 0 1-.295-.195.25.25 0 0 1 .196-.295c.332-.066 8.199-1.623 13.711.782l.086.397c-.015.016-1.455 1.642-1.32 3.174.05.557.308 1.043.769 1.443 1.034-.494 7.005-3.231 10.819-2.363a.25.25 0 0 1-.11.488c-3.925-.888-10.567 2.361-10.634 2.394z"/><linearGradient id="e" x1="118.951" x2="138.548" y1="53.667" y2="53.667" gradientTransform="rotate(1.388 -23322.043 6050.56)" gradientUnits="userSpaceOnUse"><stop offset="0" stop-color="#ececec" class="stopColorececec svgShape"/><stop offset=".987" stop-color="#e0e0e0" class="stopColore0e0e0 svgShape"/></linearGradient><path fill="url(#e)" d="M265.676 630.339c-2.506 0-5.559-.32-7.03-1.71-.648-.614-.943-1.386-.876-2.296.063-.845.4-1.406 1.003-1.67 2.427-1.061 8.616 3.49 10.205 4.706.159-1.604.87-6.835 3.483-8.517.952-.615 2.052-.693 3.27-.23 1.08.408 1.659 1.016 1.723 1.804.24 2.976-7.47 7.458-7.799 7.647l-.092.032c-.151.02-1.836.234-3.887.234zm3.854-.482h.006-.006zm-9.874-4.86a1.7 1.7 0 0 0-.682.124c-.425.187-.656.595-.705 1.25-.057.762.179 1.382.721 1.894 1.996 1.886 7.439 1.627 9.602 1.437-2.15-1.644-6.657-4.706-8.936-4.706zm14.582-4.169c-.543 0-1.046.148-1.506.444-2.508 1.614-3.157 7.086-3.273 8.337 2.198-1.276 7.673-4.95 7.496-7.143-.047-.58-.518-1.042-1.4-1.377-.461-.174-.9-.26-1.317-.26z"/><linearGradient id="f" x1="246.732" x2="246.732" y1="600.256" y2="612.033" gradientUnits="userSpaceOnUse"><stop offset="0" stop-color="#30355c" class="stopColor30355c svgShape"/><stop offset=".997" stop-color="#262c51" class="stopColor262c51 svgShape"/></linearGradient><path fill="url(#f)" d="M265.28 610.415c.388 3.818-14.48 5.976-24.866 5.349-.223-.011-.435-.032-.638-.042-.394-.031-.769-.072-1.133-.104-.284-.03-.567-.061-.84-.092-.071-.02-.152-.02-.223-.031a26.999 26.999 0 0 1-2.075-.338c-2.813-.562-4.695-1.467-4.834-2.783l-1.846-13.956-.649-4.911 3.96-.357 2.561-.238.456-.04 1.225-.109 1.094-.099.88-.08 25.995-2.39c0 .223.085 3.24.21 6.957.173 4.657.435 10.419.723 13.264z"/><linearGradient id="g" x1="159.996" x2="268.89" y1="479.368" y2="479.368" gradientUnits="userSpaceOnUse"><stop offset="0" stop-color="#30355c" class="stopColor30355c svgShape"/><stop offset=".997" stop-color="#262c51" class="stopColor262c51 svgShape"/></linearGradient><path fill="url(#g)" d="M268.89 591.49c-.024 12.483-47.426 12.392-47.402-.092 0 0-9.046-87.228-16.896-106.146-8.849-21.36-44.596-96.51-44.596-96.51l35.708-30.812 20.813 6.662s31.512 87.475 38.46 112.263c5.923 21.161 13.913 114.634 13.913 114.634z"/><linearGradient id="h" x1="176.461" x2="238.643" y1="503.684" y2="503.684" gradientUnits="userSpaceOnUse"><stop offset="0" stop-color="#191923" class="stopColor191923 svgShape"/><stop offset="1" stop-color="#0c0c14" class="stopColor0c0c14 svgShape"/></linearGradient><path fill="url(#h)" d="M238.643 615.618c-.284-.03-.567-.061-.84-.092-.071-.02-.152-.02-.223-.031a26.999 26.999 0 0 1-2.075-.338l-2.38-15.546-.99-6.461-12.37-111.432-43.304-88.941 2.857-1.027 43.405 89.224.02.142 12.41 111.756 1.12 7.302 2.37 15.444z"/><path fill="#d4e3f6" d="m160.23 606.872-7.772 26.868-23.8 2.542-4.225-3.414 2.36-11.916 7.291-25.212z" class="colord4e3f6 svgShape"/><linearGradient id="i" x1="1986.679" x2="1953.968" y1="4.683" y2="46.465" gradientTransform="matrix(.99327 .0243 -.28914 .9997 -1800.855 568.499)" gradientUnits="userSpaceOnUse"><stop offset="0" stop-color="#191923" class="stopColor191923 svgShape"/><stop offset="1" stop-color="#0c0c14" class="stopColor0c0c14 svgShape"/></linearGradient><path fill="url(#i)" d="M186.263 648.822h-.013a28.309 28.309 0 0 1-1.507 2.365c-.915 1.286-2.298 2.214-3.737 2.512-.705.143-1.462.284-2.238.4-16.922 2.656-49.877-.247-60.151-1.272-1.911-.18-3.142-1.612-3.02-3.545.053-.92.122-1.799.19-2.678 1.2-12.586 4.27-23.978 11.002-25.655 1.64-.4 1.503 5.256 2.767 6.528 2.852 2.887 10.073 4.105 15.247 2.176.984-.376 1.876-.849 2.672-1.443 3.465-2.626 3.374-11.438 10.68-10.512 6.207.78 3.955 5.677 4.373 8.037.301 1.755 1.165 3.125 2.37 4.236 5.23 4.706 17.174 4.358 21.533 7.722.403.303.742.645 1.003 1.026 2.054 2.986.561 7.049-1.171 10.103z"/><linearGradient id="j" x1="1962.762" x2="1982.943" y1="9.184" y2="9.184" gradientTransform="matrix(.99327 .0243 -.28914 .9997 -1800.855 568.499)" gradientUnits="userSpaceOnUse"><stop offset="0" stop-color="#191923" class="stopColor191923 svgShape"/><stop offset="1" stop-color="#0c0c14" class="stopColor0c0c14 svgShape"/></linearGradient><path fill="url(#j)" d="M164.897 629.97a2.535 2.535 0 0 1-.747.063c-1.767-.084-3.093-.45-5.029.143-2.009.619-3.938 1.693-5.923 2.459-1.985.765-4.165 1.192-5.77.46-1.381-.635-2.097-2.014-2.625-3.442.984-.376 1.876-.849 2.672-1.443 3.465-2.626 3.374-11.438 10.68-10.512 6.207.78 3.955 5.677 4.373 8.037.301 1.755 1.165 3.125 2.37 4.236z"/><path fill="#ea4234" d="M186.258 648.827h-.014a28.308 28.308 0 0 1-1.506 2.366c-.916 1.286-2.298 2.213-3.737 2.511a41.82 41.82 0 0 1-2.238.4c-16.923 2.656-49.878-.246-60.152-1.271-1.91-.18-3.141-1.613-3.02-3.545.054-.92.123-1.8.191-2.68l.017-.012s31.164 3.817 53.365 3.731c3.89-.015 7.995-2.613 10.02-6.359.575-1.062 1.15-2.012 1.632-2.602 1.1-1.375 2.472-2.677 4.06-3.305a5.52 5.52 0 0 1 1.55-.363c.403.304.741.646 1.003 1.026 2.054 2.987.56 7.049-1.171 10.103z" class="colorea4234 svgShape"/><linearGradient id="k" x1="1981.334" x2="1994.486" y1="17.721" y2="17.721" gradientTransform="matrix(.99327 .0243 -.28914 .9997 -1800.855 568.499)" gradientUnits="userSpaceOnUse"><stop offset="0" stop-color="#ececec" class="stopColorececec svgShape"/><stop offset=".987" stop-color="#e0e0e0" class="stopColore0e0e0 svgShape"/></linearGradient><path fill="url(#k)" d="M173.495 639.513a.251.251 0 0 1-.24-.323c.812-2.645-.339-4.983-.561-5.398-3.675-1.655-10.477 1.523-10.546 1.555l-.306-.376c3.094-4.095 3.107-5.08 3.107-5.12-.025-.136.066-.255.202-.28.133-.028.267.076.292.211.029.158.023 1.097-2.641 4.736 2.021-.83 7.07-2.609 10.177-1.146l.108.099c.066.11 1.604 2.744.648 5.865a.25.25 0 0 1-.24.177z"/><linearGradient id="l" x1="1973.275" x2="1997.833" y1="17.317" y2="17.317" gradientTransform="matrix(.99327 .0243 -.28914 .9997 -1800.855 568.499)" gradientUnits="userSpaceOnUse"><stop offset="0" stop-color="#ececec" class="stopColorececec svgShape"/><stop offset=".987" stop-color="#e0e0e0" class="stopColore0e0e0 svgShape"/></linearGradient><path fill="url(#l)" d="m166.795 637.445-.276-.051a2.042 2.042 0 0 1-.636-1.576c.051-1.476 1.49-3.013 2.115-3.613-4.784-2.11-12.786-.605-12.868-.59-.136.035-.267-.061-.293-.198a.25.25 0 0 1 .198-.292c.35-.07 8.63-1.625 13.518.787l.052.414c-.022.019-2.166 1.882-2.222 3.51-.014.414.108.77.375 1.081 1.159-.492 7.853-3.219 11.435-2.358a.25.25 0 0 1-.118.486c-3.693-.892-11.205 2.367-11.28 2.4z"/><linearGradient id="m" x1="1967.805" x2="1987.42" y1="8.726" y2="8.726" gradientTransform="matrix(.99327 .0243 -.28914 .9997 -1800.855 568.499)" gradientUnits="userSpaceOnUse"><stop offset="0" stop-color="#ececec" class="stopColorececec svgShape"/><stop offset=".987" stop-color="#e0e0e0" class="stopColore0e0e0 svgShape"/></linearGradient><path fill="url(#m)" d="M157.751 630.338c-2.504 0-5.48-.32-6.615-1.71-.519-.634-.622-1.427-.306-2.356.321-.948.892-1.522 1.696-1.708 2.75-.64 7.463 3.665 8.675 4.83.554-1.54 2.788-7.23 6.046-8.713.997-.453 2.004-.472 2.996-.056.852.359 1.294.871 1.316 1.524.095 2.898-8.786 7.424-9.799 7.931l-.08.025c-.155.02-1.885.233-3.929.233zm3.897-.481h.007-.007zm-8.51-4.86c-.173 0-.34.017-.5.054-.632.146-1.069.599-1.335 1.38-.26.767-.188 1.383.22 1.88 1.526 1.87 7.134 1.569 9.265 1.382-1.182-1.122-5.147-4.697-7.65-4.697zm15.674-4.17c-.453 0-.906.103-1.358.309-3.04 1.383-5.24 6.946-5.78 8.428 2.765-1.4 9.456-5.252 9.385-7.399-.014-.446-.345-.799-1.01-1.079a3.158 3.158 0 0 0-1.237-.259z"/><linearGradient id="n" x1="2096.146" x2="2096.146" y1="600.256" y2="612.033" gradientTransform="matrix(1 0 -.26492 1 -1790.433 0)" gradientUnits="userSpaceOnUse"><stop offset="0" stop-color="#30355c" class="stopColor30355c svgShape"/><stop offset=".997" stop-color="#262c51" class="stopColor262c51 svgShape"/></linearGradient><path fill="url(#n)" d="M162.549 610.415c-.624 3.818-16.063 5.976-26.283 5.349-.22-.011-.427-.032-.627-.042-.386-.031-.75-.072-1.106-.104-.275-.03-.55-.061-.815-.092-.066-.02-.147-.02-.215-.031a23.756 23.756 0 0 1-1.985-.338c-2.665-.562-4.307-1.467-4.097-2.783l1.85-13.956.653-4.911 4.054-.357 2.625-.238.466-.04 1.255-.109 1.12-.099.901-.08 26.628-2.39c-.06.223-.774 3.24-1.634 6.957-1.06 4.657-2.324 10.419-2.79 13.264z"/><linearGradient id="o" x1="2009.41" x2="2118.304" y1="479.368" y2="479.368" gradientTransform="matrix(1 0 -.26492 1 -1790.433 0)" gradientUnits="userSpaceOnUse"><stop offset="0" stop-color="#30355c" class="stopColor30355c svgShape"/><stop offset=".997" stop-color="#262c51" class="stopColor262c51 svgShape"/></linearGradient><path fill="url(#o)" d="M171.173 591.49c-3.331 12.483-50.71 12.392-47.378-.092 0 0 14.063-87.228 11.224-106.146-3.19-21.36-19.028-96.51-19.028-96.51l43.87-30.812 19.049 6.662s8.337 87.475 8.719 112.263c.316 21.161-16.456 114.634-16.456 114.634z"/><linearGradient id="p" x1="2025.875" x2="2088.057" y1="503.684" y2="503.684" gradientTransform="matrix(1 0 -.26492 1 -1790.433 0)" gradientUnits="userSpaceOnUse"><stop offset="0" stop-color="#191923" class="stopColor191923 svgShape"/><stop offset="1" stop-color="#0c0c14" class="stopColor0c0c14 svgShape"/></linearGradient><path fill="url(#p)" d="M134.533 615.618c-.275-.03-.55-.061-.815-.092-.066-.02-.147-.02-.215-.031a23.756 23.756 0 0 1-1.985-.338l1.738-15.546.722-6.461 17.15-111.432-19.741-88.941 3.13-1.027 19.766 89.224-.017.142-17.197 111.756-.814 7.302-1.722 15.444z"/><path fill="#aecbfa" d="M692.413 84.249h-72.19l3.713 353.54h24.7c3.763 0 7.216-3.042 7.722-6.805L698.31 91.015c.5-3.723-2.134-6.766-5.897-6.766z" class="coloraecbfa svgShape"/><path fill="#d4e3f6" d="M686.222 91.015 644.27 430.983c-.506 3.764-3.959 6.807-7.722 6.807H316.902c-3.763 0-6.397-3.043-5.891-6.807l41.952-339.968c.5-3.723 3.953-6.766 7.717-6.766h319.645c3.763 0 6.398 3.043 5.897 6.766z" class="colord4e3f6 svgShape"/><ellipse cx="621.259" cy="102.383" fill="#4285f4" rx="6.068" ry="4.87" transform="rotate(-41.855 621.259 102.383)" class="color4285f4 svgShape"/><ellipse cx="641.477" cy="102.383" fill="#ea4234" rx="6.068" ry="4.87" transform="rotate(-41.855 641.477 102.383)" class="colorea4234 svgShape"/><ellipse cx="661.696" cy="102.383" fill="#58a65f" rx="6.068" ry="4.87" transform="rotate(-41.855 661.696 102.383)" class="color58a65f svgShape"/><path fill="#aecbfa" d="M618.992 125.101h29.074c7.852 0 13.309 6.374 12.2 14.226l-24.73 175.056c-1.108 7.851-8.366 14.225-16.218 14.225h-29.074L618.992 125.1z" class="coloraecbfa svgShape"/><path fill="#ffffff" d="m368.62 139.327-24.729 175.056c-1.109 7.851 4.365 14.225 12.217 14.225h257.84c7.852 0 15.11-6.374 16.219-14.225l24.728-175.056c1.11-7.852-4.347-14.226-12.2-14.226h-257.84c-7.851 0-15.126 6.374-16.235 14.226z" class="colorfff svgShape"/><path fill="#98b1e6" d="m370.958 314.383 24.73-175.056c1.108-7.851 8.383-14.226 16.235-14.226h-27.067c-7.852 0-15.126 6.375-16.236 14.226l-24.729 175.056c-1.109 7.851 4.365 14.225 12.217 14.225h27.067c-7.853 0-13.326-6.374-12.217-14.225z" class="color98b1e6 svgShape"/><path fill="#d4e3f6" d="M633.296 287.922h-258.6l-28.83 12.478h286.276l1.154-8.171" class="colord4e3f6 svgShape"/><path fill="#aecbfa" d="m345.745 301.26-.343 2.431h286.275l.465-3.29H345.867z" class="coloraecbfa svgShape"/><path fill="#d4e3f6" d="M358.966 207.672H645.24l1.154-12.479h-258.6z" class="colord4e3f6 svgShape"/><path fill="#aecbfa" d="m358.844 208.531-.343 2.431h286.275l.465-3.29H358.966z" class="coloraecbfa svgShape"/><path fill="#30355c" d="M328.646 325.75c.02 0 .04-.01.06-.01l.04-.01c.12-.03.19-.05.25-.07l.26-.06s.84-.24 2.28-.67c4.69 1.47 10.96 2.33 16.96 2.33 5.8 0 11.35-.8 15.02-2.62 4.62-2.3 6.03-5.8 6.45-7.68l7.67-33.89v-.01c.48-2.12.28-4.3-.57-6.25l-4.13-12.31.52-2.3c.68-3.04.03-6.19-1.79-8.64-1.81-2.45-4.62-3.98-7.71-4.21l-10.19-.75c-5.61-.41-10.75 3.42-11.98 8.88l-.42 1.85c-2.73-.66-5.61-.48-8.46.55-.5.179-.996.393-1.487.625l-7.826 65.375c2.006.444 3.75.238 5.053-.13z" opacity=".1" class="color30355c svgShape"/><path fill="#98b1e6" d="M517.6 402.96h-65.147c-1.846 0-3.08-1.497-2.755-3.344l8.112-46.079c.325-1.846 2.086-3.343 3.932-3.343h65.147c1.846 0 3.08 1.497 2.754 3.343l-8.112 46.08c-.325 1.846-2.085 3.343-3.931 3.343z" class="color98b1e6 svgShape"/><path fill="#ffffff" d="M514.116 402.96H448.97c-1.847 0-3.08-1.497-2.755-3.344l8.112-46.079c.325-1.846 2.085-3.343 3.932-3.343h65.146c1.847 0 3.08 1.497 2.755 3.343l-8.112 46.08c-.325 1.846-2.085 3.343-3.932 3.343z" class="colorfff svgShape"/><ellipse cx="486.188" cy="377.032" fill="#6bb26e" rx="18.666" ry="15.533" transform="rotate(-42.372 486.187 377.032)" class="color6bb26e svgShape"/><path fill="#ffffff" d="M497.09 370.391c-1.068 1.381-2.232 2.642-3.419 3.874a77.99 77.99 0 0 1-3.685 3.55 94.324 94.324 0 0 1-7.902 6.445l-.15.11c-.444.323-1.01.275-1.265-.11a42.514 42.514 0 0 1-1.534-2.523c-.477-.87-1.675-3.298-2.053-4.25.85.556 2.353 2.723 3.106 3.36.373.323.74.649 1.1.983.117.11.234.218.351.33a95.43 95.43 0 0 1 6.968-6.034 81.241 81.241 0 0 1 4.108-3.029c1.41-.96 2.842-1.894 4.375-2.706z" class="colorfff svgShape"/><path fill="#f29c03" d="m439.086 165.896 8.104-18.446-28.789-.173-7.787 12.447z" class="colorf29c03 svgShape"/><path fill="#f29c03" d="m445.17 200.327 5.95-39.646h-11.835l-5.951 41.646z" class="colorf29c03 svgShape"/><path fill="#fbbc04" d="m433.334 202.327 5.95-41.646-28.672-.956-6.095 40.602zM451.12 160.68h-11.835l7.904-13.231zM418.401 147.277l28.788.172.893-5.951-28.787-.174z" class="colorfbbc04 svgShape"/><path fill="#f29c03" d="m496.807 165.896 8.104-18.446-28.789-.173-7.787 12.447z" class="colorf29c03 svgShape"/><path fill="#f29c03" d="m502.89 200.327 5.952-39.646h-11.837l-5.95 41.646z" class="colorf29c03 svgShape"/><path fill="#fbbc04" d="m491.054 202.327 5.951-41.646-28.672-.956-6.095 40.602zM508.842 160.68h-11.837l7.905-13.231zM476.122 147.277l28.788.172.893-5.951-28.787-.174z" class="colorfbbc04 svgShape"/><path fill="#98b1e6" d="m554.528 165.896 8.104-18.446-28.789-.173-7.788 12.447z" class="color98b1e6 svgShape"/><path fill="#98b1e6" d="m560.612 200.327 5.95-39.646h-11.836l-5.95 41.646z" class="color98b1e6 svgShape"/><path fill="#aecbfa" d="m548.775 202.327 5.951-41.646-28.672-.956-6.095 40.602zM566.563 160.68h-11.837l7.905-13.231zM533.843 147.277l28.788.172.893-5.951-28.787-.174z" class="coloraecbfa svgShape"/><path fill="#98b1e6" d="m612.249 165.896 8.104-18.446-28.789-.173-7.788 12.447z" class="color98b1e6 svgShape"/><path fill="#98b1e6" d="m618.333 200.327 5.95-39.646h-11.836l-5.95 41.646z" class="color98b1e6 svgShape"/><path fill="#aecbfa" d="m606.496 202.327 5.951-41.646-28.672-.956-6.095 40.602zM624.284 160.68h-11.837l7.905-13.231zM591.564 147.277l28.788.172.893-5.951-28.787-.174z" class="coloraecbfa svgShape"/><path fill="#30355c" d="M426.202 243.19h-8.984c-1.428 0-2.758 1.158-2.973 2.585l-.599 3.99H427.8l.599-3.99c.214-1.427-.77-2.584-2.197-2.584z" class="color30355c svgShape"/><path fill="#ea4234" d="m404.482 262.49 9.164-12.724H427.8l5.344 12.723c.245.364.34.821.269 1.293l-4.532 30.19c-.92 6.132-30.508 6.132-29.588 0l4.532-30.19c.07-.471.303-.928.657-1.293z" class="colorea4234 svgShape"/><path fill="#d4e3f6" d="m433.226 265.029-2.98 19.856h-29.588l2.98-19.856z" class="colord4e3f6 svgShape"/><path fill="#30355c" d="M483.074 243.19h-8.985c-1.427 0-2.758 1.158-2.972 2.585l-.6 3.99h14.154l.6-3.99c.213-1.427-.77-2.584-2.197-2.584z" class="color30355c svgShape"/><path fill="#ea4234" d="m461.354 262.49 9.164-12.724h14.153l5.345 12.723c.244.364.34.821.268 1.293l-4.531 30.19c-.92 6.132-30.508 6.132-29.588 0l4.531-30.19c.071-.471.304-.928.658-1.293z" class="colorea4234 svgShape"/><path fill="#d4e3f6" d="m490.098 265.029-2.981 19.856h-29.588l2.98-19.856z" class="colord4e3f6 svgShape"/><path fill="#30355c" d="M539.945 243.19h-8.984c-1.428 0-2.759 1.158-2.973 2.585l-.599 3.99h14.154l.599-3.99c.214-1.427-.77-2.584-2.197-2.584z" class="color30355c svgShape"/><path fill="#58a65f" d="m518.225 262.49 9.164-12.724h14.153l5.345 12.723c.245.364.34.821.269 1.293l-4.532 30.19c-.92 6.132-30.508 6.132-29.588 0l4.532-30.19c.07-.471.303-.928.657-1.293z" class="color58a65f svgShape"/><path fill="#d4e3f6" d="m546.969 265.029-2.98 19.856H514.4l2.981-19.856z" class="colord4e3f6 svgShape"/><path fill="#30355c" d="M596.816 243.19h-8.984c-1.427 0-2.758 1.158-2.972 2.585l-.6 3.99h14.154l.599-3.99c.214-1.427-.77-2.584-2.197-2.584z" class="color30355c svgShape"/><path fill="#58a65f" d="m575.096 262.49 9.165-12.724h14.153l5.344 12.723c.245.364.34.821.27 1.293l-4.532 30.19c-.92 6.132-30.509 6.132-29.588 0l4.531-30.19c.071-.471.303-.928.657-1.293z" class="color58a65f svgShape"/><path fill="#d4e3f6" d="m603.84 265.029-2.98 19.856h-29.588l2.98-19.856z" class="colord4e3f6 svgShape"/><linearGradient id="q" x1="-787.321" x2="-693.002" y1="514.611" y2="514.611" gradientTransform="matrix(.98639 -.16443 .16443 .98638 1083.168 -110.894)" gradientUnits="userSpaceOnUse"><stop offset="0" stop-color="#ea4234" class="stopColorea4234 svgShape"/><stop offset=".997" stop-color="#d32118" class="stopColord32118 svgShape"/></linearGradient><path fill="url(#q)" d="m483.19 552.979-77.309 12.888a7.972 7.972 0 0 1-9.173-6.553l-11.05-66.287a7.972 7.972 0 0 1 6.552-9.174l77.308-12.887a7.972 7.972 0 0 1 9.174 6.552l11.05 66.287a7.972 7.972 0 0 1-6.552 9.174z"/><path fill="#d4e3f6" d="M419.465 477.265h26.286v21.219h-26.286z" transform="rotate(-9.464 432.608 487.875)" class="colord4e3f6 svgShape"/><linearGradient id="r" x1="-883.246" x2="-775.339" y1="506.146" y2="506.146" gradientTransform="matrix(.98639 -.16443 .16443 .98638 1083.168 -110.894)" gradientUnits="userSpaceOnUse"><stop offset="0" stop-color="#fbbc04" class="stopColorfbbc04 svgShape"/><stop offset="1" stop-color="#f29c03" class="stopColorf29c03 svgShape"/></linearGradient><path fill="url(#r)" d="m401.567 564.076-90.713 15.122a7.972 7.972 0 0 1-9.173-6.552l-13.02-78.104a7.972 7.972 0 0 1 6.552-9.174l90.712-15.122a7.972 7.972 0 0 1 9.174 6.553l13.02 78.103a7.972 7.972 0 0 1-6.552 9.174z"/><path fill="#d4e3f6" d="M327.529 477.642h30.073v24.276h-30.073z" transform="rotate(-9.464 342.565 489.78)" class="colord4e3f6 svgShape"/><path fill="#30355c" d="M301.766 582.357a1.5 1.5 0 0 1-1.478-1.254l-24.343-146.53-.01-.057-5.283-31.8-28.446-12.27a1.5 1.5 0 1 1 1.189-2.753l29.197 12.594a1.5 1.5 0 0 1 .885 1.131l5.214 31.379h228.031a1.5 1.5 0 0 1 1.487 1.698l-15.457 116.217a1.501 1.501 0 0 1-1.25 1.283l-189.497 30.343c-.08.013-.16.019-.24.019zm-22.577-146.56 23.814 143.343 186.922-29.93 15.085-113.413H279.19z" class="color30355c svgShape"/><path fill="#30355c" d="m477.784 554.173-.083-.002a1.5 1.5 0 0 1-1.416-1.58l6.437-118.375c.045-.828.763-1.447 1.58-1.417a1.5 1.5 0 0 1 1.416 1.58l-6.438 118.375a1.5 1.5 0 0 1-1.496 1.419zM447.415 558.384l-.063-.001a1.5 1.5 0 0 1-1.436-1.562l5.09-122.587a1.488 1.488 0 0 1 1.56-1.436 1.5 1.5 0 0 1 1.437 1.561l-5.09 122.587a1.5 1.5 0 0 1-1.498 1.438zM419.62 562.572a1.5 1.5 0 0 1-1.5-1.5V434.297a1.5 1.5 0 0 1 3 0v126.775a1.5 1.5 0 0 1-1.5 1.5zM385.497 567.381a1.5 1.5 0 0 1-1.5-1.48l-1.817-131.583a1.5 1.5 0 0 1 1.48-1.521c.833.005 1.508.651 1.52 1.48l1.818 131.583a1.5 1.5 0 0 1-1.48 1.521h-.02zM357.579 573.42a1.5 1.5 0 0 1-1.488-1.324L339.88 434.473a1.5 1.5 0 0 1 1.315-1.665c.817-.116 1.568.49 1.665 1.313l16.212 137.623a1.5 1.5 0 0 1-1.492 1.676zM326.312 578.426a1.5 1.5 0 0 1-1.487-1.317l-17.634-142.628a1.5 1.5 0 0 1 2.977-.368l17.635 142.63a1.5 1.5 0 0 1-1.49 1.683z" class="color30355c svgShape"/><path fill="#30355c" d="M474.184 629.26H291.08a1.5 1.5 0 0 1-1.462-1.832l10.688-46.904a1.5 1.5 0 0 1 1.226-1.149l120.768-19.338a1.5 1.5 0 1 1 .475 2.963l-119.769 19.178-10.045 44.083h181.224a1.5 1.5 0 0 1 0 3zM295.844 546.704a1.5 1.5 0 0 1-.103-2.996l197.967-13.845c.827-.074 1.543.565 1.6 1.392a1.5 1.5 0 0 1-1.391 1.6L295.949 546.7c-.035.003-.07.004-.105.004zM289.67 509.543a1.5 1.5 0 0 1-.103-2.996l209.179-14.559a1.494 1.494 0 0 1 1.6 1.392 1.5 1.5 0 0 1-1.392 1.6l-209.179 14.56-.105.003zM283.13 470.179a1.5 1.5 0 0 1-.062-3l220.262-9.353c.832-.05 1.527.608 1.562 1.436a1.5 1.5 0 0 1-1.435 1.562l-220.262 9.354h-.064z" class="color30355c svgShape"/><circle cx="451.324" cy="640.648" r="12.887" fill="#30355c" class="color30355c svgShape"/><circle cx="346.413" cy="640.648" r="12.887" fill="#30355c" class="color30355c svgShape"/><path fill="#4285f4" d="M311.271 332.329s-54.45 32.713-77.615 24.29c-20.186-7.338-46.807-72.048-46.807-72.048l22.814-33.42s28.875 14.143 46.496 57.579l47.657-12.372c10.74-3.336 20.406 28.917 7.455 35.97z" class="color4285f4 svgShape"/><path fill="#ffd4cf" d="m197.622 213.87-6.011 27.894-.007.001-.107.513-2.926 13.566c3.14 8.381-12.95 3.955-30.47-1.42l8.381-44.167 5.543.646 25.597 2.968z" class="colorffd4cf svgShape"/><linearGradient id="s" x1="-1008.853" x2="-1008.853" y1="230.868" y2="224.607" gradientTransform="matrix(.98616 -.16582 .16581 .98616 1145.08 -151.053)" gradientUnits="userSpaceOnUse"><stop offset="0" stop-color="#ffd4cf" class="stopColorffd4cf svgShape"/><stop offset="1" stop-color="#f8b7b3" class="stopColorf8b7b3 svgShape"/></linearGradient><path fill="url(#s)" d="M197.622 213.87s-6.923 32.133-6.929 32.135c-.44-.194-17.132-12.054-20.616-27.168-.818-3.552.082-6.11 1.948-7.934l25.597 2.968z"/><path fill="#4285f4" d="M191.492 313.8c-1.334 14.88-3.571 30.467-6.725 43.572-4.195 17.488-9.99 30.537-17.373 31.515-12.336 2.244-45.056 8.971-51.893.23-.616-.79-1.02-1.53-1.17-2.209l11.285-48.633s-2.661-32.444.549-59.014c1.8-14.85 5.44-27.862 12.414-32.334 1.419-.919 8.254-3.702 9.824-3.85 10.602-1.003 25.094 4.565 36.055 11.592 2.286 1.463 4.186 3.096 5.529 4.87 3.353 4.421 3.833 28.235 1.505 54.26z" class="color4285f4 svgShape"/><path fill="#4285f4" d="M187.364 257.399s-38.92 21.612-36.416 29.497c10.723 33.749-6.496 105.715-6.496 105.715 8.13-.946 77.294-7.478 82.222-9.957-1.705-18.024 11.747-108.7-9.975-123.159 0 0-19.11-12.606-29.335-2.096z" class="color4285f4 svgShape"/><path fill="#ffd4cf" d="M208.727 179.27c8.149 18.48 10.2 51.146-4.51 56.215-14.075 4.839-31.751-3.052-34.533-18.408-.841.235-1.685.402-2.524.511-.007.017-.036.015-.052.009-7.486.414-14.966-8.138-10.329-14.762 2.116-3.025 4.646-3.33 6.882-2.637-1.73-6.217-2.86-12.33-2.084-16.513 1.032-5.527 12.658-18.589 12.658-18.589s17.809-1.806 26.34 3.595c3.355 2.113 6.08 5.895 8.152 10.58z" class="colorffd4cf svgShape"/><linearGradient id="t" x1="-2188.111" x2="-2110.267" y1="509.403" y2="509.403" gradientTransform="rotate(-23.145 -1791.277 -5333.678) skewX(-.001)" gradientUnits="userSpaceOnUse"><stop offset="0" stop-color="#191923" class="stopColor191923 svgShape"/><stop offset="1" stop-color="#0c0c14" class="stopColor0c0c14 svgShape"/></linearGradient><path fill="url(#t)" d="M205.65 159.752c.594 5.926 8.242 5.628 8.246 9.341.019 18.43-40.08 15.28-40.01 15.443 2.618 6.156-1.05 14.663-1.05 14.663l4.595 8.123-3.796 1.623c-3.818-8.608-9.974-8.747-9.974-8.747-2.236-.693-4.766-.388-6.882 2.637-4.637 6.624 2.843 15.176 10.329 14.762-24.185 3.23-38.672-42.057-18.468-54.321 15.476-22.176 55.476-18.72 57.01-3.524z"/><linearGradient id="u" x1="-994.691" x2="-990.617" y1="186.439" y2="186.439" gradientTransform="rotate(-9.654 -328.66 -6913.778)" gradientUnits="userSpaceOnUse"><stop offset="0" stop-color="#191923" class="stopColor191923 svgShape"/><stop offset="1" stop-color="#0c0c14" class="stopColor0c0c14 svgShape"/></linearGradient><path fill="url(#u)" d="M209.291 196.256c.68 1.607.44 3.343-.537 3.884-.976.54-2.314-.321-2.993-1.928-.675-1.597-.435-3.334.541-3.875.976-.54 2.314.322 2.99 1.919z"/><path fill="#0f0f17" d="M200.504 192.679a.75.75 0 0 1-.694-1.033c1.293-3.177 4.702-4.122 9.35-2.601a.75.75 0 0 1-.467 1.426c-2.732-.895-6.249-1.32-7.494 1.741a.75.75 0 0 1-.695.467z" class="color0f0f17 svgShape"/><linearGradient id="v" x1="-1013.112" x2="-1009.038" y1="188.909" y2="188.909" gradientTransform="rotate(-9.654 -328.66 -6913.778)" gradientUnits="userSpaceOnUse"><stop offset="0" stop-color="#191923" class="stopColor191923 svgShape"/><stop offset="1" stop-color="#0c0c14" class="stopColor0c0c14 svgShape"/></linearGradient><path fill="url(#v)" d="M191.545 201.78c.68 1.607.44 3.344-.537 3.884-.976.541-2.314-.321-2.993-1.928-.675-1.597-.435-3.333.541-3.874.976-.54 2.315.321 2.99 1.918z"/><path fill="#0f0f17" d="M183.395 200.484a.75.75 0 0 1-.696-1.03c1.772-4.404 4.971-6.7 9.026-6.43a.75.75 0 0 1 .701.795c-.027.413-.366.744-.796.7-3.352-.19-6.028 1.74-7.539 5.495a.75.75 0 0 1-.696.47z" class="color0f0f17 svgShape"/><path fill="#f8b7b3" d="M196.762 200.456c.247.952.707 1.808 1.171 2.631.47.817 1.002 1.591 1.609 2.208.31.3.62.57.95.751.164.09.328.162.49.203.08.027.162.038.241.05l.369.074c1.04.21 2.096.57 3.028 1.232.93.635 1.746 1.604 2.065 2.797.335 1.18.075 2.563-.735 3.473-.779.947-1.935 1.346-2.978 1.439a6.517 6.517 0 0 1-2.99-.556c.995.01 1.961-.064 2.823-.34.854-.277 1.584-.77 1.975-1.417a2.403 2.403 0 0 0 .198-2.085c-.26-.678-.766-1.292-1.447-1.743-.665-.468-1.485-.78-2.34-.998l-.344-.088a3.908 3.908 0 0 1-1.28-.593 5.013 5.013 0 0 1-1.21-1.203c-.646-.884-1.05-1.848-1.33-2.828-.243-.982-.468-2.003-.265-3.007zM201.6 226.275l-.083.014c-2.221.354-5.446-.683-7.16-1.847a.718.718 0 1 1 .807-1.189c1.463.994 4.339 1.903 6.126 1.617 1.742-.288 2.223-1.01 2.36-1.421a.718.718 0 1 1 1.363.452c-.237.713-.995 1.963-3.413 2.374z" class="colorf8b7b3 svgShape"/><path fill="#fbbc04" d="m325.278 320.744-10.63 6.437c-5.657 3.341-18.353-26.02-12.81-29.3l10.76-6.833c4.19-2.487 16.869 27.21 12.68 29.696z" class="colorfbbc04 svgShape"/><ellipse cx="318.912" cy="306.171" fill="#dd8800" rx="3.311" ry="13.788" transform="rotate(-22.078 318.912 306.171)" class="colord80 svgShape"/><path fill="#ffd4cf" d="M314.765 294.42c-3.158 6.129 6.671 25.46 11.885 23.58l-.001-.014c.149.004 0 0 .404-.074 0 0 38.16-10.851 37.474-17.24-.392-3.593-2.899-4.27-5.474-4.04 3.666-1.239 7.319-3.517 5.542-7.473-.833-1.87-2.883-1.77-4.324-1.421 2.518-.972 6.995-3.338 5.058-7.284-1.357-2.754-5.998-.44-9.584.893 1.394-1.1 5.612-3.252 2.242-6.516-3.306-3.218-25.036 6.763-25.036 6.763" class="colorffd4cf svgShape"/><path fill="#ffd4cf" d="M355.745 281.347c1.394-1.1 5.612-3.252 2.242-6.516-3.306-3.218-25.036 6.763-25.036 6.763l22.794-.247zM360.271 287.738c2.518-.972 6.995-3.338 5.058-7.284-1.357-2.754-5.998-.44-9.584.893l4.526 6.39z" class="colorffd4cf svgShape"/><path fill="#ffd4cf" d="M359.053 296.632c3.666-1.239 7.319-3.517 5.542-7.473-.833-1.87-2.883-1.77-4.324-1.421l-1.218 8.894z" class="colorffd4cf svgShape"/><path fill="#ffd4cf" d="M327.053 317.912s38.16-10.851 37.474-17.24c-.392-3.593-2.899-4.27-5.474-4.04l-32 21.28z" class="colorffd4cf svgShape"/><path fill="#f8b7b3" d="M356.262 281.524c-1.413.686-2.854 1.299-4.302 1.898-1.447.6-2.918 1.143-4.38 1.706-1.48.516-2.953 1.052-4.45 1.522-1.498.47-3.002.923-4.538 1.272 1.429-.66 2.864-1.283 4.3-1.905l4.324-1.826 4.36-1.734c1.46-.559 2.924-1.113 4.41-1.608a.366.366 0 0 1 .276.675zM360.408 288.075c-1.528.73-3.085 1.386-4.648 2.029-1.562.644-3.147 1.23-4.724 1.838-1.595.56-3.183 1.14-4.795 1.656-1.612.514-3.231 1.013-4.883 1.402a276.428 276.428 0 0 1 4.646-2.036l4.668-1.96 4.705-1.866c1.576-.603 3.156-1.2 4.757-1.738a.365.365 0 0 1 .274.675zM359.609 296.895c-1.413.687-2.854 1.3-4.302 1.899-1.447.6-2.917 1.142-4.38 1.706-1.48.515-2.953 1.051-4.45 1.522-1.498.47-3.002.922-4.538 1.271a201.38 201.38 0 0 1 4.3-1.905l4.324-1.826 4.36-1.733c1.46-.56 2.924-1.113 4.41-1.609a.366.366 0 0 1 .276.675z" class="colorf8b7b3 svgShape"/><path fill="#f8b7b3" d="M355.744 281.347c1.082-.95 2.385-1.771 2.983-3.021.672-1.223-.172-2.634-1.202-3.356-.495-.295-1.21-.336-1.888-.332-.689.004-1.394.108-2.092.223a38.678 38.678 0 0 0-4.18 1.002c-2.772.787-5.503 1.754-8.237 2.716-1.368.481-2.728.986-4.085 1.502l-4.092 1.513c2.563-1.388 5.212-2.602 7.897-3.736a75.384 75.384 0 0 1 8.24-2.962c1.413-.392 2.84-.75 4.308-.972.737-.097 1.478-.184 2.243-.165.754.023 1.567.074 2.311.57.4.265.564.574.838.86.212.331.443.648.568 1.038.301.751.213 1.662-.197 2.33-.853 1.332-2.204 2.01-3.415 2.79z" class="colorf8b7b3 svgShape"/><path fill="#f8b7b3" d="M360.271 287.738c1.513-.807 2.992-1.725 4.05-2.947.51-.617.893-1.314.964-2.053.091-.724-.116-1.505-.47-2.157-.327-.6-.948-.919-1.73-.932-.77-.045-1.591.123-2.405.306-1.627.406-3.26.977-4.936 1.392 1.537-.78 3.052-1.59 4.719-2.146.831-.282 1.704-.495 2.653-.504.473.002.974.09 1.445.318.474.225.878.621 1.127 1.068.44.852.688 1.808.537 2.787-.157.968-.678 1.82-1.328 2.451-1.309 1.283-2.971 1.964-4.626 2.417z" class="colorf8b7b3 svgShape"/><path fill="#f8b7b3" d="M359.053 296.632c1.17-.614 2.32-1.233 3.323-1.993.498-.383.968-.791 1.326-1.268.365-.465.667-.975.766-1.533.12-.549.117-1.13-.034-1.705-.062-.286-.175-.58-.273-.854a2.775 2.775 0 0 0-.437-.704c-.755-.83-2.162-.955-3.453-.837a5.447 5.447 0 0 1 1.968-.428c.689-.01 1.445.193 2.028.698.282.253.525.557.689.89.15.33.294.644.398.988a4.47 4.47 0 0 1 .095 2.176c-.35 1.483-1.478 2.554-2.636 3.225-1.17.71-2.464 1.098-3.76 1.345z" class="colorf8b7b3 svgShape"/><path fill="#f8b7b3" d="M356.306 307.294c1.338-.831 2.672-1.643 3.965-2.485 1.25-.866 2.58-1.753 3.374-2.905.186-.282.336-.577.381-.863.043-.246-.025-.632-.083-.99a4.193 4.193 0 0 0-.831-1.918c-.886-1.103-2.507-1.453-4.059-1.5a7.037 7.037 0 0 1 2.388-.13c.8.134 1.643.46 2.249 1.098.626.615.988 1.44 1.184 2.25.082.407.18.8.125 1.332-.07.492-.283.91-.518 1.28-1.028 1.422-2.43 2.244-3.81 3.018-1.398.75-2.865 1.335-4.365 1.813z" class="colorf8b7b3 svgShape"/><path fill="#30355c" d="m363.37 257.327-10.198-.751c-1.62-.12-3.228 1.083-3.59 2.684l-1.014 4.48 16.065 1.183 1.013-4.479c.363-1.601-.657-2.997-2.277-3.117z" class="color30355c svgShape"/><path fill="#ea4234" d="m337.103 277.414 11.465-13.674 16.064 1.184 5.002 14.888c.247.434.317.96.197 1.49l-7.668 33.887c-1.558 6.882-35.14 4.407-33.583-2.475l7.668-33.887c.12-.53.422-1.029.855-1.413z" class="colorea4234 svgShape"/><path fill="#d4e3f6" d="m369.515 282.7-5.044 22.289-33.583-2.475 5.044-22.288z" class="colord4e3f6 svgShape"/><path fill="#ffd4cf" d="M315.556 294.103s14.033-32.053 25.26-26.513-12.645 21.373-12.645 21.373" class="colorffd4cf svgShape"/><path fill="#4285f4" d="M190.204 263.192c-22.547 2.677-41.937-11.043-42.936-11.764-3.476-2.507-4.403-7.486-2.072-11.12 2.329-3.63 7.027-4.546 10.499-2.054.343.243 23.335 16.26 43.936 5.566 3.73-1.937 8.293-.296 10.18 3.671 1.887 3.967.388 8.755-3.349 10.694a47.112 47.112 0 0 1-16.258 5.007z" class="color4285f4 svgShape"/><linearGradient id="w" x1="739.348" x2="870.666" y1="259.81" y2="259.81" gradientTransform="rotate(5.274 -328.666 -6806.641)" gradientUnits="userSpaceOnUse"><stop offset="0" stop-color="#191923" class="stopColor191923 svgShape"/><stop offset="1" stop-color="#0c0c14" class="stopColor0c0c14 svgShape"/></linearGradient><path fill="url(#w)" d="M209.658 377.05c-2.235-3.373-5.855-5.524-9.382-7.503a343.16 343.16 0 0 0-15.945-8.413 350.946 350.946 0 0 0-40.576-17.006c13.271-20.85 20.56-45.471 20.773-70.18l-2.389 2.304c-14.284 6.537-27.136 16.14-37.516 27.919-.29 18.46.99 34.108.99 34.108l-.687 2.963c.06.49.096.754.096.754l-.438.72-10.251 44.193c.15.68.55 1.42 1.17 2.21 3.96 5.06 16.61 4.93 28.95 3.49.2-.02.44-.05.71-.08l.52-.06c8.893-.946 45.276-4.46 66.221-7.22.059-2.899-.648-5.783-2.246-8.2z" opacity=".12"/><path fill="#4285f4" d="m198.326 372.102-65.768-28.966s40.695-58.086 29.682-76.063c-3.925-6.408-20.795-21.717-26.294-17.892-25.335 17.624-60.87 100.863-46.994 117.222 17.857 21.053 87.349 32.89 97.427 34.092 8.181 2.353 20.128-26.04 11.947-28.393z" class="color4285f4 svgShape"/><path fill="#fbbc04" d="m199.926 402.182-9.952-2.114c-5.25-1.185 2.902-29.519 8.05-28.363l10.246 1.92c3.894.867-4.45 29.425-8.344 28.557z" class="colorfbbc04 svgShape"/><ellipse cx="203.933" cy="388.079" fill="#dd8800" rx="12.689" ry="2.733" transform="rotate(-73.022 203.933 388.079)" class="colord80 svgShape"/><path fill="#ffd4cf" d="M216.012 376.54s23.853-4.735 28.788 2.314-7.736 13.537-7.736 13.537-12.642-3.626-13.67-3.876c-1.029-.25-10.953-5.355-10.953-5.355l-1.938-4.213" class="colorffd4cf svgShape"/><path fill="#262c51" d="m242.474 399.49-18.82-8.479a7.692 7.692 0 0 1-3.852-10.172l.537-1.193a7.692 7.692 0 0 1 10.172-3.853l18.819 8.478a7.692 7.692 0 0 1 3.853 10.173l-.537 1.193a7.692 7.692 0 0 1-10.172 3.853z" class="color262c51 svgShape"/><path fill="#ffd4cf" d="M248.014 393.3c.632-2.73-4.199-3.294-7.666-4.063 1.69-.139 6.106.332 5.55-3.778-.564-4.051-22.682-7.292-22.682-7.292l-7.204-1.626c-1.45.978-7.987 1.711-7.987 1.711-3.977-.717-10.208 20.868-6.224 21.597 0 0 30.308 13.334 33.598 8.21 1.846-2.891.38-4.624-1.675-5.732 3.467.881 7.549.98 8.579-2.872.487-1.795-1.07-2.735-2.36-3.184 2.462.503 7.183.936 8.071-2.971z" class="colorffd4cf svgShape"/><path fill="#f8b7b3" d="M242.555 382.794c.946.4 1.899.835 2.69 1.52.385.333.74.81.747 1.355.058.517.052 1.058-.12 1.568-.156.514-.51.965-.948 1.275-.443.31-.952.497-1.465.618-1.026.246-2.09.23-3.093.308l.028-.4c1.682.346 3.398.581 5.083 1.103.83.277 1.7.593 2.386 1.312.337.357.564.88.56 1.397-.019.525-.15.954-.327 1.392-.348.878-1.052 1.624-1.884 2.068-.836.444-1.753.642-2.652.716-1.813.127-3.565-.14-5.302-.625a.54.54 0 0 1 .213-1.055l.028.004a8.794 8.794 0 0 1 2.07.616c.656.297 1.322.695 1.803 1.357.508.655.574 1.615.331 2.324-.205.692-.54 1.372-1.043 1.927-1.01 1.145-2.544 1.55-3.92 1.586-1.403.04-2.767-.215-4.083-.568l.198-.509c.669.388 1.331.833 1.834 1.462.516.608.816 1.443.744 2.245-.064.805-.392 1.54-.801 2.188-.173.356-.554.646-.92.774-.372.145-.758.207-1.14.247-1.531.13-3.039-.071-4.535-.265-1.496-.207-2.983-.462-4.475-.693 1.498.188 2.992.4 4.491.564 1.495.151 3.012.305 4.49.136.712-.103 1.515-.278 1.81-.932.373-.634.648-1.332.68-2.04.036-.707-.235-1.393-.708-1.919-.46-.542-1.088-.939-1.73-1.282a.275.275 0 0 1 .191-.51l.006.001c1.293.303 2.62.5 3.915.418 1.284-.076 2.565-.495 3.337-1.44.391-.46.651-1.027.809-1.63.156-.57.09-1.1-.248-1.523-.685-.86-2.055-1.277-3.25-1.46l.24-1.052c1.563.494 3.268.81 4.904.742.818-.04 1.626-.195 2.33-.539.698-.35 1.267-.91 1.584-1.63.162-.35.287-.765.308-1.1a1.383 1.383 0 0 0-.354-.957c-.493-.565-1.29-.921-2.073-1.202-1.598-.554-3.305-.85-4.988-1.252l-.011-.003a.201.201 0 0 1 .038-.397c1.052-.045 2.067.003 3.061-.201.975-.175 1.96-.693 2.287-1.663.174-.465.2-.982.16-1.486.009-.514-.296-.948-.664-1.296-.751-.695-1.69-1.164-2.622-1.594z" class="colorf8b7b3 svgShape"/><path fill="#f8b7b3" d="M240.651 389.688c-1.451-.165-2.885-.411-4.318-.673-1.432-.26-2.85-.586-4.276-.887-1.413-.355-2.831-.685-4.234-1.087-1.402-.402-2.801-.822-4.169-1.35 1.453.185 2.89.41 4.327.639l4.297.737c1.423.292 2.854.543 4.274.85 1.42.306 2.84.62 4.245 1a.394.394 0 0 1-.146.77zM238.503 396.359c-1.45-.165-2.885-.411-4.317-.673-1.432-.26-2.851-.586-4.276-.886-1.413-.356-2.832-.686-4.234-1.088-1.403-.402-2.802-.822-4.17-1.35 1.454.185 2.89.41 4.327.64l4.297.736c1.423.292 2.854.543 4.274.85 1.42.306 2.84.62 4.246 1a.394.394 0 0 1-.147.77zM234.006 402.863c-1.451-.165-2.885-.412-4.318-.673-1.432-.26-2.851-.586-4.276-.887-1.413-.355-2.831-.685-4.234-1.087-1.402-.402-2.801-.823-4.169-1.35 1.453.185 2.89.41 4.326.639l4.298.737c1.422.292 2.854.543 4.274.85 1.42.306 2.84.62 4.245.999a.394.394 0 0 1-.146.772z" class="colorf8b7b3 svgShape"/><linearGradient id="x" x1="213.501" x2="231.493" y1="320.651" y2="320.651" gradientUnits="userSpaceOnUse"><stop offset="0" stop-color="#191923" class="stopColor191923 svgShape"/><stop offset="1" stop-color="#0c0c14" class="stopColor0c0c14 svgShape"/></linearGradient><path fill="url(#x)" d="M227.846 351.298s-6.237-47.295-14.345-61.295c7.71 3.38 25.667 27.09 14.345 61.295z" opacity=".12"/><path fill="#fbbc04" d="M256.837 72.25c5.555-13.993 21.44-21.168 35.62-16.11 14.689 5.241 22.319 21.421 17.03 36.08-3.041 8.425-9.69 14.514-17.576 17.153-4.404 1.473-8.109 4.436-10.395 8.373l-19.778-7.138c.758-4.484-.2-9.126-2.647-13.066-4.54-7.309-5.7-16.613-2.254-25.292z" class="colorfbbc04 svgShape"/><path fill="#ffffff" d="M270.173 64.088c.238.085.512.06.737-.094 5.345-3.661 12.134-4.563 18.162-2.412a.814.814 0 00.55-1.532l-.003-.001c-6.517-2.326-13.855-1.353-19.629 2.601a.814.814 0 00.183 1.438zM262.593 73.555a.814.814 0 001.033-.465 19.859 19.859 0 012.548-4.559.814.814 0 10-1.304-.975 21.487 21.487 0 00-2.758 4.933.814.814 0 00.481 1.066z" opacity=".3" class="colorfff svgShape"/><path fill="#ffffff" d="m275.928 116.534-1.895-.642 6.162-18.19a115.83 115.83 0 0 1-1.64-.605l-1.478-.536c-.402-.14-.874-.304-1.395-.494l-6.877 17.939-1.867-.717 6.88-17.947c-3.383-1.407-7.575-3.718-8.84-7.299-.726-2.057-.383-4.24 1.02-6.49.861-1.382 2.919-3.408 7.025-1.439 4.143 1.986 6.102 6.932 4.459 11.26l-1.083 2.823c.512.189.967.346 1.334.474l1.523.553c.461.173.995.373 1.581.582l.971-2.868c1.5-4.383 6.165-6.944 10.623-5.82 4.415 1.106 4.706 3.98 4.487 5.594-.37 2.719-1.511 4.667-3.392 5.791-3.174 1.895-7.753 1-11.436-.161l-6.162 18.192zm6.805-20.092c3.265 1.017 7.292 1.825 9.767.344 1.351-.807 2.148-2.228 2.436-4.344.149-1.093 0-2.634-2.991-3.384-3.456-.865-7.079 1.12-8.243 4.525l-.969 2.859zm-12.845-15.145c-1.189 0-1.805.691-2.193 1.315-1.08 1.732-1.351 3.29-.83 4.765.994 2.815 4.673 4.83 7.672 6.09l1.076-2.807c1.276-3.36-.24-7.202-3.455-8.743-.93-.445-1.672-.62-2.27-.62z" class="colorfff svgShape"/><path fill="#ffd301" d="M276.112 126.107c-.043.142-.079.284-.13.425a8.225 8.225 0 1 1-15.474-5.584c.05-.141.114-.274.172-.41l15.432 5.57z" class="colorffd301 svgShape"/><path fill="#ffd301" d="M276.112 126.107c-.043.142-.079.284-.13.425a8.225 8.225 0 1 1-15.474-5.584c.05-.141.114-.274.172-.41l15.432 5.57z" class="colorffd301 svgShape"/><path fill="#ffd301" d="M276.112 126.107c-.043.142-.079.284-.13.425a8.225 8.225 0 1 1-15.474-5.584c.05-.141.114-.274.172-.41l15.432 5.57z" class="colorffd301 svgShape"/><path fill="#1d2344" d="M276.112 126.107c-.043.142-.079.284-.13.425a8.225 8.225 0 1 1-15.474-5.584c.05-.141.114-.274.172-.41l15.432 5.57z" class="color1d2344 svgShape"/><path fill="#30355c" d="M258.163 112.017a2.507 2.507 0 0 0 .093 1.935c.272.59.774 1.07 1.43 1.307l20.556 7.419a2.535 2.535 0 0 0 3.157-3.461 2.511 2.511 0 0 0-1.435-1.31l-20.557-7.418a2.535 2.535 0 0 0-3.244 1.528z" class="color30355c svgShape"/><path fill="#30355c" d="M256.441 116.788a2.507 2.507 0 0 0 .093 1.935c.272.59.775 1.07 1.43 1.307l20.557 7.418a2.535 2.535 0 0 0 3.157-3.46 2.511 2.511 0 0 0-1.436-1.31l-20.557-7.419a2.535 2.535 0 0 0-3.244 1.529z" class="color30355c svgShape"/><path fill="#262c51" d="M258.164 112.017a2.504 2.504 0 0 0 .094 1.934c.27.589.775 1.071 1.428 1.307l20.556 7.418a2.535 2.535 0 0 0 3.248-1.52c.08-.218.127-.44.14-.66a2.533 2.533 0 0 1-2.935.923l-20.555-7.418a2.504 2.504 0 0 1-1.428-1.307 2.438 2.438 0 0 1-.235-1.275 2.395 2.395 0 0 0-.313.598zM256.443 116.788a2.504 2.504 0 0 0 .093 1.934c.27.589.775 1.071 1.429 1.307l20.555 7.418a2.535 2.535 0 0 0 3.248-1.52c.08-.219.127-.441.141-.66a2.533 2.533 0 0 1-2.935.923l-20.556-7.418a2.504 2.504 0 0 1-1.428-1.308 2.438 2.438 0 0 1-.234-1.274 2.395 2.395 0 0 0-.313.598z" class="color262c51 svgShape"/><path fill="#fbbc04" d="M293.762 52.84a1.146 1.146 0 0 0 1.466-.689l1.508-4.177a1.146 1.146 0 1 0-2.156-.778l-1.507 4.177a1.146 1.146 0 0 0 .689 1.467zM307.755 62.582c.372.134.804.071 1.129-.202l3.393-2.864a1.146 1.146 0 0 0-1.477-1.751l-3.394 2.863a1.146 1.146 0 0 0 .349 1.954zM315.005 78.016c.183.066.385.087.59.05l4.37-.784a1.146 1.146 0 1 0-.403-2.255l-4.371.783a1.146 1.146 0 0 0-.186 2.206zM313.565 95.006l4.176 1.507a1.146 1.146 0 1 0 .778-2.155l-4.177-1.507a1.146 1.146 0 1 0-.777 2.155zM306.685 112.394a1.145 1.145 0 0 0 1.265-1.816l-2.863-3.394a1.145 1.145 0 1 0-1.751 1.478l2.863 3.393c.134.16.303.273.486.34zM245.786 90.417c.183.066.385.086.59.05l4.37-.784a1.146 1.146 0 1 0-.403-2.255l-4.371.783a1.146 1.146 0 0 0-.186 2.206zM247.419 71.136l4.177 1.507a1.146 1.146 0 1 0 .778-2.156l-4.177-1.507a1.146 1.146 0 1 0-.778 2.156zM261.336 58.648a1.145 1.145 0 0 0 1.266-1.816l-2.863-3.394a1.145 1.145 0 1 0-1.752 1.478l2.864 3.393c.134.16.303.273.485.34zM276.772 51.4a1.146 1.146 0 0 0 1.516-1.28l-.783-4.37a1.145 1.145 0 1 0-2.256.404l.784 4.37c.074.418.367.742.74.877z" class="colorfbbc04 svgShape"/></svg>