<svg id="visual" viewBox="0 0 570 575" width="570" height="575" xmlns="http://www.w3.org/2000/svg" xmlns:xlink="http://www.w3.org/1999/xlink" version="1.1"><rect x="0" y="0" width="570" height="575" fill="#f3f4f6"></rect><path d="M465 575L457.2 561.3C449.3 547.7 433.7 520.3 428 493C422.3 465.7 426.7 438.3 434.8 411C443 383.7 455 356.3 447.2 328.8C439.3 301.3 411.7 273.7 416.8 246.2C422 218.7 460 191.3 477.5 164C495 136.7 492 109.3 482.2 82C472.3 54.7 455.7 27.3 447.3 13.7L439 0L570 0L570 13.7C570 27.3 570 54.7 570 82C570 109.3 570 136.7 570 164C570 191.3 570 218.7 570 246.2C570 273.7 570 301.3 570 328.8C570 356.3 570 383.7 570 411C570 438.3 570 465.7 570 493C570 520.3 570 547.7 570 561.3L570 575Z" fill="#d1d5db" stroke-linecap="round" stroke-linejoin="miter"></path></svg>