<svg xmlns="http://www.w3.org/2000/svg" viewBox="0 0 4680 3120"><g data-name="5" fill="#000000" class="color000 svgShape"><path fill="#ffffff" d="m1231.99 1099.29-13.33-9.3-29.84 42.79-44.05-27.54-8.62 13.78 43.36 27.11-34.06 48.84 13.33 9.3 34.53-49.51 51.36 32.12 8.62-13.78-50.68-31.69 29.38-42.12zM1182.63 1356.34h81.56v81.56h-81.56z" class="colorfff svgShape"/><path fill="#ffba55" d="m1259.05 1934.24 137.21-206c-48.26 57.23-98.52 128.51-137.21 206Z" class="colorffba55 svgShape"/><path fill="#ffba55" d="M3450 793.86c-67.29-189.27-272.52-264.34-459.66-242.07-201.06 23.93-398.52 100.48-578.19 193.81-487.43 253.18-926.88 700.1-1159.15 1197.78l6.08-9.14c38.69-77.49 89-148.77 137.21-206l-137.21 206c-69 138.16-101.07 296-18.89 429.08 80.88 130.91 263.66 155.28 403.18 161 165.1 6.74 328.67-31.56 484.52-82.85 117.95-38.82 285.93-111.84 403.55-151.65 141.79-48 304.94-28 431 52.73 268.48 172 571.23-26 452.92-338-79.74-210.32-315.8-393.59-214.28-636.55 88.58-212.23 346.41-299.8 248.92-574.14Z" class="colorffba55 svgShape"/><path fill="#fe5a2c" d="M3330.4 973a109.09 109.09 0 0 0-29-58.62l-109.13-113.84-1.82.78c-14.42-25.08-110.31-191.33-121-194.54-2.94-.88-5.44 2.45-7.54 7.92l-5.45-42.34s-16.54-74.41-74.58-96.68c-1.08-.61-1.71-.9-1.71-.9-53.22-26.08-141.59 18.36-144.19 19.82-74.5 41.91-106.88 159.16-114.43 190.9-11.59 23.37-21.91 47.13-26.95 72.64-3.89 19.76-3.36 42.9 10.52 57.08l-.18 1.47 1.82.83-23.47 6-.17-.1-30.49 7.92-7.95-.44a51.24 51.24 0 0 0-41.08 17l-119.38 133.7 36.22 146.69 124.06-96.79 19.47 59c14 49.86 12.49 129.46 6.21 204.18l-32 194c-7 5.29-75.78 422.65 31.22 534.22 0 0-61.48 134.34-22.76 261.85s68.31 184.44 68.31 184.44l-19.6 73.4.43 3.86a35.47 35.47 0 0 0 30 31.16c16.45 2.49 36.83 6.31 50.18 11.39 11.77 4.49 27.65 14.62 41.39 24.28a91.3 91.3 0 0 0 68 15.3 196.53 196.53 0 0 1 25.76-2.34c18.24-.62 35.3.42 37.52.87.89.18-2.08-2.95-7.81-8.42 1.63.6 3.27 1.17 4.94 1.68a191.52 191.52 0 0 0 46.47 7.85 248 248 0 0 0 59.78-4.19l15.88-17.1-2.8-1.86-74.14-49.42-39.08-53.75-22.54-49.43 152.82-529.88a55.91 55.91 0 0 0 8-32.77l-25.69-384.22 8.33.07a7.17 7.17 0 0 0 1.75-.21l7.43.16-45.09-217.32-.29-1.7-16.36-69.6 30.77-175.62c7.38 10.76 19.3 8.17 47.29 11.8 0 0 118.61 29.54 186.64 24.28a67.68 67.68 0 0 0 25.46-4.54 40.44 40.44 0 0 0 13.66-7.13l9.36-6.24a18.1 18.1 0 0 0 7.38-20Zm-469.71 1479a42.65 42.65 0 0 0 4.46.28l-8.54 90.33c-40-35.57-78-68.88-78-68.88l4.59-441.73c8.16-9.79 35-290.63 49.58-449.19 2.89-31.42 5.3-58 7-76.79h.42-.42v-.16l6.06.16c11.75 98.43 52 412.28 95.74 478.91-36.11 75.86-148.58 320.24-80.89 467.07Zm270-1551.87L3112 883.5a120.06 120.06 0 0 0-70.43-30l-52.1-4.09 1.23-1.72c12.75-1.35 23.08-12.52 29.72-23.92a122.74 122.74 0 0 0 14.14-37.17l5.61-7.82 10.67-63.07a42.13 42.13 0 0 0 3.76-14.45c.05.57.11 1.13.16 1.69.33 8.09.22 7.81.22 7.81l1.34 5.38c2.37 17 5.14 26.25 5.14 26.25l10.88 10.15c5.46 5.73 12.25 11.79 18.82 17.54l6.23 5.81 1 .48c2.48 2.18 4.84 4.27 6.95 6.21-6.91 3.26-47.13 2.42-40.76 10.7 9.52 15.2 51.53 28 68.87 32.76l-18.31 7.96 2.62 4.64c5.16 12.94 25.61 45.22 25.61 45.22l30.23 54.09Z" class="colorfe5a2c svgShape"/><path fill="#4cbfbc" d="m3026.73 2589.08-74.15-49.42-39.08-53.74-22.84-50.1h-63.76l-8.66 91.62s22.27 35.94 55.81 59.84c10.17 7.26 21.39 13.4 33.34 17.1a191.6 191.6 0 0 0 46.47 7.85 247.72 247.72 0 0 0 59.79-4.18l15.87-17.1-2.33-1.56Z" class="color4cbfbc svgShape"/><path fill="#1a8781" d="M2857.4 2519.89c-12.07-21.62-6.58-64.62-3.23-84.07h-27.27l-8.66 91.62s22.27 35.94 55.81 59.84c25.75 10.15 54.49 18.53 79.81 24.95a247.72 247.72 0 0 0 59.79-4.18l15.87-17.1-2.79-1.87c-65.61 11.34-154.38-42.4-169.33-69.19Z" class="color1a8781 svgShape"/><path fill="#99f2ed" d="m2952.58 2539.66-39.08-53.74-22.84-50.1H2879c4.81 19.71 19.23 74.22 35.13 89.9s68.32 55.5 113.09 63.67l-.46-.31Z" class="color99f2ed svgShape"/><path fill="#4cbfbc" d="M2878.23 2580.31c-49.31-44.78-137.87-122.56-137.87-122.56l-11.45-.82-34.35-2.45-18-1.28-19.56 73.4.43 3.86a35.46 35.46 0 0 0 30 31.16c16.45 2.49 36.83 6.31 50.19 11.39 11.77 4.49 27.64 14.62 41.39 24.28a91.24 91.24 0 0 0 68 15.3 200.19 200.19 0 0 1 25.77-2.34c18.24-.62 35.29.42 37.52.87 1.75.36-11.87-12.45-32.07-30.81Z" class="color4cbfbc svgShape"/><path fill="#1a8781" d="m2694.56 2454.48-18-1.28-19.56 73.4.43 3.86a35.46 35.46 0 0 0 30 31.16c16.45 2.49 36.83 6.31 50.19 11.39 11.77 4.49 27.64 14.62 41.39 24.28a91.24 91.24 0 0 0 68 15.3 200.19 200.19 0 0 1 25.77-2.34c7.76-4 12.46-6.9 12.46-6.9s-120.54-29.8-168.89-60.27c-31.08-19.57-27.98-61.27-21.79-88.6Z" class="color1a8781 svgShape"/><path fill="#99f2ed" d="m2740.36 2457.75-21.27-1.15c11.21 21.87 40.18 55.42 60.8 73.13 32.45 27.89 113.37 74.06 113.37 74.06l-15-23.48c-49.34-44.78-137.9-122.56-137.9-122.56Z" class="color99f2ed svgShape"/><path fill="#82151b" d="M2633.37 1464.35c-16.2 1.93-28.5 4.62-33.53 8.34-7 5.2-75.79 422.64 31.22 534.22 0 0-61.48 134.34-22.77 261.85s68.31 184.44 68.31 184.44l32.83 2.35 30.93 2.2 4.55-441.73c8.16-9.79 35-290.63 49.58-449.19 5.77-62.79 9.62-106.4 9.62-106.4s-2.2-.07-6.15-.15c-24.16-.53-113.67-1.99-164.59 4.07ZM3023.8 1455.55l-196.55 4.36-23.14.52s47.2 429.25 99.17 508.52c-36.11 75.87-141 319.94-73.35 466.78l.45 1 6.48-.19 15.93-.45 38.07.77 152.92-530.24a55.83 55.83 0 0 0 8-32.76Z" class="color82151b svgShape"/><path fill="#560a12" d="M2797.2 1469.13q.27-2.91.52-5.49c.09-7.25.47-25.25-.52 5.49ZM2797.9 1461.81c-.06.6-.12 1.2-.18 1.83-.04 3.19-.03 4.28.18-1.83ZM2827.25 1459.91l-28.25-31.34s-.38 11.41-1 31.71c0 .56 0 1.06-.06 1.53 5.16-51 6.21-1.38 6.21-1.38s47.2 429.25 99.17 508.52c-36.11 75.87-148.56 320.24-80.88 467.08 2.41.39 12.26.34 14.46.49a78.68 78.68 0 0 0 15.93-.45c1.39-.19 2.16-.35 2.16-.35-8.74-26.21-16.48-105.59 4.55-208.29 25.26-123.42 81.13-270.8 81.13-270.8-35-33.23-88.35-469-88.35-469ZM2673.11 2016.07c-14-24.47-43.72-129.39-43.72-129.39-45.46-146.87 47.21-402.16 47.21-402.16-15.63-9.46-30-16.11-43.23-20.17-16.2 1.93-28.5 4.62-33.53 8.34-7 5.2-75.79 422.64 31.22 534.22 0 0-61.48 134.34-22.77 261.85s68.31 184.44 68.31 184.44l32.83 2.35c-116.18-201.55-36.32-439.48-36.32-439.48Z" class="color560a12 svgShape"/><path fill="#16a3db" d="M3292.1 957a108.94 108.94 0 0 0-29-58.61L3154 784.56s-66.25 35.62-74.4 32.9 25.51 50.4 25.51 50.4l32.56 56.14-8.94-7.84-36.33-32-18.71-16.64a120.21 120.21 0 0 0-70.44-30l-52.1-4.09-45.27-23.54s-38 85.11-199.2-18.11l-92.35 23.54-8-.44a51.3 51.3 0 0 0-41.08 17l-119.34 133.77 36.22 146.68 123.14-99.6s36.22 97.79 36.22 139.44-9.06 123.14-9.06 123.14l-32.59 197.39 135.82 14.48 298.76 2.5a7 7 0 0 0 6.89-8.43l-59.37-280.19 30.78-175.65s19.92 13.58 36.22 5.43 49.47 4.52 49.47 4.52l62.81 11.78 74.57 13.31a67.74 67.74 0 0 0 49.52-10.33l9.83-6.55a18.08 18.08 0 0 0 7.38-20Z" class="color16a3db svgShape"/><path fill="#aa2d39" d="M2977.58 1514.11c-14.92 0 .8 107.13.8 197.81s21.77 189.83 36.69 189.83 7.17-110.32 7.17-201-29.75-186.64-44.66-186.64ZM2770.85 1516.46c-17.78 0-70.52 105.11-70.52 193.17s5.21 191.64 23 191.64 30.66-99 30.66-187 34.64-197.81 16.86-197.81Z" class="coloraa2d39 svgShape"/><ellipse cx="2724.68" cy="1958.08" fill="#aa2d39" rx="35.53" ry="13.82" transform="rotate(-81.4 2734.289 1953.864)" class="coloraa2d39 svgShape"/><path fill="#aa2d39" d="M3006.57 1927.82c-7.36-2-17.48 11.76-22.59 30.71s-3.28 35.91 4.09 37.89 17.48-11.75 22.59-30.7 3.28-35.91-4.09-37.9Z" class="coloraa2d39 svgShape"/><path fill="#560a12" d="M2639 1585.2s96.31-99.23 162.85-95.14l-138.34-6.42Z" class="color560a12 svgShape"/><path fill="#ffa992" d="M2768.1 863.73c59.61 57.87 91 23.71 122.71-6.27 14.18-13.4 13.65-62.83 13.65-62.83-127.85-181.63-136.36 69.1-136.36 69.1Z" class="colorffa992 svgShape"/><path fill="#911a20" d="M2932.42 456.21c-3.63-.89 29.6 156.31 49.52 174.42 0 0-80.41 153.92-89.46 179.27 0 0 38.75 20.84 58.67 23.55l50.71-70.62 24.34-143.93-8-62.51s-18.67-83.85-85.78-100.18Z" class="color911a20 svgShape"/><path d="M3239.92 994.11a211.77 211.77 0 0 1-68.54-42.93c-1.26-1.18-3.16.71-1.89 1.89a215.28 215.28 0 0 0 69.72 43.63c1.61.61 2.31-1.98.71-2.59Z" fill="#000000" class="color000 svgShape"/><path fill="#00c3ff" d="M2543.26 873c-23.48 23.47-42.65 68.93-33.68 77.9s35.28-22.46 58.76-45.94 46.35-59.56 37.38-68.53-38.98 13.07-62.46 36.57ZM3051.81 866c-23.11-13.34-45-18.73-48.83-12s19.37 15.27 42.48 28.61 37.34 26.4 41.2 19.71-11.74-22.95-34.85-36.32Z" class="color00c3ff svgShape"/><path fill="#10405f" d="M3265.42 999.22c-52.93 0-141.33-86.71-141.33-86.71 43.91 116.56 141.33 86.71 141.33 86.71ZM2789.27 882c-4.11-.25 10.35 579.33-.14 607.59l29.66.74s77.06-601.88-29.52-608.33Z" class="color10405f svgShape"/><path fill="#10405f" d="m2689.62 833.03-44.81-25.6-30.48 7.91 89.37 72.74 42.25-19.2 60.18 48.65 1.55-23.42-52.52-52.98-65.54-8.1z" class="color10405f svgShape"/><path fill="#fe5a2c" d="m2706.68 791.8-80.62 20.75 71.88 51.59 45.81-11 65.12 40s-60.82-80.65-102.19-101.34Z" class="colorfe5a2c svgShape"/><path fill="#10405f" d="m2882.94 862.48-29.31 19.59s-12.3 2.81-.13 21.38l56.33-15.37 20.48-28.16 7.68 58.89 23.22-54.88-34.74-36Z" class="color10405f svgShape"/><path fill="#fe5a2c" d="m2919.69 806.79-25.4 3.29s5.1 12.79-3.14 32.79-80.88 49.51-80.88 49.51l92.3-23.29 19.21-23.68s12.89-2.54 18.78 4.52 3.92 52.83 3.92 52.83l16.73-38.83-10.06-30.48Z" class="colorfe5a2c svgShape"/><path fill="#fe5a2c" d="m2807.68 894.11 5.27 593.91 39.87-.35-.7-610-44.44 16.44z" class="colorfe5a2c svgShape"/><path fill="#ffffff" d="M2829.49 993.24c-6.46 0-11.69 6.23-11.69 13.91s5.23 13.9 11.69 13.9 11.68-6.22 11.68-13.9-5.23-13.91-11.68-13.91ZM2829.49 1172.72c-6.46 0-11.69 6.23-11.69 13.9s5.23 13.91 11.69 13.91 11.68-6.23 11.68-13.91-5.23-13.9-11.68-13.9ZM2829.49 1344.62c-6.46 0-11.69 6.22-11.69 13.9s5.23 13.9 11.69 13.9 11.68-6.22 11.68-13.9-5.23-13.9-11.68-13.9Z" class="colorfff svgShape"/><path fill="#10405f" d="M2669.21 1309c-21.77-38.52 20.09-132.29 3.35-179.17s-26.8-187.54-26.8-187.54c-1.67-17.58-11.92-31.62-11.92-31.62 6.7 49.4-28.57 102.09-28.57 102.09l20.4 61.81c32.65 116.38-19.09 394.83-19.09 394.83 46.22 26.45 186 18 186 18s-29.6-5.06-81.51-29.34-20.07-110.58-41.86-149.06Z" class="color10405f svgShape"/><path fill="#10405f" d="m2484.77 1068.22-2.64 44.11 165.25-128.91-11.38-74.31c-1.81 3.55-151.23 159.11-151.23 159.11Z" class="color10405f svgShape"/><path fill="#560a12" d="M2918.48 1943.88c-6.68 2-6.68 54.8-6.68 54.8s16-42.1 62.15-50.12c.05 0-48.79-6.68-55.47-4.68ZM2653.84 2004c-8.69 8-4 94.89-4 94.89 0-3.34 16.71-92.22 45.44-98.9-.01.01-32.75-3.99-41.44 4.01Z" class="color560a12 svgShape"/><path fill="#00c3ff" d="M2994.8 930.58c-26.36 0-121.63 3.73-121.63 81.74s-10 174.59 16.35 174.59 60.81-41.85 79.78-119c18.62-75.76 51.86-137.33 25.5-137.33Z" class="color00c3ff svgShape"/><path fill="#10405f" d="m3017.51 914.86-1 43.55s-.57 2.84-1.36 7.38c-2.72 15.62-8.12 51.28-2.4 59.62 7.38 10.76 19.31 8.16 47.3 11.79 0 0 208.35 51.9 231.14 5.88 0 0-217.14-19.87-241.51-41.13s-32.17-87.09-32.17-87.09Z" class="color10405f svgShape"/><path fill="#fe5a2c" d="M2793 747.58s62.67 75.92 77.53 78.83 26.62-22 33.4-54.64S2793 747.58 2793 747.58Z" class="colorfe5a2c svgShape"/><path fill="#ffa992" d="M2919.69 537.4c-76.44-31-132.56 121-132.56 121l19.35 91 49.43 47.31c1.9 1.72 11.39 6 13.91 6.36l.53 1.12a40.37 40.37 0 0 0 31.76-8.58l35.22-28.65a73.2 73.2 0 0 0 22.61-34l38.13-121c2.93-84.24-78.38-74.56-78.38-74.56Z" class="colorffa992 svgShape"/><circle cx="2858.97" cy="699.76" r="29.51" fill="#fe5a2c" opacity=".65" class="colorfe5a2c svgShape"/><circle cx="2966.03" cy="724.98" r="28.34" fill="#fe5a2c" opacity=".65" transform="rotate(-45 2966.027 724.981)" class="colorfe5a2c svgShape"/><path fill="#10405f" d="M2648.65 1035.13s-3.79 87.33 12.91 110.11 61.51 25.82 61.51 25.82c-44.07-5.32-74.42-135.93-74.42-135.93ZM2604.15 948.24s37.66 42.36 41.42 14.12-15.06-95.56-15.06-95.56c4.24 33.43-26.36 81.44-26.36 81.44Z" class="color10405f svgShape"/><path fill="#fe5a2c" d="m2828.7 596.05-13 50s125 20.37 145.4-29.64l21.3 42.6 15.64-47.12-30.46-54.75Z" class="colorfe5a2c svgShape"/><path fill="#911a20" d="M2950.07 539c-16.88 45-58.91 78.52-106.46 85.23-1.7.24-1 2.82.71 2.58 48.52-6.84 91.15-41.26 108.33-87.1.61-1.6-1.98-2.3-2.58-.71ZM2739.12 807.32h-1.34a.89.89 0 0 0 0 1.78h1.34a.89.89 0 0 0 0-1.78Z" class="color911a20 svgShape"/><path fill="#fe5a2c" d="m2905.07 725.56 23.59-4.43-7.37-26.54-16.22 30.97z" class="colorfe5a2c svgShape"/><path d="m2869.26 748.27.16 2.38 36.31-2.35 17.92 16.85 1.64-1.74-18.68-17.56-37.35 2.42zM2903.56 647.63c-2.53-1.47-8.14 3.51-12.52 11.1s-5.89 14.94-3.36 16.4 8.14-3.51 12.53-11.1 5.89-14.94 3.35-16.4ZM2965.36 668.74c-2.53-1.46-8.14 3.51-12.52 11.1s-5.89 14.94-3.36 16.4 8.15-3.5 12.53-11.1 5.89-14.94 3.35-16.4Z" fill="#000000" class="color000 svgShape"/><path fill="#ffffff" d="M2887.56 607.13a44.63 44.63 0 1 0 44.63 44.63 44.68 44.68 0 0 0-44.63-44.63Zm0 84.79a40.17 40.17 0 1 1 40.16-40.16 40.21 40.21 0 0 1-40.16 40.16Z" class="colorfff svgShape"/><path fill="#ffffff" d="M2974 637.36a44.63 44.63 0 1 0 44.66 44.64 44.68 44.68 0 0 0-44.66-44.64Zm0 84.79a40.16 40.16 0 1 1 40.19-40.15 40.2 40.2 0 0 1-40.19 40.15Z" class="colorfff svgShape"/><path fill="#ffffff" d="M2928.53 664.71h4.47v5.85h-4.47z" transform="rotate(-74.06 2930.696 667.66)" class="colorfff svgShape"/><path fill="#ffffff" d="M2840.58 633.09h4.47v9.29h-4.47z" transform="matrix(.81 -.58 .58 .81 163.71 1782.6)" class="colorfff svgShape"/><path fill="#10405f" d="m3128.81 859-23.73 8.91 35.67 63.83 45.87 38.42s-59.83-88.95-57.81-111.16ZM3188.16 832.17l7.68-3.47a64.18 64.18 0 0 0-7.68 3.47Z" class="color10405f svgShape"/><path fill="#10405f" d="M3135.91 886.18s22.36-38.23 52.25-54L3128.81 859s-3.03 17.05 7.1 27.18Z" class="color10405f svgShape"/><path fill="#fe5a2c" d="M2827.94 852.42c-14.71-8.85-8.79-81.62-8.79-81.62l-12.67-21.49-59.58 76.12 65.79 74-2.93-23.5 2.35-11.75Z" class="colorfe5a2c svgShape"/><path fill="#911a20" d="M2941.87 458.8c-53.23-26.08-141.6 18.37-144.19 19.83-86.52 48.66-116.23 198.91-116.23 198.91l-14.82 123.17 35.52 16.16 20.1 7.63c7 9.35 21.38 14.77 32.9 16.63l59.28 9.53C2792.7 787.27 2840.1 634 2840.1 634c117.71 28.07 131-55.84 131-55.84 36.19-88.78-29.23-119.36-29.23-119.36Z" class="color911a20 svgShape"/><path fill="#911a20" d="M2967.07 540.44s-.44 103.18 31.1 114.88c0 0 30.46-62-6.68-110.81s-24.42-4.07-24.42-4.07Z" class="color911a20 svgShape"/><path fill="#ffa992" d="M3031.15 590.8c-11.58-3.47-16.46 58.58-16.46 58.58 2.31 46.31 2 45.42 2 45.42l6.59 26.33c3.43 12.21 29.22 32.08 43.74 45.5-6.91 3.25-47.13 2.41-40.76 10.69 11.58 15 76.41 34.73 76.41 34.73l51.33-23.54s-111.28-194.24-122.85-197.71Z" class="colorffa992 svgShape"/><path fill="#3a0508" d="m2722.24 824.5 31.13 16.43-3.69-115.39-27.44 98.96zM2683.59 808.02l21.07 9.87-3.63-73.82-17.44 63.95z" class="color3a0508 svgShape"/><path fill="#c42018" d="M2872.6 468.73c-36.92 0-72 37.77-72 51.68s36-8.3 72.91-8.3 59.06-13.78 59.06-27.69-23.04-15.69-59.97-15.69Z" class="colorc42018 svgShape"/><ellipse cx="2770.17" cy="563.79" fill="#c42018" rx="32.3" ry="17.53" transform="rotate(-63.19 2770.192 563.775)" class="colorc42018 svgShape"/><path fill="#911a20" d="M2825.1 722.1q-2.85-22.89-3.5-46a476.78 476.78 0 0 1 1.47-52.1c.24-2.86-4.23-2.85-4.46 0a473 473 0 0 0 1.12 90.3c3 27.92 9.84 56.73 3.09 84.64-3.2 13.19-9.35 25.65-19.42 34.93-2.12 2 1 5.1 3.15 3.16 19-17.49 24.3-44.46 23.49-69.25-.51-15.3-3.04-30.48-4.94-45.68ZM2965.72 575.11c-1.61 10.82-6.22 20.7-12.19 29.77a177.8 177.8 0 0 1-20.92 26.12c-15.08 15.47-38.22 14.4-58.06 12-11.78-1.45-24-4.34-33.34-12.11-2.2-1.83-5.37 1.31-3.16 3.16 8.72 7.27 19.54 10.79 30.61 12.59a143.55 143.55 0 0 0 32.79 2c10.61-.74 21.2-3.5 29.68-10.19 4.86-3.84 8.79-8.75 12.76-13.48 3.68-4.39 7.27-8.87 10.6-13.53 7.49-10.49 13.63-22.19 15.54-35.07.42-2.88-3.89-4.09-4.31-1.26Z" class="color911a20 svgShape"/><path fill="#911a20" d="M2992.12 646.64c-16-.62-25.17-16.68-26.41-31-1.54-17.83 5.09-35 7-52.56.31-2.85-4.16-2.83-4.47 0-1.65 15.17-6.77 29.82-7.2 45.15-.36 13 3 26.65 13.17 35.49a29 29 0 0 0 17.91 7.4c2.88.1 2.88-4.37 0-4.48ZM2995.85 758.57a120.7 120.7 0 0 1-15 47c-6.63 11.66-17.35 24.44-32 24-2.88-.09-2.87 4.38 0 4.46 12.08.35 22.2-7.34 29.35-16.44 8.19-10.43 13.84-23.12 17.62-35.77a127.39 127.39 0 0 0 4.58-23.3c.22-2.8-4.25-2.78-4.55.05ZM2728.32 566.61C2719 600.34 2701.73 631 2686 662c-7.68 15.19-15.06 30.57-21 46.54-5.68 15.35-10.48 31.58-11.53 48-1 16.18 2 33.79 14.56 45.14.85.77 2.12-.49 1.26-1.26-11.48-10.39-14.69-26.19-14.17-41.1.57-16.3 5.2-32.49 10.68-47.75 11.48-32 28.93-61.35 43.64-91.87 8.18-17 15.54-34.41 20.57-52.61a.89.89 0 0 0-1.69-.48Z" class="color911a20 svgShape"/><path fill="#fe5a2c" d="M3031.15 590.8s-16.39 10.15-16.46 58.58 8.45 77 8.45 77l35.93 33.5 25.58 12.79s-40.8-59.68-48.72-80.39-4.78-101.48-4.78-101.48Z" class="colorfe5a2c svgShape"/><path fill="#fe5a2c" d="m3029.5 599.94-1.75-.35c-.78 3.91 8 48.69 36.86 71.52l1.11-1.4c-29.34-23.23-36.64-67.63-36.22-69.77ZM3025.8 643.27l-1.65.68a295.34 295.34 0 0 0 12.9 26.74c10.29 18.74 19.81 30.59 28.3 35.21l.85-1.56c-19.59-10.69-40.2-60.56-40.4-61.07ZM3100.55 792.19c-33.79 1.47-74.32-14.87-74.32-14.87 12.08 19.28 76.41 34.73 76.41 34.73l51.36-23.54-10.63-17.93c-8.27 5.69-23.82 20.78-42.82 21.61Z" class="colorfe5a2c svgShape"/><path fill="#10405f" d="m3076.84 818 28.24 49.86 90.76-39.16-41.87-44.14-77.13 33.44z" class="color10405f svgShape"/><path fill="#066193" d="m3076.84 818 28.24 49.86 90.76-39.16c-85.41 27.59-119-10.7-119-10.7Z" class="color066193 svgShape"/><path fill="#10405f" d="M2929.37 1285.53s43.51-4.22 63.66-34.44l-11.09-50s-18.94 79.41-52.57 84.44Z" class="color10405f svgShape"/><path fill="#911a20" d="M3252.67 483.06c1.07-2.31 2.15-4.62 3.22-6.92l-.91.48.35-.08c-.61.27-.72.29-.35.08a26.07 26.07 0 0 0-5.33 1.78c.11.19.22.37.34.55.55.88 2.38 4.15 2.68 4.11Z" class="color911a20 svgShape"/><path fill="#911a20" d="m3255.33 476.54-.35.08c-.37.21-.26.19.35-.08Z" class="color911a20 svgShape"/><path fill="#911a20" d="M3384.86 361.77q-83.4 17.16-166 38c-7.4 1.87-11.27 11.19-7.2 17.72l25.55 41 12.44 19.94a26.07 26.07 0 0 1 5.33-1.78l.91-.48c-1.07 2.3-2.15 4.61-3.22 6.92-.3 0-2.13-3.23-2.68-4.11-.12-.18-.23-.36-.34-.55-1.92.84-3.82 1.76-5.57 2.43l-90.88 34.61c-6.08 2.32-10.27 8.13-8.42 14.84 1.6 5.83 8.71 10.76 14.83 8.43 34.23-13 68.69-25.6 102.72-39.14 9.71-3.86 16.78-11.89 13.6-22.93-1.35-4.72-4.52-8.91-7.08-13l-6.88-11-20.89-33.51c-5.27 1.31-10.54 2.61-15.8 3.94q3.6-8.86 7.21-17.72 4.29 6.9 8.59 13.78 74.74-18.49 150.2-34c6.38-1.31 10.07-8.85 8.42-14.83-1.82-6.77-8.43-9.88-14.84-8.56Z" class="color911a20 svgShape"/><path fill="#911a20" d="M3225.28 423c5.26-1.33 10.53-2.63 15.8-3.94q-4.3-6.88-8.59-13.78-3.61 8.88-7.21 17.72ZM3279.75 588.29q7.26 2.7 14.5 5.43.39-8.54.77-17.06ZM3267.46 652.75c-.1 1.47-.1 1.63 0 .46l.39-.66q10.45-2.82 4.83-3.58a34.63 34.63 0 0 0-5-1.43c0 .5 0 1-.07 1.5-.03 1.23-.09 2.47-.15 3.71Z" class="color911a20 svgShape"/><path fill="#911a20" d="M3447.34 629q-79.89-33.75-161.17-64c-7.73-2.87-15 4.44-15.27 11.63l-2.18 48.25-1 22.63a34.63 34.63 0 0 1 5 1.43q5.63.75-4.83 3.58l-.39.66c-.11 1.17-.11 1 0-.46.06-1.24.12-2.48.17-3.71 0-.5 0-1 .07-1.5-2.26-.5-4.56-.89-6.71-1.42l-94.49-23a12.3 12.3 0 0 0-14.84 8.42c-1.69 6.15 2.07 13.29 8.42 14.84l54 13.13c17.6 4.29 35.19 9.25 52.94 12.87 10.57 2.15 20.78-1.69 23.71-12.77 1.2-4.55 1-9.65 1.19-14.3l.59-13 1.74-38.62q-7.24-2.72-14.5-5.43l15.21-11.57q-.37 8.54-.77 17.06 71 26.68 140.91 56.15c6 2.53 12.92 1.8 16.51-4.33 2.97-5.05 1.72-13.95-4.31-16.54Z" class="color911a20 svgShape"/><path fill="#00c3ff" d="M3225.48 892.85c-7.76 4.48 11.57 25 25.33 48.86s16.7 41.88 24.47 37.4 9-22.48-4.77-46.3-37.27-44.44-45.03-39.96Z" class="color00c3ff svgShape"/><path fill="#3ee5dd" d="m1512.48 2002.67 196.25 64.23 3.57-421.06-260.48-71.36 60.66 428.19z" class="color3ee5dd svgShape"/><path fill="#10405f" d="M3420.78 1173.15c-101.78-26.4-205.77 28.06-245.58 123.68l-51.2 16.47 36.5 38.1c-14 104.45 50.81 204.93 154 231.69 111.64 29 225.94-39.34 255.3-152.54s-37.38-228.44-149.02-257.4Z" class="color10405f svgShape"/><path fill="#fe5a2c" d="M3417.2 1135.34c-101.79-26.4-205.78 28.05-245.59 123.67l-51.24 16.48 36.5 38.09c-14 104.45 50.81 204.94 154 231.7 111.63 29 225.93-39.34 255.29-152.54s-37.33-228.45-148.96-257.4Z" class="colorfe5a2c svgShape"/><path fill="#560a12" d="m1103.3 1357.61-.86-6.63-2 3.74a28 28 0 0 1 2.86 2.89Z" class="color560a12 svgShape"/><path fill="#560a12" d="M1133 1526.1c-7.32-.55-16.56-1.2-22.26-6.41-7.21-6.59-1.8-19.2.56-26.92a188.85 188.85 0 0 1 12.61-31.19c4-7.82 11.95-17.38 5.88-26.21-4.85-7.06-14.49-7.92-22.14-6.1-4.64 1.11-9.94 3.76-14.79 2.51-3.81-1-6.51-4.42-7.9-8-4.31-10.94 2.81-22.58 7.85-31.95l19.07-35.38a5.67 5.67 0 0 0-.86-6.62c-9.54-11.19-24.86-14.22-38.91-13.86-9.33.24-18.6 1.72-27.94 1.53-3.23-.07-9.9.37-12.17-2.58-1.83-2.37-.37-6.34.46-8.81 5.56-16.57 14.14-32.7 22.14-48.2q12.53-24.27 27.19-47.34c3.78-6-5.68-11.45-9.45-5.52a615.15 615.15 0 0 0-42.9 80.18c-4.43 10-14.17 25.69-6.12 36.21 4.13 5.39 11 6.42 17.37 6.85 7.57.51 15.14-.3 22.67-.88 12.62-1 27.11-1.35 37.06 7.26l2-3.74.86 6.63a28 28 0 0 0-2.87-2.89l-15.32 28.42c-5.12 9.52-10.94 19.22-12.14 30.18-.94 8.64 1.71 18.13 8.29 24.12 8 7.3 17.36 5.6 27 3 3.46-.94 7.34-2 10.77-.26 4.77 2.43-.42 8.26-2.1 11.35a205.78 205.78 0 0 0-13.44 30.2c-3.47 9.81-8.1 21.57-7 32.15.91 8.65 6.6 15.17 14.39 18.62 8.63 3.81 17.73 3.72 26.89 4.94 6.78.9 18.85 3.55 19.94 12 .39 3 2.24 5.44 5.47 5.47 2.66 0 5.85-2.54 5.47-5.47-2.29-17.51-20.55-22.17-35.63-23.29ZM1023.23 1400.8q-.84 2.35-1.69 4.7a31.31 31.31 0 0 1 4.2 1.48q-1.26-3.09-2.51-6.18Z" class="color560a12 svgShape"/><path fill="#560a12" d="M1071 1597.44c-14.91-4.58-21.43-21.4-21.66-35.76-.15-9.66 1.79-19.13 3.93-28.49 1.93-8.48 5.62-18.21 4.06-27-2.59-14.66-17.73-14.84-29.53-14.64-5.24.08-12.34.58-16.29-3.61-4.85-5.15-2.3-14.23-.49-20.13 6.61-21.62 15.14-42.81 22.72-64.11.73-2-.44-5.27-2.51-6.17-26.81-11.71-51.78 6.47-78 10.37-1.94.29-6 1.16-7.73-.32-1.88-1.6-.11-7.6.22-9.8q1.69-11 4.25-21.81a278.53 278.53 0 0 1 13.6-42.26 275.7 275.7 0 0 1 23.91-45.19c3.85-5.92-5.62-11.41-9.44-5.52a286.69 286.69 0 0 0-38.23 88.46c-1.88 7.73-3.42 15.55-4.63 23.41-1 6.64-3 14.73 2.2 20.18 4.86 5 12.46 4.4 18.76 3.4a139.9 139.9 0 0 0 21.54-5.74c13.61-4.51 29.42-11.2 43.88-7.22q.86-2.34 1.69-4.7 1.24 3.09 2.51 6.18a31.31 31.31 0 0 0-4.2-1.48c-6.78 19-13.78 37.83-20.22 56.89-4.74 14-5.92 32.79 11.09 38.51 6.35 2.14 13.31 1.59 19.89 1.5 4.49-.06 12.13-.74 14 4.56 1.55 4.27-.49 9.78-1.44 14-1.16 5.1-2.41 10.18-3.47 15.3-2.06 9.85-3.71 20.12-2.76 30.21 1.67 17.89 11.38 36 29.44 41.54 6.78 2.06 9.66-8.5 2.91-10.56Z" class="color560a12 svgShape"/><path fill="#ffffff" d="M3251.11 1261.25c-22-4.5-42.06 11.08-48 40-5.63 27.53 5.82 49.27 27.54 53.72 21 4.29 41.59-8.79 48-40.09 5.54-27.04-5.09-49.04-27.54-53.63Zm16.23 51.82c-4.23 20.65-17.25 35.84-34.09 32.39s-22.68-22.77-18.71-42.2c4.09-20 16.55-36.13 34.12-32.53s22.34 24.27 18.68 42.34ZM3321.77 1302.41c-16.35-3.34-31.91 6.83-36.38 28.69-4.23 20.65 5.45 36.12 21.44 39.39 14.27 2.92 31.56-4.51 36.5-28.66 4.09-19.97-4.6-35.95-21.56-39.42Zm10.5 37.58c-3 14.7-12.88 23.79-23.13 21.7-10.5-2.15-15.73-14.47-12.81-28.77 2.54-12.42 10.68-24.25 23.37-21.65s14.83 17.65 12.57 28.73ZM3394.62 1317.31c-9.64-2-17.56 1.33-23.58 8.39h-.25l1.81-11.3-9.64-2c-1 6.26-2.17 13.06-3.88 21.42l-14.46 70.71 10.62 2.17 7.26-35.49h.24c2.22 7.21 8.28 12.38 16.09 14 13.91 2.84 29.22-6.11 34-29.59 4.08-19.83-3.93-35.39-18.21-38.31ZM3402 1354c-3.06 15-11.75 23.88-23.1 21.56-7.69-1.57-13-8.56-13.26-17.19a29 29 0 0 1 .5-5l2.29-11.2a21.5 21.5 0 0 1 1.73-4.71c3.89-8.48 11.91-12.88 19.24-11.38 11.35 2.33 15.28 14.8 12.6 27.92ZM3426.82 1343.86c-1.6 7.83 2.08 15.33 11.84 21.68 7.27 4.87 9.69 8.59 8.53 14.26-1.1 5.4-5.65 9-13.46 7.37a26.81 26.81 0 0 1-13.19-7.62L3416 1388a31.74 31.74 0 0 0 15.68 7.85c14 2.87 23.75-3.58 26.1-15.05 2-9.71-2.11-16.45-11.47-22.87-7-4.81-10.07-8-9-13.36 1-4.86 5.36-8.18 11.71-6.88a21.83 21.83 0 0 1 11.31 6.25l4.45-8.09a27.89 27.89 0 0 0-13.7-7c-12.65-2.58-22.08 4.49-24.26 15.01ZM3489.42 1399.18c-3.16-1.15-6.45.69-7.79 4.39s-.07 7.18 3.18 8.35 6.49-.79 7.79-4.39.17-7.14-3.18-8.35ZM3489.27 1389.71l6.32 2.28 19.13-48.87-8.92-3.23-16.53 49.82zM1995.54 2193.25h46.27v46.27h-46.27z" class="colorfff svgShape"/><path fill="#4cbfbc" d="M3496.27 1680.39h127.23v127.23h-127.23z" class="color4cbfbc svgShape"/><path fill="#ffba55" d="M3580.12 880.48H3690v109.88h-109.88z" class="colorffba55 svgShape"/><path fill="#4cbfbc" d="M2484.22 414.94h109.88v109.88h-109.88z" class="color4cbfbc svgShape"/><path fill="#16a3db" d="M3782.53 1878.07h98.31v98.31h-98.31z" class="color16a3db svgShape"/><path fill="#fe5a2c" d="M3525.18 2120.96h69.4v69.4h-69.4zM3126.14 1802.89h46.26v46.27h-46.26zM3302.53 2025.54h46.27v46.27h-46.27z" class="colorfe5a2c svgShape"/><path fill="#ffffff" d="M3100.95 1113.99h46.27v46.27h-46.27z" class="colorfff svgShape"/><path fill="#fe5a2c" d="M3331.45 845.78h46.26v46.27h-46.26z" class="colorfe5a2c svgShape"/><path fill="#ffba55" d="M3661.08 620.24h57.83v57.83h-57.83zM1028.31 1801.45h95.42v95.42h-95.42z" class="colorffba55 svgShape"/><path fill="#ffffff" d="M1352.17 1948.92h95.42v95.42h-95.42zM3063.98 2151.33h95.42v95.42h-95.42z" class="colorfff svgShape"/><path fill="#16a3db" d="M1295.78 2210.6h57.83v57.83h-57.83z" class="color16a3db svgShape"/><path fill="#fe5a2c" d="M1532.89 2199.04h46.27v46.26h-46.27zM799.16 2009.06h65.06v65.06h-65.06z" class="colorfe5a2c svgShape"/><path fill="#ffba55" d="M1051.08 2249.28h49.88v49.88h-49.88z" class="colorffba55 svgShape"/><path fill="#fe5a2c" d="M2093.86 360h57.83v57.83h-57.83zM3747.83 1239.04h57.83v57.83h-57.83zM2151.69 2546.02h69.4v69.4h-69.4zM1943.49 2707.95h52.05V2760h-52.05zM1391.2 2577.83h75.18v75.18h-75.18z" class="colorfe5a2c svgShape"/><path fill="#157c77" d="M2701.63 1311.88h-53.49a34.68 34.68 0 0 0-34.68 34.68v45.65h148.3V1372a60.14 60.14 0 0 0-60.13-60.12Z" class="color157c77 svgShape"/><path fill="#157c77" d="m2318.67 1280.49 309.1 110.85 18.4-28.59-315.67-114.8-11.83 32.54z" class="color157c77 svgShape"/><path fill="#621112" d="m1451.82 1574.48 260.48 71.36 917.05-253.35-310.44-110.61-867.09 292.6z" class="color621112 svgShape"/><path fill="#3a0508" d="m1475.28 1580.61 237.02 65.23L2454.28 1329l-244.92-102.75-734.08 354.36z" class="color3a0508 svgShape"/><path fill="#4cbfbc" d="m1708.73 2066.9 742.2-3.57 178.42-670.84-917.05 253.35-3.57 421.06z" class="color4cbfbc svgShape"/><path fill="#238c87" d="m1708.73 2066.9 742.2-3.57 162.53-671.12s-152.27 558.46-904.73 674.69Z" class="color238c87 svgShape"/><path fill="#ffffff" d="M1532.23 1594.17h3.57v423.24h-3.57z" transform="rotate(-3.83 1534.741 1806.65)" class="colorfff svgShape"/><path fill="#ffffff" d="M1588.31 1610.56h3.57v415.74h-3.57z" transform="rotate(-1.07 1591.128 1820.047)" class="colorfff svgShape"/><path fill="#ffffff" d="M1440.01 1835.58h418.65v3.57h-418.65z" transform="rotate(-88.93 1649.344 1837.365)" class="colorfff svgShape"/><path fill="#ffffff" d="m2360.24 2062.67 3.46.89c16.68-65 163-635.26 163-642.22l-3.57-.08c-.85 8.54-106.92 423.29-162.89 641.41Z" class="colorfff svgShape"/><path fill="#ffffff" d="M2053.16 1750.89h634.71v3.57h-634.71z" transform="rotate(-77.01 2370.462 1752.68)" class="colorfff svgShape"/><path fill="#ffffff" d="M1990.01 1765.76h609.36v3.57h-609.36z" transform="rotate(-78.74 2294.877 1767.539)" class="colorfff svgShape"/><path fill="#ffffff" d="M1931.22 1774.68h578.28v3.57h-578.28z" transform="rotate(-80.83 2220.417 1776.465)" class="colorfff svgShape"/><path fill="#ffffff" d="M1875.17 1788.06h553.6v3.57h-553.6z" transform="rotate(-83.52 2152.115 1789.84)" class="colorfff svgShape"/><path fill="#ffffff" d="M1821.03 1794.7h524.26v3.57h-524.26z" transform="rotate(-84.38 2083.099 1796.496)" class="colorfff svgShape"/><path fill="#ffffff" d="M1761.55 1809.65h505.24v3.57h-505.24z" transform="rotate(-86.05 2014.326 1811.43)" class="colorfff svgShape"/><path fill="#ffffff" d="M1688.54 1819.38h489.61v3.57h-489.61z" transform="rotate(-85.1 1933.302 1821.161)" class="colorfff svgShape"/><path fill="#ffffff" d="M1624.27 1834.32h464.93v3.57h-464.93z" transform="rotate(-87.33 1856.8 1836.108)" class="colorfff svgShape"/><path fill="#ffffff" d="M1560.25 1844.55h449.02v3.57h-449.02z" transform="rotate(-89.24 1784.699 1846.339)" class="colorfff svgShape"/><path fill="#ffffff" d="m1712.91 1717.7-249.34-68-.94 3.45 249.82 68.13.47.13 882.24-245.18-.95-3.44-881.3 244.91z" class="colorfff svgShape"/><path fill="#ffffff" d="m1706.44 1792.33-233.17-58.29-.87 3.47 233.59 58.4.43.1 856.93-204.49-.83-3.48-856.08 204.29z" class="colorfff svgShape"/><path fill="#ffffff" d="m1706.5 1876.69-220.22-61.51-.96 3.45 220.63 61.62.4.11 824.48-159.05-.67-3.51-823.66 158.89zM1706.54 1948.09l-208.41-53.45-.89 3.47 208.74 53.52.34.09 791.96-103.86-.46-3.55-791.28 103.78zM1706.44 2019.17l-202.67-64.49-1.09 3.41 203.32 64.69 764.02-48.86-.23-3.57-763.35 48.82z" class="colorfff svgShape"/><path fill="#ffffff" d="M1499.98 1854.58h421.07v3.57h-421.07z" transform="rotate(-89.52 1710.408 1856.364)" class="colorfff svgShape"/><path fill="#10405f" d="M1603.77 2310.91h-1.1v.58l-1.14.59 1.14 2.18v128.06h41.63v-105.28l495.38-258.29-19.38-37.16-516.53 269.32zM1807.38 2378.75l-5.01-1.72-1.41 4.12-.88.33.4 1.08-40.65 118.81 39.4 13.48 34.64-101.27 612.14-229.18-14.7-39.25-623.93 233.6z" class="color10405f svgShape"/><path fill="#16a3db" d="m2089.03 2025.78-31.57 31.58 460.22 393.52-32.15 93.96 39.4 13.47 42.54-124.34-8.43-2.88-470.01-405.31zM2921.65 2512.93h-.09l-492.79-371.02-8.09 42.93 458.73 348.82v94.72h42.24v-113.29l1.01-1.33-1.01-.76v-.07z" class="color16a3db svgShape"/><circle cx="1788.27" cy="2563.97" r="77.4" fill="#82151b" transform="rotate(-45 1788.273 2563.973)" class="color82151b svgShape"/><circle cx="1611.05" cy="2492.35" r="77.4" fill="#82151b" transform="rotate(-45 1611.055 2492.35)" class="color82151b svgShape"/><circle cx="2496.41" cy="2583.08" r="77.4" fill="#82151b" transform="rotate(-45 2496.405 2583.075)" class="color82151b svgShape"/><circle cx="2897.16" cy="2636.66" r="77.4" fill="#82151b" transform="rotate(-45 2897.16 2636.657)" class="color82151b svgShape"/><path fill="#157c77" d="m2416.07 2188.53 32.81 8.85 226.04-838.59-54.99 11.76-203.86 817.98z" class="color157c77 svgShape"/><circle cx="1609.65" cy="2491.92" r="41.94" fill="#4cbfbc" transform="rotate(-22.5 1609.643 2491.92)" class="color4cbfbc svgShape"/><circle cx="1789.39" cy="2563.82" r="41.94" fill="#4cbfbc" transform="rotate(-5.65 1791.08 2565.95)" class="color4cbfbc svgShape"/><circle cx="2496.35" cy="2579.8" r="41.94" fill="#4cbfbc" transform="rotate(-67.5 2496.353 2579.795)" class="color4cbfbc svgShape"/><circle cx="2895.77" cy="2635.71" r="41.94" fill="#4cbfbc" class="color4cbfbc svgShape"/><path fill="#10405f" d="m1083.82 942.31 204.7 663.4 1215.51-379.98-204.7-663.4-1215.51 379.98z" class="color10405f svgShape"/><path fill="#fe5a2c" d="m1145.57 970.81 204.71 663.4 1215.51-379.98-204.71-663.4-1215.51 379.98z" class="colorfe5a2c svgShape"/><path fill="#ff8e55" d="m1350.28 1634.21 1215.51-379.98-1420.22-283.42 204.71 663.4z" class="colorff8e55 svgShape"/><path fill="#ffffff" d="m1429.12 1352.3-26.07-82.16 89.68-28.45-7.72-24.35-89.69 28.46-22.85-72.01 94.82-30.09-7.83-24.68-124.6 39.53 72.31 227.88 129.73-41.16-7.83-24.68-99.95 31.71zM1680.24 1049l-6.1 123.26c-1.15 32-1.43 59.62 0 84.46l-1 .32c-13.33-21.82-29.14-44.34-47.63-69.36l-74.34-97.73-38 12.06 56.21 233 28.42-9-24.8-99.74c-8.78-34.8-19.19-73.55-27.52-102.16l.69-.22c15.09 25 33.66 51.47 54.81 80.11l71.74 96.69 22.6-7.17L1701 1170c1.66-35.14 2.24-66.58 1.63-95.79l1-.32c8.67 28.51 22.85 66.06 34.64 97.3l37.58 98.23 29.09-9.23-86.68-223.32ZM1905.81 996.37c-17.56-7.83-41.27-7.74-70.71 1.6a366.34 366.34 0 0 0-55.77 22.53l71.45 225.17 29.78-9.44-29-91.29c7.38-.48 15.7-2.75 24.6-5.58 29.1-9.23 52.09-25.83 62.58-47.39 7.88-15.53 8.89-33.71 2.35-54.33-6.4-20.29-19.18-34.47-35.28-41.27Zm-36.43 119.11c-9.93 3.15-18.36 5.08-25.4 5.45l-28.11-88.58c4.71-3 14.31-7.14 27.32-11.27 32.86-10.43 59-2.73 68.59 27.36 9.98 31.44-6.46 55.64-42.4 67.04ZM2105.03 914.18l-170.81 54.2 7.94 25.02 70.17-22.27 64.37 202.86 30.12-9.56-64.36-202.86 70.51-22.37-7.94-25.02zM2265.23 863.35 2252 936.77c-3.43 20.07-6.58 37.44-8.37 54.38l-.68.22c-12.23-13.61-23.48-25.3-37.85-39.72l-52.47-52.57-33.89 10.76 114.54 108 30.68 96.7 30.12-9.56-30.79-97 35.85-155.39Z" class="colorfff svgShape"/><path fill="#c92100" d="M1857 745.72c443.24-119.2 566.17 67 597.28 144.34l-93.21-299.23ZM2454.29 890.06l9.7 31.14s-2.14-12.36-9.7-31.14Z" class="colorc92100 svgShape"/><path fill="#10405f" d="m1773.76 1300.17-197.58 168.48 105.84 124.12 76.13-64.92 30.39 6.81 42.83 9.59-13.11-41.89-6.36-20.34 67.7-57.72-105.84-124.13z" class="color10405f svgShape"/><path fill="#10405f" d="m1738.91 1435.09.23-42.47-13.5-.07-.23 43.15-43.29 1.94.6 13.49 42.62-1.91-.27 49.64 13.5.07.27-50.32 50.08-2.25-.6-13.48-49.41 2.21z" class="color10405f svgShape"/><path fill="#16a3db" d="m1546.19 1470.53 105.84 124.12 76.13-64.92 30.39 6.81 42.83 9.6-13.1-41.9-6.37-20.33 67.7-57.73-105.83-124.12-197.59 168.47z" class="color16a3db svgShape"/><path fill="#ffffff" d="m1708.92 1436.98.23-42.47-13.5-.08-.23 43.15-43.29 1.95.61 13.48 42.61-1.91-.26 49.64 13.5.07.26-50.32 50.09-2.24-.61-13.49-49.41 2.22z" class="colorfff svgShape"/><path fill="#ffba55" d="m1923 1390.02 39 97.03 59.52-23.92 17.08 10.33 24.07 14.57.58-28.14.28-13.65 52.93-21.28-39.01-97.03-154.45 62.09z" class="colorffba55 svgShape"/><path fill="#ffba55" d="m2039.69 1372.05-10.25-4.65-14.89 32.77-33.61-13.29-4.14 10.48 33.09 13.07-17.13 37.7 10.26 4.66 17.36-38.22 38.89 15.37 4.14-10.47-38.37-15.16 14.65-32.26z" class="colorffba55 svgShape"/><path fill="#ffffff" d="m1910.73 1414.57 39 97.03 59.52-23.93 17.08 10.34 24.07 14.57.58-28.14.28-13.66 52.92-21.27-39-97.03-154.45 62.09z" class="colorfff svgShape"/><path fill="#fe5a2c" d="m2027.42 1396.6-10.25-4.66-14.89 32.77-33.62-13.28-4.13 10.47 33.09 13.08-17.13 37.7 10.25 4.65 17.36-38.21 38.9 15.37 4.13-10.47-38.36-15.16 14.65-32.26z" class="colorfe5a2c svgShape"/><path fill="#157c77" d="m2162.09 1320.44 100.15 22.59 13.1 29.14 18.47 41.08 26.34-36.54 12.79-17.73 89.05 20.08 36.83-163.26-259.9-58.63-36.83 163.27z" class="color157c77 svgShape"/><path fill="#157c77" d="m2356.73 1232.08-40.73 22.07-24.19-39.74-12.39 7.53 23.82 39.13-46.86 25.39 6.9 12.75 47.5-25.75 27.99 45.99 12.38-7.54-27.61-45.36 40.1-21.73-6.91-12.74z" class="color157c77 svgShape"/><path fill="#ffa227" d="m2177.44 1305.1 100.14 22.59 13.1 29.14 18.47 41.08 26.34-36.54 12.79-17.73 89.05 20.08 36.83-163.27-259.9-58.62-36.82 163.27z" class="colorffa227 svgShape"/><path fill="#ffffff" d="m2372.07 1216.74-40.73 22.07-24.19-39.74-12.38 7.53 23.81 39.13-46.86 25.39 6.9 12.75 47.51-25.75 27.98 45.99 12.38-7.54-27.6-45.36 40.09-21.73-6.91-12.74z" class="colorfff svgShape"/></g></svg>