<svg id="visual" viewBox="0 0 900 675" width="900" height="675" xmlns="http://www.w3.org/2000/svg" xmlns:xlink="http://www.w3.org/1999/xlink" version="1.1"><rect x="0" y="0" width="900" height="675" fill="#e5e7eb"></rect><defs><linearGradient id="grad1_0" x1="25%" y1="0%" x2="100%" y2="100%"><stop offset="23.333333333333336%" stop-color="#d1d5db" stop-opacity="1"></stop><stop offset="76.66666666666666%" stop-color="#d1d5db" stop-opacity="1"></stop></linearGradient></defs><defs><linearGradient id="grad1_1" x1="25%" y1="0%" x2="100%" y2="100%"><stop offset="23.333333333333336%" stop-color="#d1d5db" stop-opacity="1"></stop><stop offset="76.66666666666666%" stop-color="#e5e7eb" stop-opacity="1"></stop></linearGradient></defs><defs><linearGradient id="grad2_0" x1="0%" y1="0%" x2="75%" y2="100%"><stop offset="23.333333333333336%" stop-color="#d1d5db" stop-opacity="1"></stop><stop offset="76.66666666666666%" stop-color="#d1d5db" stop-opacity="1"></stop></linearGradient></defs><defs><linearGradient id="grad2_1" x1="0%" y1="0%" x2="75%" y2="100%"><stop offset="23.333333333333336%" stop-color="#e5e7eb" stop-opacity="1"></stop><stop offset="76.66666666666666%" stop-color="#d1d5db" stop-opacity="1"></stop></linearGradient></defs><g transform="translate(900, 0)"><path d="M0 506.3C-48.4 460 -96.8 413.7 -164.6 397.3C-232.3 380.9 -319.3 394.4 -358 358C-396.7 321.6 -387.1 235.2 -403.7 167.2C-420.4 99.2 -463.3 49.6 -506.2 0L0 0Z" fill="#dbdee3"></path><path d="M0 253.1C-24.2 230 -48.4 206.8 -82.3 198.6C-116.1 190.4 -159.6 197.2 -179 179C-198.3 160.8 -193.5 117.6 -201.9 83.6C-210.2 49.6 -231.7 24.8 -253.1 0L0 0Z" fill="#d1d5db"></path></g><g transform="translate(0, 675)"><path d="M0 -506.2C47.6 -452 95.3 -397.8 156.9 -378.8C218.5 -359.8 294.1 -375.9 350.7 -350.7C407.3 -325.6 445 -259.1 467.7 -193.7C490.5 -128.4 498.4 -64.2 506.3 0L0 0Z" fill="#dbdee3"></path><path d="M0 -253.1C23.8 -226 47.6 -198.9 78.5 -189.4C109.3 -179.9 147.1 -187.9 175.4 -175.4C203.7 -162.8 222.5 -129.5 233.9 -96.9C245.2 -64.2 249.2 -32.1 253.1 0L0 0Z" fill="#d1d5db"></path></g></svg>