<svg id="visual" viewBox="0 0 900 900" width="900" height="900" xmlns="http://www.w3.org/2000/svg" xmlns:xlink="http://www.w3.org/1999/xlink" version="1.1"><g transform="translate(470.5610458285351 474.6150791385324)"><path d="M214.6 -268.2C281.5 -246.8 341.4 -188.6 331.2 -129.1C321.1 -69.6 240.8 -8.7 199.9 48.9C159.1 106.5 157.7 160.8 131 193.7C104.2 226.5 52.1 237.7 8.7 225.7C-34.7 213.7 -69.4 178.5 -140.7 160.1C-212 141.8 -320 140.4 -357.2 98.9C-394.4 57.3 -360.8 -24.5 -326.1 -98.1C-291.4 -171.7 -255.6 -237.1 -201.1 -262.6C-146.6 -288 -73.3 -273.5 0.3 -273.9C73.9 -274.3 147.7 -289.7 214.6 -268.2" fill="#9ca3af"></path></g></svg>