<svg id="visual" viewBox="0 0 960 540" width="960" height="540" xmlns="http://www.w3.org/2000/svg" xmlns:xlink="http://www.w3.org/1999/xlink" version="1.1"><path d="M0 93L14.5 91.2C29 89.3 58 85.7 87.2 83.8C116.3 82 145.7 82 174.8 75.7C204 69.3 233 56.7 262 49.5C291 42.3 320 40.7 349 43.3C378 46 407 53 436.2 52C465.3 51 494.7 42 523.8 43.8C553 45.7 582 58.3 611 65.7C640 73 669 75 698 72.3C727 69.7 756 62.3 785.2 65C814.3 67.7 843.7 80.3 872.8 84.8C902 89.3 931 85.7 945.5 83.8L960 82L960 0L945.5 0C931 0 902 0 872.8 0C843.7 0 814.3 0 785.2 0C756 0 727 0 698 0C669 0 640 0 611 0C582 0 553 0 523.8 0C494.7 0 465.3 0 436.2 0C407 0 378 0 349 0C320 0 291 0 262 0C233 0 204 0 174.8 0C145.7 0 116.3 0 87.2 0C58 0 29 0 14.5 0L0 0Z" fill="#6198ff"></path><path d="M0 141L14.5 149.2C29 157.3 58 173.7 87.2 176.5C116.3 179.3 145.7 168.7 174.8 152.5C204 136.3 233 114.7 262 113.7C291 112.7 320 132.3 349 133.2C378 134 407 116 436.2 114.2C465.3 112.3 494.7 126.7 523.8 134.8C553 143 582 145 611 141.5C640 138 669 129 698 122.7C727 116.3 756 112.7 785.2 125.2C814.3 137.7 843.7 166.3 872.8 168.2C902 170 931 145 945.5 132.5L960 120L960 80L945.5 81.8C931 83.7 902 87.3 872.8 82.8C843.7 78.3 814.3 65.7 785.2 63C756 60.3 727 67.7 698 70.3C669 73 640 71 611 63.7C582 56.3 553 43.7 523.8 41.8C494.7 40 465.3 49 436.2 50C407 51 378 44 349 41.3C320 38.7 291 40.3 262 47.5C233 54.7 204 67.3 174.8 73.7C145.7 80 116.3 80 87.2 81.8C58 83.7 29 87.3 14.5 89.2L0 91Z" fill="#3c80ff"></path><path d="M0 282L14.5 282C29 282 58 282 87.2 284.7C116.3 287.3 145.7 292.7 174.8 302.5C204 312.3 233 326.7 262 329.3C291 332 320 323 349 303.2C378 283.3 407 252.7 436.2 242.8C465.3 233 494.7 244 523.8 267.5C553 291 582 327 611 341.3C640 355.7 669 348.3 698 327.7C727 307 756 273 785.2 262.2C814.3 251.3 843.7 263.7 872.8 269.8C902 276 931 276 945.5 276L960 276L960 118L945.5 130.5C931 143 902 168 872.8 166.2C843.7 164.3 814.3 135.7 785.2 123.2C756 110.7 727 114.3 698 120.7C669 127 640 136 611 139.5C582 143 553 141 523.8 132.8C494.7 124.7 465.3 110.3 436.2 112.2C407 114 378 132 349 131.2C320 130.3 291 110.7 262 111.7C233 112.7 204 134.3 174.8 150.5C145.7 166.7 116.3 177.3 87.2 174.5C58 171.7 29 155.3 14.5 147.2L0 139Z" fill="#0066ff"></path><path d="M0 422L14.5 425.7C29 429.3 58 436.7 87.2 434.8C116.3 433 145.7 422 174.8 422.8C204 423.7 233 436.3 262 441.8C291 447.3 320 445.7 349 451.2C378 456.7 407 469.3 436.2 464.8C465.3 460.3 494.7 438.7 523.8 433.2C553 427.7 582 438.3 611 439.2C640 440 669 431 698 436.5C727 442 756 462 785.2 467.5C814.3 473 843.7 464 872.8 453.2C902 442.3 931 429.7 945.5 423.3L960 417L960 274L945.5 274C931 274 902 274 872.8 267.8C843.7 261.7 814.3 249.3 785.2 260.2C756 271 727 305 698 325.7C669 346.3 640 353.7 611 339.3C582 325 553 289 523.8 265.5C494.7 242 465.3 231 436.2 240.8C407 250.7 378 281.3 349 301.2C320 321 291 330 262 327.3C233 324.7 204 310.3 174.8 300.5C145.7 290.7 116.3 285.3 87.2 282.7C58 280 29 280 14.5 280L0 280Z" fill="#0059dd"></path><path d="M0 541L14.5 541C29 541 58 541 87.2 541C116.3 541 145.7 541 174.8 541C204 541 233 541 262 541C291 541 320 541 349 541C378 541 407 541 436.2 541C465.3 541 494.7 541 523.8 541C553 541 582 541 611 541C640 541 669 541 698 541C727 541 756 541 785.2 541C814.3 541 843.7 541 872.8 541C902 541 931 541 945.5 541L960 541L960 415L945.5 421.3C931 427.7 902 440.3 872.8 451.2C843.7 462 814.3 471 785.2 465.5C756 460 727 440 698 434.5C669 429 640 438 611 437.2C582 436.3 553 425.7 523.8 431.2C494.7 436.7 465.3 458.3 436.2 462.8C407 467.3 378 454.7 349 449.2C320 443.7 291 445.3 262 439.8C233 434.3 204 421.7 174.8 420.8C145.7 420 116.3 431 87.2 432.8C58 434.7 29 427.3 14.5 423.7L0 420Z" fill="#004cbb"></path></svg>